<?xml version='1.0' encoding='UTF-8' standalone='no'?>
<svg height="408pt" xmlns="http://www.w3.org/2000/svg" xmlns:xlink="http://www.w3.org/1999/xlink" width="1124pt" viewBox="0 0 1124 408">
 <title>gl2ps_renderer figure</title>
 <desc>
Creator: GL2PS 1.4.2, (C) 1999-2020 C. Geuzaine
For: Octave
CreationDate: Tue Nov 22 17:37:08 2022
</desc>
 <defs/>
 <polygon fill="#ffffff" points="0,0 1124,0 1124,408 0,408"/>
 <g>
  <polygon fill="#ffffff" points="0,408 1124,408 1124,0 0,0" shape-rendering="crispEdges"/>
  <clipPath id="cp001124408">
   <polygon points="0,408 1124,408 1124,0 0,0"/>
  </clipPath>
  <g clip-path="url(#cp001124408)">
   <polygon fill="#ffffff" points="146.25,38.4501 146.25,120.516 1018.12,120.516 1018.12,38.4501" shape-rendering="crispEdges"/>
   <polyline stroke="#262626" stroke-linejoin="miter" stroke-dasharray="16,0" stroke-linecap="butt" fill="none" points="146.25,120.516 146.25,38.4501" stroke-opacity="0.15" stroke-width="0.5"/>
   <polyline stroke="#262626" stroke-linejoin="miter" stroke-dasharray="16,0" stroke-linecap="butt" fill="none" points="320.625,120.516 320.625,38.4501" stroke-opacity="0.15" stroke-width="0.5"/>
   <polyline stroke="#262626" stroke-linejoin="miter" stroke-dasharray="16,0" stroke-linecap="butt" fill="none" points="495,120.516 495,38.4501" stroke-opacity="0.15" stroke-width="0.5"/>
   <polyline stroke="#262626" stroke-linejoin="miter" stroke-dasharray="16,0" stroke-linecap="butt" fill="none" points="669.375,120.516 669.375,38.4501" stroke-opacity="0.15" stroke-width="0.5"/>
   <polyline stroke="#262626" stroke-linejoin="miter" stroke-dasharray="16,0" stroke-linecap="butt" fill="none" points="843.75,120.516 843.75,38.4501" stroke-opacity="0.15" stroke-width="0.5"/>
   <polyline stroke="#262626" stroke-linejoin="miter" stroke-dasharray="16,0" stroke-linecap="butt" fill="none" points="1018.12,120.516 1018.12,38.4501" stroke-opacity="0.15" stroke-width="0.5"/>
   <polyline stroke="#262626" stroke-linejoin="miter" stroke-linecap="butt" fill="none" points="146.25,120.516 146.25,111.79" stroke-width="0.5"/>
   <polyline stroke="#262626" stroke-linejoin="miter" stroke-linecap="butt" fill="none" points="146.25,38.4501 146.25,47.1759" stroke-width="0.5"/>
   <polyline stroke="#262626" stroke-linejoin="miter" stroke-linecap="butt" fill="none" points="320.625,120.516 320.625,111.79" stroke-width="0.5"/>
   <polyline stroke="#262626" stroke-linejoin="miter" stroke-linecap="butt" fill="none" points="320.625,38.4501 320.625,47.1759" stroke-width="0.5"/>
   <polyline stroke="#262626" stroke-linejoin="miter" stroke-linecap="butt" fill="none" points="495,120.516 495,111.79" stroke-width="0.5"/>
   <polyline stroke="#262626" stroke-linejoin="miter" stroke-linecap="butt" fill="none" points="495,38.4501 495,47.1759" stroke-width="0.5"/>
   <polyline stroke="#262626" stroke-linejoin="miter" stroke-linecap="butt" fill="none" points="669.375,120.516 669.375,111.79" stroke-width="0.5"/>
   <polyline stroke="#262626" stroke-linejoin="miter" stroke-linecap="butt" fill="none" points="669.375,38.4501 669.375,47.1759" stroke-width="0.5"/>
   <polyline stroke="#262626" stroke-linejoin="miter" stroke-linecap="butt" fill="none" points="843.75,120.516 843.75,111.79" stroke-width="0.5"/>
   <polyline stroke="#262626" stroke-linejoin="miter" stroke-linecap="butt" fill="none" points="843.75,38.4501 843.75,47.1759" stroke-width="0.5"/>
   <polyline stroke="#262626" stroke-linejoin="miter" stroke-linecap="butt" fill="none" points="1018.12,120.516 1018.12,111.79" stroke-width="0.5"/>
   <polyline stroke="#262626" stroke-linejoin="miter" stroke-linecap="butt" fill="none" points="1018.12,38.4501 1018.12,47.1759" stroke-width="0.5"/>
   <text font-size="10" xml:space="preserve" font-weight="normal" font-family="FreeSans" transform="translate(143.25,136.022) rotate(-0,3,-8)" font-style="normal">
    <tspan y="-0" fill="rgb(38,38,38)" x="0 ">0</tspan>
   </text>
   <text font-size="10" xml:space="preserve" font-weight="normal" font-family="FreeSans" transform="translate(313.125,136.022) rotate(-0,7.5,-8)" font-style="normal">
    <tspan y="-0" fill="rgb(38,38,38)" x="0 6 9 ">0.2</tspan>
   </text>
   <text font-size="10" xml:space="preserve" font-weight="normal" font-family="FreeSans" transform="translate(487.5,136.022) rotate(-0,7.5,-8)" font-style="normal">
    <tspan y="-0" fill="rgb(38,38,38)" x="0 6 9 ">0.4</tspan>
   </text>
   <text font-size="10" xml:space="preserve" font-weight="normal" font-family="FreeSans" transform="translate(661.875,136.022) rotate(-0,7.5,-8)" font-style="normal">
    <tspan y="-0" fill="rgb(38,38,38)" x="0 6 9 ">0.6</tspan>
   </text>
   <text font-size="10" xml:space="preserve" font-weight="normal" font-family="FreeSans" transform="translate(836.25,136.022) rotate(-0,7.5,-8)" font-style="normal">
    <tspan y="-0" fill="rgb(38,38,38)" x="0 6 9 ">0.8</tspan>
   </text>
   <text font-size="10" xml:space="preserve" font-weight="normal" font-family="FreeSans" transform="translate(1015.12,136.022) rotate(-0,3,-8)" font-style="normal">
    <tspan y="-0" fill="rgb(38,38,38)" x="0 ">1</tspan>
   </text>
   <polyline stroke="#262626" stroke-linejoin="miter" stroke-dasharray="16,0" stroke-linecap="butt" fill="none" points="146.25,120.516 1018.12,120.516" stroke-opacity="0.15" stroke-width="0.5"/>
   <polyline stroke="#262626" stroke-linejoin="miter" stroke-dasharray="16,0" stroke-linecap="butt" fill="none" points="146.25,99.9995 1018.12,99.9995" stroke-opacity="0.15" stroke-width="0.5"/>
   <polyline stroke="#262626" stroke-linejoin="miter" stroke-dasharray="16,0" stroke-linecap="butt" fill="none" points="146.25,79.4831 1018.12,79.4831" stroke-opacity="0.15" stroke-width="0.5"/>
   <polyline stroke="#262626" stroke-linejoin="miter" stroke-dasharray="16,0" stroke-linecap="butt" fill="none" points="146.25,58.9666 1018.12,58.9666" stroke-opacity="0.15" stroke-width="0.5"/>
   <polyline stroke="#262626" stroke-linejoin="miter" stroke-dasharray="16,0" stroke-linecap="butt" fill="none" points="146.25,38.4501 1018.12,38.4501" stroke-opacity="0.15" stroke-width="0.5"/>
   <polyline stroke="#262626" stroke-linejoin="miter" stroke-linecap="butt" fill="none" points="146.25,120.516 154.968,120.516" stroke-width="0.5"/>
   <polyline stroke="#262626" stroke-linejoin="miter" stroke-linecap="butt" fill="none" points="1018.12,120.516 1009.41,120.516" stroke-width="0.5"/>
   <polyline stroke="#262626" stroke-linejoin="miter" stroke-linecap="butt" fill="none" points="146.25,99.9995 154.968,99.9995" stroke-width="0.5"/>
   <polyline stroke="#262626" stroke-linejoin="miter" stroke-linecap="butt" fill="none" points="1018.12,99.9995 1009.41,99.9995" stroke-width="0.5"/>
   <polyline stroke="#262626" stroke-linejoin="miter" stroke-linecap="butt" fill="none" points="146.25,79.4831 154.968,79.4831" stroke-width="0.5"/>
   <polyline stroke="#262626" stroke-linejoin="miter" stroke-linecap="butt" fill="none" points="1018.12,79.4831 1009.41,79.4831" stroke-width="0.5"/>
   <polyline stroke="#262626" stroke-linejoin="miter" stroke-linecap="butt" fill="none" points="146.25,58.9666 154.968,58.9666" stroke-width="0.5"/>
   <polyline stroke="#262626" stroke-linejoin="miter" stroke-linecap="butt" fill="none" points="1018.12,58.9666 1009.41,58.9666" stroke-width="0.5"/>
   <polyline stroke="#262626" stroke-linejoin="miter" stroke-linecap="butt" fill="none" points="146.25,38.4501 154.968,38.4501" stroke-width="0.5"/>
   <polyline stroke="#262626" stroke-linejoin="miter" stroke-linecap="butt" fill="none" points="1018.12,38.4501 1009.41,38.4501" stroke-width="0.5"/>
   <text font-size="10" xml:space="preserve" font-weight="normal" font-family="FreeSans" transform="translate(126.251,124.516) rotate(-0,15,-4)" font-style="normal">
    <tspan y="-0" fill="rgb(38,38,38)" x="0 3 9 ">-10</tspan>
   </text>
   <text font-size="10" xml:space="preserve" font-weight="normal" font-family="FreeSans" transform="translate(132.251,104) rotate(-0,9,-4)" font-style="normal">
    <tspan y="-0" fill="rgb(38,38,38)" x="0 3 ">-5</tspan>
   </text>
   <text font-size="10" xml:space="preserve" font-weight="normal" font-family="FreeSans" transform="translate(135.251,83.4831) rotate(-0,6,-4)" font-style="normal">
    <tspan y="-0" fill="rgb(38,38,38)" x="0 ">0</tspan>
   </text>
   <text font-size="10" xml:space="preserve" font-weight="normal" font-family="FreeSans" transform="translate(135.251,62.9666) rotate(-0,6,-4)" font-style="normal">
    <tspan y="-0" fill="rgb(38,38,38)" x="0 ">5</tspan>
   </text>
   <text font-size="10" xml:space="preserve" font-weight="normal" font-family="FreeSans" transform="translate(129.251,42.4501) rotate(-0,12,-4)" font-style="normal">
    <tspan y="-0" fill="rgb(38,38,38)" x="0 6 ">10</tspan>
   </text>
   <polyline stroke="#262626" stroke-linejoin="miter" stroke-dasharray="16,0" stroke-linecap="square" fill="none" points="146.25,120.516 1018.12,120.516" stroke-width="0.5"/>
   <polyline stroke="#262626" stroke-linejoin="miter" stroke-dasharray="16,0" stroke-linecap="square" fill="none" points="146.25,38.4501 1018.12,38.4501" stroke-width="0.5"/>
   <polyline stroke="#262626" stroke-linejoin="miter" stroke-dasharray="16,0" stroke-linecap="square" fill="none" points="146.25,120.516 146.25,38.4501" stroke-width="0.5"/>
   <polyline stroke="#262626" stroke-linejoin="miter" stroke-dasharray="16,0" stroke-linecap="square" fill="none" points="1018.12,120.516 1018.12,38.4501" stroke-width="0.5"/>
   <polyline stroke="#ff0000" stroke-linejoin="round" stroke-linecap="butt" fill="none" points="146.25,71.5947 147.122,70.0739 147.994,73.2282 148.866,61.8103 149.738,69.5362 150.609,70.3973 151.481,74.0864 152.353,73.1414 153.225,69.6202 154.097,72.864 154.969,73.1718 155.841,82.0298 156.713,93.2218 157.584,80.9852 158.456,103.805 159.328,89.097 160.2,79.5284 161.072,69.6141 161.944,80.7279 162.816,104.111 163.688,67.9154 164.559,88.97 165.431,88.8286 166.303,77.0821 167.175,66.2 168.047,56.0911 168.919,65.1629 169.791,67.1589 170.663,79.0858 171.534,85.5323 172.406,65.7608 173.278,95.9428 174.15,81.6447 175.022,66.4789 175.894,78.075 176.766,98.536 177.638,82.3149 178.509,92.336 179.381,80.4891 180.253,92.1408 181.125,94.4178 181.997,91.5189 182.869,87.3813 183.741,63.4571 184.613,65.2062 185.484,66.7078 186.356,97.7198 187.228,92.4277 188.1,80.5796 188.972,92.5796 189.844,55.3934 190.716,76.9814 191.588,66.4408 192.459,67.6862 193.331,74.951 194.203,88.5033 195.075,80.0768 195.947,100.264 196.819,77.5752 197.691,87.7212 198.563,62.8669 199.434,82.6584 200.306,72.7848 201.178,89.4821 202.05,88.567 202.922,87.1093 203.794,73.0693 204.666,94.1316 205.538,64.2711 206.409,79.1975 207.281,79.7365 208.153,78.3466 209.025,98.6752 209.897,88.2166 210.769,86.0357 211.641,52.1938 212.513,86.5359 213.384,71.2856 214.256,96.3273 215.128,86.0965 216,84.4913 216.872,77.5011 217.744,89.1309 218.616,72.7871 219.488,47.2894 220.359,72.3817 221.231,75.4997 222.103,77.2714 222.975,71.0067 223.847,71.0472 224.719,93.5779 225.591,92.6621 226.463,78.86 227.334,81.8435 228.206,92.2711 229.078,64.3222 229.95,89.3669 230.822,95.2748 231.694,84.3325 232.566,86.5742 233.438,89.7075 234.309,67.6198 235.181,80.9059 236.053,96.2292 236.925,71.896 237.797,75.0269 238.669,96.0649 239.541,73.8083 240.413,79.7927 241.284,92.7153 242.156,88.042 243.028,65.7087 243.9,59.6208 244.772,80.0079 245.644,80.7639 246.516,80.8113 247.388,107.55 248.259,91.1141 249.131,72.6787 250.003,90.8172 250.875,52.8135 251.747,78.6171 252.619,89.1313 253.491,86.4345 254.363,87.2021 255.234,90.7273 256.106,71.1803 256.978,56.0627 257.85,53.463 258.722,90.4064 259.594,73.9705 260.466,80.9626 261.338,81.1539 262.209,89.8748 263.081,89.8712 263.953,70.2899 264.825,84.7026 265.697,82.0049 266.569,65.7858 267.441,79.8097 268.313,79.5419 269.184,77.4991 270.056,76.3699 270.928,76.0054 271.8,73.7082 272.672,70.4102 273.544,71.9206 274.416,61.3391 275.288,78.0778 276.159,75.7832 277.031,75.7485 277.903,75.6672 278.775,61.5824 279.647,58.6406 280.519,82.1369 281.391,72.0734 282.263,100.357 283.134,79.9314 284.006,76.828 284.878,73.2493 285.75,69.2609 286.622,73.4852 287.494,59.6653 288.366,69.7679 289.238,67.5635 290.109,86.1229 290.981,60.9462 291.853,82.6409 292.725,59.666 293.597,79.3352 294.469,65.6028 295.341,94.4133 296.213,85.4754 297.084,82.1152 297.956,103.592 298.828,91.5594 299.7,79.6886 300.572,97.9154 301.444,78.8913 302.316,72.6355 303.188,81.3434 304.059,94.3293 304.931,86.6938 305.803,82.5925 306.675,59.8955 307.547,83.802 308.419,81.8964 309.291,71.5927 310.163,78.386 311.034,93.1378 311.906,87.9285 312.778,77.2093 313.65,77.028 314.522,79.1884 315.394,85.2506 316.266,76.1632 317.138,87.7723 318.009,83.7903 318.881,77.9763 319.753,77.2414 320.625,53.6214 321.497,77.4648 322.369,68.7338 323.241,73.1767 324.113,65.4639 324.984,78.4892 325.856,73.3311 326.728,64.5511 327.6,71.4766 328.472,76.3131 329.344,77.7598 330.216,67.0502 331.088,70.9786 331.959,79.862 332.831,81.7854 333.703,106.019 334.575,95.1807 335.447,83.4868 336.319,84.4003 337.191,69.9829 338.063,80.7854 338.934,82.5103 339.806,92.3876 340.678,88.2292 341.55,57.2187 342.422,79.8483 343.294,80.8458 344.166,61.4029 345.038,96.0823 345.909,65.6606 346.781,96.7292 347.653,73.9239 348.525,92.2274 349.397,69.114 350.269,81.9016 351.141,100.516 352.013,70.0532 352.884,80.3131 353.756,92.4707 354.628,90.6509 355.5,87.8329 356.372,84.6153 357.244,76.9557 358.116,83.3852 358.988,71.6824 359.859,95.744 360.731,71.1715 361.603,87.6465 362.475,70.9522 363.347,85.5835 364.219,90.6776 365.091,79.6616 365.963,102.232 366.834,87.1183 367.706,90.3249 368.578,76.9199 369.45,99.3891 370.322,84.0474 371.194,91.0487 372.066,74.1328 372.938,85.9722 373.809,72.7539 374.681,62.2205 375.553,59.5758 376.425,60.5775 377.297,66.3957 378.169,86.0646 379.041,77.1175 379.913,65.5464 380.784,76.8737 381.656,62.9583 382.528,73.5734 383.4,75.8192 384.272,74.5376 385.144,82.11 386.016,86.2695 386.888,91.3384 387.759,80.9018 388.631,83.6025 389.503,80.2862 390.375,72.8609 391.247,79.2951 392.119,72.7213 392.991,84.6306 393.863,84.3583 394.734,78.5444 395.606,85.8877 396.478,61.4089 397.35,73.3495 398.222,86.0894 399.094,82.3702 399.966,86.5823 400.838,91.6749 401.709,93.4122 402.581,85.5912 403.453,74.1045 404.325,68.8594 405.197,87.127 406.069,79.0523 406.941,87.0364 407.813,64.0451 408.684,75.9036 409.556,75.8484 410.428,62.2814 411.3,70.6957 412.172,82.2549 413.044,85.4158 413.916,95.1655 414.788,90.3579 415.659,97.3181 416.531,71.8526 417.403,84.486 418.275,72.6993 419.147,80.2388 420.019,72.5472 420.891,110.367 421.763,71.5209 422.634,75.3802 423.506,91.3007 424.378,93.0212 425.25,72.3172 426.122,74.1596 426.994,84.9825 427.866,77.8282 428.738,91.9805 429.609,74.9535 430.481,85.838 431.353,72.5283 432.225,68.2276 433.097,75.675 433.969,54.6282 434.841,66.7056 435.713,90.8749 436.584,79.283 437.456,85.3133 438.328,79.3656 439.2,78.3535 440.072,82.8951 440.944,89.4571 441.816,89.3853 442.688,82.1674 443.559,78.0992 444.431,70.6999 445.303,82.4853 446.175,79.2713 447.047,77.3958 447.919,72.5826 448.791,82.5267 449.663,71.3091 450.534,65.8644 451.406,81.1652 452.278,84.5386 453.15,67.164 454.022,86.4183 454.894,76.8008 455.766,94.1157 456.638,85.8611 457.509,98.9276 458.381,83.0818 459.253,91.4275 460.125,74.0521 460.997,80.8635 461.869,65.784 462.741,74.9843 463.613,98.9122 464.484,78.7153 465.356,85.7057 466.228,78.3689 467.1,95.4259 467.972,76.0974 468.844,83.4418 469.716,99.6544 470.588,83.063 471.459,78.3244 472.331,77.4249 473.203,76.0133 474.075,84.8666 474.947,56.4554 475.819,84.562 476.691,85.3406 477.562,84.0903 478.434,74.3301 479.306,79.6591 480.178,82.6295 481.05,69.6609 481.922,70.7423 482.794,61.8293 483.666,80.7325 484.538,68.0294 485.409,86.114 486.281,88.6871 487.153,78.1151 488.025,76.086 488.897,75.1846 489.769,74.6924 490.641,69.4868 491.513,79.5096 492.384,81.0678 493.256,88.9348 494.128,86.2169 495,80.5168 495.872,82.9576 496.744,68.5255 497.616,70.5695 498.488,71.4323 499.359,70.9459 500.231,73.9893 501.103,72.9648 501.975,77.0829 502.847,80.6335 503.719,71.6025 504.591,86.3381 505.463,63.8111 506.334,92.7793 507.206,85.5215 508.078,82.4588 508.95,90.8486 509.822,87.5039 510.694,68.2681 511.566,74.3701 512.438,100.564 513.309,61.3684 514.181,71.6282 515.053,86.0272 515.925,80.9297 516.797,77.2885 517.669,82.1324 518.541,68.355 519.413,77.8649 520.284,80.1459 521.156,88.8397 522.028,87.2449 522.9,100.263 523.772,98.2714 524.644,76.6583 525.516,64.5353 526.388,81.0612 527.259,101.811 528.131,91.1996 529.003,100.3 529.875,73.513 530.747,77.2096 531.619,72.4559 532.491,87.4836 533.363,70.2422 534.234,71.5812 535.106,86.7344 535.978,63.1854 536.85,87.3627 537.722,79.1275 538.594,77.501 539.466,72.5216 540.338,73.9699 541.209,74.9722 542.081,66.8128 542.953,83.2147 543.825,95.0216 544.697,97.5643 545.569,78.2302 546.441,69.3534 547.312,91.2616 548.184,79.3143 549.056,71.2338 549.928,88.8233 550.8,98.2249 551.672,70.145 552.544,69.7667 553.416,79.2742 554.288,74.8307 555.159,64.2466 556.031,90.6878 556.903,71.6961 557.775,85.0959 558.647,85.5902 559.519,65.6861 560.391,100.008 561.263,85.0475 562.134,86.1032 563.006,88.8806 563.878,96.246 564.75,71.4643 565.622,73.4059 566.494,86.5839 567.366,71.3086 568.238,95.5153 569.109,69.5368 569.981,69.6799 570.853,79.3229 571.725,62.5543 572.597,79.0473 573.469,85.1793 574.341,95.8553 575.213,93.5059 576.084,74.5442 576.956,78.828 577.828,90.4229 578.7,86.92 579.572,95.8292 580.444,81.5874 581.316,89.9873 582.188,71.1214 583.059,56.8995 583.931,71.3246 584.803,70.9131 585.675,73.489 586.547,60.76 587.419,86.8081 588.291,92.273 589.163,86.3718 590.034,91.0574 590.906,78.8915 591.778,74.3348 592.65,85.4731 593.522,81.6348 594.394,96.3435 595.266,70.407 596.138,76.5705 597.009,60.0282 597.881,62.1105 598.753,94.3383 599.625,75.4892 600.497,79.9441 601.369,92.7554 602.241,89.842 603.112,84.6473 603.984,69.2971 604.856,66.3864 605.728,58.2136 606.6,79.9515 607.472,78.7038 608.344,79.6631 609.216,87.0879 610.088,84.3383 610.959,85.671 611.831,90.6739 612.703,91.2513 613.575,91.1495 614.447,66.4482 615.319,79.8127 616.191,95.3441 617.062,83.4924 617.934,92.3986 618.806,85.1986 619.678,58.0119 620.55,79.5677 621.422,81.249 622.294,81.6664 623.166,67.5585 624.038,72.2747 624.909,86.189 625.781,81.1008 626.653,75.8519 627.525,84.7059 628.397,88.8904 629.269,77.242 630.141,80.181 631.013,81.0502 631.884,98.7451 632.756,89.7038 633.628,69.9811 634.5,94.9426 635.372,86.6394 636.244,79.8298 637.116,70.3656 637.988,84.3478 638.859,60.8005 639.731,59.1012 640.603,77.6417 641.475,70.75 642.347,72.6641 643.219,75.9895 644.091,66.886 644.963,88.7607 645.834,81.2173 646.706,54.3411 647.578,80.7975 648.45,87.8208 649.322,82.3859 650.194,82.6906 651.066,77.6198 651.938,84.8176 652.809,79.501 653.681,80.0191 654.553,67.4451 655.425,68.9259 656.297,70.4582 657.169,66.9746 658.041,72.2201 658.913,71.4081 659.784,75.6482 660.656,90.0806 661.528,76.0352 662.4,74.3058 663.272,68.0869 664.144,75.0202 665.016,81.3805 665.888,71.6939 666.759,87.1858 667.631,71.2602 668.503,70.291 669.375,83.814 670.247,67.6765 671.119,53.9839 671.991,50.0343 672.862,73.542 673.734,61.4517 674.606,77.0874 675.478,82.2263 676.35,84.1744 677.222,74.1165 678.094,78.2883 678.966,75.8738 679.838,84.8097 680.709,105.47 681.581,98.4551 682.453,81.069 683.325,91.3381 684.197,84.6766 685.069,94.4382 685.941,90.126 686.813,87.7283 687.684,83.6729 688.556,81.3182 689.428,99.4603 690.3,69.6826 691.172,74.3782 692.044,56.1722 692.916,60.0871 693.788,58.8668 694.659,88.7903 695.531,84.373 696.403,88.5989 697.275,82.8218 698.147,72.2017 699.019,88.2864 699.891,87.0228 700.763,78.0619 701.634,73.8423 702.506,83.6193 703.378,89.9634 704.25,95.2011 705.122,104.29 705.994,75.4962 706.866,51.6499 707.738,74.8267 708.609,62.7791 709.481,62.0651 710.353,74.9568 711.225,59.3755 712.097,83.2166 712.969,90.2994 713.841,76.2261 714.713,76.6526 715.584,95.1243 716.456,88.0551 717.328,84.9749 718.2,83.6196 719.072,84.6578 719.944,101.682 720.816,86.9556 721.688,80.3678 722.559,63.8051 723.431,62.3348 724.303,83.2195 725.175,77.4862 726.047,87.8076 726.919,72.9977 727.791,61.8307 728.663,74.1854 729.534,64.6072 730.406,75.8117 731.278,82.4568 732.15,101.482 733.022,100.798 733.894,95.363 734.766,66.7078 735.638,95.1129 736.509,56.6799 737.381,88.2788 738.253,96.8072 739.125,87.9861 739.997,87.335 740.869,72.8571 741.741,77.9673 742.613,71.7365 743.484,86.5357 744.356,70.8431 745.228,70.7646 746.1,85.9434 746.972,81.4269 747.844,86.3792 748.716,73.2765 749.587,83.1876 750.459,73.6762 751.331,78.1984 752.203,79.3609 753.075,86.3993 753.947,78.0974 754.819,72.0005 755.691,60.7205 756.562,73.7655 757.434,67.3703 758.306,54.1702 759.178,71.4891 760.05,87.265 760.922,77.5592 761.794,90.2118 762.666,64.1114 763.537,85.1855 764.409,69.7755 765.281,76.1832 766.153,78.492 767.025,88.3413 767.897,93.0703 768.769,106.163 769.641,83.9144 770.513,94.7836 771.384,93.8571 772.256,81.738 773.128,57.9545 774,73.4294 774.872,70.6041 775.744,85.8953 776.616,89.2612 777.488,70.8906 778.359,67.4247 779.231,54.8965 780.103,72.5665 780.975,70.4541 781.847,68.1747 782.719,78.8287 783.591,85.5317 784.463,82.123 785.334,81.0268 786.206,89.5857 787.078,93.5187 787.95,90.25 788.822,73.1083 789.694,67.2248 790.566,83.9062 791.438,80.7962 792.309,70.6556 793.181,73.0828 794.053,73.9238 794.925,62.5498 795.797,55.7803 796.669,84.0413 797.541,91.4479 798.413,90.9898 799.284,81.4384 800.156,74.2244 801.028,72.8682 801.9,72.4599 802.772,89.3685 803.644,93.2874 804.516,93.2 805.388,97.7208 806.259,89.0147 807.131,73.781 808.003,86.5569 808.875,82.7151 809.747,69.9834 810.619,84.7848 811.491,86.6896 812.362,70.2677 813.234,62.5332 814.106,93.4503 814.978,69.2137 815.85,58.9446 816.722,62.3787 817.594,83.8341 818.466,58.5467 819.338,74.0139 820.209,86.4769 821.081,77.7805 821.953,78.0394 822.825,72.5095 823.697,63.7647 824.569,71.2979 825.441,78.3298 826.312,80.7383 827.184,60.5889 828.056,94.2433 828.928,82.2863 829.8,78.601 830.672,77.7766 831.544,71.6241 832.416,52.3652 833.287,45.9321 834.159,79.7841 835.031,77.5739 835.903,76.0025 836.775,88.0862 837.647,94.108 838.519,71.2133 839.391,91.532 840.262,70.0987 841.134,89.7365 842.006,93.1133 842.878,79.6903 843.75,71.5282 844.622,57.0856 845.494,75.0687 846.366,55.9146 847.238,87.2277 848.109,74.4901 848.981,93.3618 849.853,70.973 850.725,90.0381 851.597,75.1273 852.469,65.6854 853.341,65.0307 854.213,69.5117 855.084,87.6686 855.956,76.2917 856.828,100.928 857.7,79.4572 858.572,78.4771 859.444,86.3245 860.316,83.5931 861.188,83.1212 862.059,73.7682 862.931,87.0473 863.803,103.355 864.675,61.2954 865.547,90.3601 866.419,55.5347 867.291,67.4478 868.163,87.1073 869.034,62.7126 869.906,80.4228 870.778,86.2597 871.65,81.2816 872.522,99.6866 873.394,79.1687 874.266,64.4245 875.138,86.9945 876.009,91.3836 876.881,87.7068 877.753,100.134 878.625,88.4308 879.497,65.8294 880.369,75.1151 881.241,87.8161 882.113,77.6353 882.984,70.5522 883.856,90.6823 884.728,75.4275 885.6,78.5637 886.472,92.2808 887.344,64.5714 888.216,79.2891 889.088,71.5814 889.959,81.3048 890.831,91.7185 891.703,97.6256 892.575,85.3739 893.447,85.8009 894.319,82.3657 895.191,73.0356 896.062,80.6062 896.934,76.7801 897.806,82.0909 898.678,84.0539 899.55,78.4619 900.422,86.7828 901.294,73.3815 902.166,65.5089 903.038,83.5954 903.909,66.2564 904.781,73.8022 905.653,72.6474 906.525,74.7689 907.397,83.7247 908.269,87.6569 909.141,69.7186 910.013,84.0062 910.884,79.4002 911.756,73.0129 912.628,59.5802 913.5,104.815 914.372,66.0412 915.244,86.9869 916.116,61.7126 916.987,78.2975 917.859,79.0354 918.731,71.882 919.603,88.1477 920.475,63.7302 921.347,85.1034 922.219,72.5319 923.091,93.146 923.963,72.5941 924.834,72.4681 925.706,68.0894 926.578,75.9483 927.45,70.4127 928.322,77.5062 929.194,72.9767 930.066,64.9102 930.938,73.3143 931.809,62.9926 932.681,97.3461 933.553,60.9695 934.425,75.5876 935.297,89.2205 936.169,65.0002 937.041,81.4677 937.912,67.3926 938.784,74.5179 939.656,73.5275 940.528,81.6764 941.4,104.391 942.272,86.0621 943.144,102.447 944.016,68.3668 944.888,79.0933 945.759,104.583 946.631,78.1265 947.503,63.4617 948.375,74.3022 949.247,88.4883 950.119,72.9387 950.991,97.7701 951.863,89.4206 952.734,78.3061 953.606,98.4926 954.478,66.4526 955.35,72.348 956.222,73.2739 957.094,90.9829 957.966,76.2421 958.838,86.2246 959.709,87.2606 960.581,61.9978 961.453,93.6605 962.325,72.2795 963.197,79.4965 964.069,85.9897 964.941,103.983 965.812,105.798 966.684,70.8478 967.556,63.4286 968.428,79.9249 969.3,54.936 970.172,80.3882 971.044,64.1457 971.916,78.3498 972.788,76.0846 973.659,69.4339 974.531,78.9226 975.403,79.7699 976.275,99.3462 977.147,64.8034 978.019,85.9045 978.891,83.6979 979.763,75.5155 980.634,68.524 981.506,81.7617 982.378,78.3521 983.25,78.1531 984.122,71.0019 984.994,77.2896 985.866,63.61 986.737,66.9549 987.609,77.6941 988.481,60.3597 989.353,81.8755 990.225,75.6201 991.097,72.8842 991.969,69.4533 992.841,91.4236 993.713,87.9584 994.584,78.6137 995.456,75.7653 996.328,99.7061 997.2,77.7377 998.072,79.5884 998.944,84.8382 999.816,79.1425 1000.69,84.3727 1001.56,78.9401 1002.43,90.7289 1003.3,83.0907 1004.18,92.9949 1005.05,53.1983 1005.92,81.3979 1006.79,102.341 1007.66,75.2623 1008.53,71.4134 1009.41,84.6578 1010.28,88.6234 1011.15,95.3012 1012.02,87.211 1012.89,81.3625 1013.77,73.9438 1014.64,88.478 1015.51,87.175 1016.38,73.2104 1017.25,87.8057 1018.12,74.3427" stroke-width="1.5"/>
   <polyline stroke="#000000" stroke-linejoin="round" stroke-linecap="butt" fill="none" points="146.25,79.4831 147.122,75.4062 147.994,72.976 148.866,73.0018 149.738,75.0663 150.609,77.7916 151.481,79.6112 152.353,79.628 153.225,78.0917 154.097,76.2383 154.969,75.5806 155.841,77.0383 156.713,80.3844 157.584,84.3132 158.456,87.0983 159.328,87.4888 160.2,85.3623 161.072,81.7823 161.944,78.4304 162.816,76.7204 163.688,77.0712 164.559,78.7294 165.431,80.2328 166.303,80.2586 167.175,78.3895 168.047,75.3798 168.919,72.7717 169.791,72.0682 170.663,73.9096 171.534,77.7008 172.406,81.8949 173.278,84.7817 174.15,85.3594 175.022,83.8232 175.894,81.4088 176.766,79.6839 177.638,79.6728 178.509,81.2922 179.381,83.4055 180.253,84.4638 181.125,83.3855 181.997,80.1919 182.869,76.0508 183.741,72.6989 184.613,71.55 185.484,72.9679 186.356,76.0949 187.228,79.3251 188.1,81.1664 188.972,81.024 189.844,79.4831 190.716,77.9422 191.588,77.7997 192.459,79.6411 193.331,82.8712 194.203,85.9982 195.075,87.4161 195.947,86.2672 196.819,82.9154 197.691,78.7743 198.563,75.5806 199.434,74.5023 200.306,75.5607 201.178,77.674 202.05,79.2934 202.922,79.2822 203.794,77.5574 204.666,75.143 205.538,73.6067 206.409,74.1844 207.281,77.0712 208.153,81.2653 209.025,85.0565 209.897,86.8979 210.769,86.1944 211.641,83.5864 212.513,80.5766 213.384,78.7075 214.256,78.7333 215.128,80.2368 216,81.8949 216.872,82.2457 217.744,80.5357 218.616,77.1839 219.488,73.6038 220.359,71.4773 221.231,71.8678 222.103,74.6529 222.975,78.5817 223.847,81.9279 224.719,83.3855 225.591,82.7278 226.463,80.8745 227.334,79.3382 228.206,79.3549 229.078,81.1745 229.95,83.8998 230.822,85.9644 231.694,85.9901 232.566,83.5599 233.438,79.4831 234.309,75.4062 235.181,72.976 236.053,73.0018 236.925,75.0663 237.797,77.7916 238.669,79.6112 239.541,79.628 240.413,78.0917 241.284,76.2383 242.156,75.5806 243.028,77.0383 243.9,80.3844 244.772,84.3132 245.644,87.0983 246.516,87.4888 247.388,85.3623 248.259,81.7823 249.131,78.4304 250.003,76.7204 250.875,77.0712 251.747,78.7294 252.619,80.2328 253.491,80.2586 254.363,78.3895 255.234,75.3798 256.106,72.7717 256.978,72.0682 257.85,73.9096 258.722,77.7008 259.594,81.8949 260.466,84.7817 261.338,85.3594 262.209,83.8232 263.081,81.4088 263.953,79.6839 264.825,79.6728 265.697,81.2922 266.569,83.4055 267.441,84.4638 268.313,83.3855 269.184,80.1919 270.056,76.0508 270.928,72.6989 271.8,71.55 272.672,72.9679 273.544,76.0949 274.416,79.3251 275.288,81.1664 276.159,81.024 277.031,79.4831 277.903,77.9422 278.775,77.7997 279.647,79.6411 280.519,82.8712 281.391,85.9982 282.263,87.4161 283.134,86.2672 284.006,82.9154 284.878,78.7743 285.75,75.5806 286.622,74.5023 287.494,75.5607 288.366,77.674 289.238,79.2934 290.109,79.2822 290.981,77.5574 291.853,75.143 292.725,73.6067 293.597,74.1844 294.469,77.0712 295.341,81.2653 296.213,85.0565 297.084,86.8979 297.956,86.1944 298.828,83.5864 299.7,80.5766 300.572,78.7075 301.444,78.7333 302.316,80.2368 303.188,81.8949 304.059,82.2457 304.931,80.5357 305.803,77.1839 306.675,73.6038 307.547,71.4773 308.419,71.8678 309.291,74.6529 310.163,78.5817 311.034,81.9279 311.906,83.3855 312.778,82.7278 313.65,80.8745 314.522,79.3382 315.394,79.3549 316.266,81.1745 317.138,83.8998 318.009,85.9644 318.881,85.9901 319.753,83.5599 320.625,79.4831 321.497,75.4062 322.369,72.976 323.241,73.0018 324.113,75.0663 324.984,77.7916 325.856,79.6112 326.728,79.628 327.6,78.0917 328.472,76.2383 329.344,75.5806 330.216,77.0383 331.088,80.3844 331.959,84.3132 332.831,87.0983 333.703,87.4888 334.575,85.3623 335.447,81.7823 336.319,78.4304 337.191,76.7204 338.063,77.0712 338.934,78.7294 339.806,80.2328 340.678,80.2586 341.55,78.3895 342.422,75.3798 343.294,72.7717 344.166,72.0682 345.038,73.9096 345.909,77.7008 346.781,81.8949 347.653,84.7817 348.525,85.3594 349.397,83.8232 350.269,81.4088 351.141,79.6839 352.013,79.6728 352.884,81.2922 353.756,83.4055 354.628,84.4638 355.5,83.3855 356.372,80.1919 357.244,76.0508 358.116,72.6989 358.988,71.55 359.859,72.9679 360.731,76.0949 361.603,79.3251 362.475,81.1664 363.347,81.024 364.219,79.4831 365.091,77.9422 365.963,77.7997 366.834,79.6411 367.706,82.8712 368.578,85.9982 369.45,87.4161 370.322,86.2672 371.194,82.9154 372.066,78.7743 372.938,75.5806 373.809,74.5023 374.681,75.5607 375.553,77.674 376.425,79.2934 377.297,79.2822 378.169,77.5574 379.041,75.143 379.913,73.6067 380.784,74.1844 381.656,77.0712 382.528,81.2653 383.4,85.0565 384.272,86.8979 385.144,86.1944 386.016,83.5864 386.888,80.5766 387.759,78.7075 388.631,78.7333 389.503,80.2368 390.375,81.8949 391.247,82.2457 392.119,80.5357 392.991,77.1839 393.863,73.6038 394.734,71.4773 395.606,71.8678 396.478,74.6529 397.35,78.5817 398.222,81.9279 399.094,83.3855 399.966,82.7278 400.838,80.8745 401.709,79.3382 402.581,79.3549 403.453,81.1745 404.325,83.8998 405.197,85.9644 406.069,85.9901 406.941,83.5599 407.813,79.4831 408.684,75.4062 409.556,72.976 410.428,73.0018 411.3,75.0663 412.172,77.7916 413.044,79.6112 413.916,79.628 414.788,78.0917 415.659,76.2383 416.531,75.5806 417.403,77.0383 418.275,80.3844 419.147,84.3132 420.019,87.0983 420.891,87.4888 421.763,85.3623 422.634,81.7823 423.506,78.4304 424.378,76.7204 425.25,77.0712 426.122,78.7294 426.994,80.2328 427.866,80.2586 428.738,78.3895 429.609,75.3798 430.481,72.7717 431.353,72.0682 432.225,73.9096 433.097,77.7008 433.969,81.8949 434.841,84.7817 435.713,85.3594 436.584,83.8232 437.456,81.4088 438.328,79.6839 439.2,79.6728 440.072,81.2922 440.944,83.4055 441.816,84.4638 442.688,83.3855 443.559,80.1919 444.431,76.0508 445.303,72.6989 446.175,71.55 447.047,72.9679 447.919,76.0949 448.791,79.3251 449.663,81.1664 450.534,81.024 451.406,79.4831 452.278,77.9422 453.15,77.7997 454.022,79.6411 454.894,82.8712 455.766,85.9982 456.638,87.4161 457.509,86.2672 458.381,82.9154 459.253,78.7743 460.125,75.5806 460.997,74.5023 461.869,75.5607 462.741,77.674 463.613,79.2934 464.484,79.2822 465.356,77.5574 466.228,75.143 467.1,73.6067 467.972,74.1844 468.844,77.0712 469.716,81.2653 470.588,85.0565 471.459,86.8979 472.331,86.1944 473.203,83.5864 474.075,80.5766 474.947,78.7075 475.819,78.7333 476.691,80.2368 477.562,81.8949 478.434,82.2457 479.306,80.5357 480.178,77.1839 481.05,73.6038 481.922,71.4773 482.794,71.8678 483.666,74.6529 484.538,78.5817 485.409,81.9279 486.281,83.3855 487.153,82.7278 488.025,80.8745 488.897,79.3382 489.769,79.3549 490.641,81.1745 491.513,83.8998 492.384,85.9644 493.256,85.9901 494.128,83.5599 495,79.4831 495.872,75.4062 496.744,72.976 497.616,73.0018 498.488,75.0663 499.359,77.7916 500.231,79.6112 501.103,79.628 501.975,78.0917 502.847,76.2383 503.719,75.5806 504.591,77.0383 505.463,80.3844 506.334,84.3132 507.206,87.0983 508.078,87.4888 508.95,85.3623 509.822,81.7823 510.694,78.4304 511.566,76.7204 512.438,77.0712 513.309,78.7294 514.181,80.2328 515.053,80.2586 515.925,78.3895 516.797,75.3798 517.669,72.7717 518.541,72.0682 519.413,73.9096 520.284,77.7008 521.156,81.8949 522.028,84.7817 522.9,85.3594 523.772,83.8232 524.644,81.4088 525.516,79.6839 526.388,79.6728 527.259,81.2922 528.131,83.4055 529.003,84.4638 529.875,83.3855 530.747,80.1919 531.619,76.0508 532.491,72.6989 533.363,71.55 534.234,72.9679 535.106,76.0949 535.978,79.3251 536.85,81.1664 537.722,81.024 538.594,79.4831 539.466,77.9422 540.338,77.7997 541.209,79.6411 542.081,82.8712 542.953,85.9982 543.825,87.4161 544.697,86.2672 545.569,82.9154 546.441,78.7743 547.312,75.5806 548.184,74.5023 549.056,75.5607 549.928,77.674 550.8,79.2934 551.672,79.2822 552.544,77.5574 553.416,75.143 554.288,73.6067 555.159,74.1844 556.031,77.0712 556.903,81.2653 557.775,85.0565 558.647,86.8979 559.519,86.1944 560.391,83.5864 561.263,80.5766 562.134,78.7075 563.006,78.7333 563.878,80.2368 564.75,81.8949 565.622,82.2457 566.494,80.5357 567.366,77.1839 568.238,73.6038 569.109,71.4773 569.981,71.8678 570.853,74.6529 571.725,78.5817 572.597,81.9279 573.469,83.3855 574.341,82.7278 575.213,80.8745 576.084,79.3382 576.956,79.3549 577.828,81.1745 578.7,83.8998 579.572,85.9644 580.444,85.9901 581.316,83.5599 582.188,79.4831 583.059,75.4062 583.931,72.976 584.803,73.0018 585.675,75.0663 586.547,77.7916 587.419,79.6112 588.291,79.628 589.163,78.0917 590.034,76.2383 590.906,75.5806 591.778,77.0383 592.65,80.3844 593.522,84.3132 594.394,87.0983 595.266,87.4888 596.138,85.3623 597.009,81.7823 597.881,78.4304 598.753,76.7204 599.625,77.0712 600.497,78.7294 601.369,80.2328 602.241,80.2586 603.112,78.3895 603.984,75.3798 604.856,72.7717 605.728,72.0682 606.6,73.9096 607.472,77.7008 608.344,81.8949 609.216,84.7817 610.088,85.3594 610.959,83.8232 611.831,81.4088 612.703,79.6839 613.575,79.6728 614.447,81.2922 615.319,83.4055 616.191,84.4638 617.062,83.3855 617.934,80.1919 618.806,76.0508 619.678,72.6989 620.55,71.55 621.422,72.9679 622.294,76.0949 623.166,79.3251 624.038,81.1664 624.909,81.024 625.781,79.4831 626.653,77.9422 627.525,77.7997 628.397,79.6411 629.269,82.8712 630.141,85.9982 631.013,87.4161 631.884,86.2672 632.756,82.9154 633.628,78.7743 634.5,75.5806 635.372,74.5023 636.244,75.5607 637.116,77.674 637.988,79.2934 638.859,79.2822 639.731,77.5574 640.603,75.143 641.475,73.6067 642.347,74.1844 643.219,77.0712 644.091,81.2653 644.963,85.0565 645.834,86.8979 646.706,86.1944 647.578,83.5864 648.45,80.5766 649.322,78.7075 650.194,78.7333 651.066,80.2368 651.938,81.8949 652.809,82.2457 653.681,80.5357 654.553,77.1839 655.425,73.6038 656.297,71.4773 657.169,71.8678 658.041,74.6529 658.913,78.5817 659.784,81.9279 660.656,83.3855 661.528,82.7278 662.4,80.8745 663.272,79.3382 664.144,79.3549 665.016,81.1745 665.888,83.8998 666.759,85.9644 667.631,85.9901 668.503,83.5599 669.375,79.4831 670.247,75.4062 671.119,72.976 671.991,73.0018 672.862,75.0663 673.734,77.7916 674.606,79.6112 675.478,79.628 676.35,78.0917 677.222,76.2383 678.094,75.5806 678.966,77.0383 679.838,80.3844 680.709,84.3132 681.581,87.0983 682.453,87.4888 683.325,85.3623 684.197,81.7823 685.069,78.4304 685.941,76.7204 686.813,77.0712 687.684,78.7294 688.556,80.2328 689.428,80.2586 690.3,78.3895 691.172,75.3798 692.044,72.7717 692.916,72.0682 693.788,73.9096 694.659,77.7008 695.531,81.8949 696.403,84.7817 697.275,85.3594 698.147,83.8232 699.019,81.4088 699.891,79.6839 700.763,79.6728 701.634,81.2922 702.506,83.4055 703.378,84.4638 704.25,83.3855 705.122,80.1919 705.994,76.0508 706.866,72.6989 707.738,71.55 708.609,72.9679 709.481,76.0949 710.353,79.3251 711.225,81.1664 712.097,81.024 712.969,79.4831 713.841,77.9422 714.713,77.7997 715.584,79.6411 716.456,82.8712 717.328,85.9982 718.2,87.4161 719.072,86.2672 719.944,82.9154 720.816,78.7743 721.688,75.5806 722.559,74.5023 723.431,75.5607 724.303,77.674 725.175,79.2934 726.047,79.2822 726.919,77.5574 727.791,75.143 728.663,73.6067 729.534,74.1844 730.406,77.0712 731.278,81.2653 732.15,85.0565 733.022,86.8979 733.894,86.1944 734.766,83.5864 735.638,80.5766 736.509,78.7075 737.381,78.7333 738.253,80.2368 739.125,81.8949 739.997,82.2457 740.869,80.5357 741.741,77.1839 742.613,73.6038 743.484,71.4773 744.356,71.8678 745.228,74.6529 746.1,78.5817 746.972,81.9279 747.844,83.3855 748.716,82.7278 749.587,80.8745 750.459,79.3382 751.331,79.3549 752.203,81.1745 753.075,83.8998 753.947,85.9644 754.819,85.9901 755.691,83.5599 756.562,79.4831 757.434,75.4062 758.306,72.976 759.178,73.0018 760.05,75.0663 760.922,77.7916 761.794,79.6112 762.666,79.628 763.537,78.0917 764.409,76.2383 765.281,75.5806 766.153,77.0383 767.025,80.3844 767.897,84.3132 768.769,87.0983 769.641,87.4888 770.513,85.3623 771.384,81.7823 772.256,78.4304 773.128,76.7204 774,77.0712 774.872,78.7294 775.744,80.2328 776.616,80.2586 777.488,78.3895 778.359,75.3798 779.231,72.7717 780.103,72.0682 780.975,73.9096 781.847,77.7008 782.719,81.8949 783.591,84.7817 784.463,85.3594 785.334,83.8232 786.206,81.4088 787.078,79.6839 787.95,79.6728 788.822,81.2922 789.694,83.4055 790.566,84.4638 791.438,83.3855 792.309,80.1919 793.181,76.0508 794.053,72.6989 794.925,71.55 795.797,72.9679 796.669,76.0949 797.541,79.3251 798.413,81.1664 799.284,81.024 800.156,79.4831 801.028,77.9422 801.9,77.7997 802.772,79.6411 803.644,82.8712 804.516,85.9982 805.388,87.4161 806.259,86.2672 807.131,82.9154 808.003,78.7743 808.875,75.5806 809.747,74.5023 810.619,75.5607 811.491,77.674 812.362,79.2934 813.234,79.2822 814.106,77.5574 814.978,75.143 815.85,73.6067 816.722,74.1844 817.594,77.0712 818.466,81.2653 819.338,85.0565 820.209,86.8979 821.081,86.1944 821.953,83.5864 822.825,80.5766 823.697,78.7075 824.569,78.7333 825.441,80.2368 826.312,81.8949 827.184,82.2457 828.056,80.5357 828.928,77.1839 829.8,73.6038 830.672,71.4773 831.544,71.8678 832.416,74.6529 833.287,78.5817 834.159,81.9279 835.031,83.3855 835.903,82.7278 836.775,80.8745 837.647,79.3382 838.519,79.3549 839.391,81.1745 840.262,83.8998 841.134,85.9644 842.006,85.9901 842.878,83.5599 843.75,79.4831 844.622,75.4062 845.494,72.976 846.366,73.0018 847.238,75.0663 848.109,77.7916 848.981,79.6112 849.853,79.628 850.725,78.0917 851.597,76.2383 852.469,75.5806 853.341,77.0383 854.213,80.3844 855.084,84.3132 855.956,87.0983 856.828,87.4888 857.7,85.3623 858.572,81.7823 859.444,78.4304 860.316,76.7204 861.188,77.0712 862.059,78.7294 862.931,80.2328 863.803,80.2586 864.675,78.3895 865.547,75.3798 866.419,72.7717 867.291,72.0682 868.163,73.9096 869.034,77.7008 869.906,81.8949 870.778,84.7817 871.65,85.3594 872.522,83.8232 873.394,81.4088 874.266,79.6839 875.138,79.6728 876.009,81.2922 876.881,83.4055 877.753,84.4638 878.625,83.3855 879.497,80.1919 880.369,76.0508 881.241,72.6989 882.113,71.55 882.984,72.9679 883.856,76.0949 884.728,79.3251 885.6,81.1664 886.472,81.024 887.344,79.4831 888.216,77.9422 889.088,77.7997 889.959,79.6411 890.831,82.8712 891.703,85.9982 892.575,87.4161 893.447,86.2672 894.319,82.9154 895.191,78.7743 896.062,75.5806 896.934,74.5023 897.806,75.5607 898.678,77.674 899.55,79.2934 900.422,79.2822 901.294,77.5574 902.166,75.143 903.038,73.6067 903.909,74.1844 904.781,77.0712 905.653,81.2653 906.525,85.0565 907.397,86.8979 908.269,86.1944 909.141,83.5864 910.013,80.5766 910.884,78.7075 911.756,78.7333 912.628,80.2368 913.5,81.8949 914.372,82.2457 915.244,80.5357 916.116,77.1839 916.987,73.6038 917.859,71.4773 918.731,71.8678 919.603,74.6529 920.475,78.5817 921.347,81.9279 922.219,83.3855 923.091,82.7278 923.963,80.8745 924.834,79.3382 925.706,79.3549 926.578,81.1745 927.45,83.8998 928.322,85.9644 929.194,85.9901 930.066,83.5599 930.938,79.4831 931.809,75.4062 932.681,72.976 933.553,73.0018 934.425,75.0663 935.297,77.7916 936.169,79.6112 937.041,79.628 937.912,78.0917 938.784,76.2383 939.656,75.5806 940.528,77.0383 941.4,80.3844 942.272,84.3132 943.144,87.0983 944.016,87.4888 944.888,85.3623 945.759,81.7823 946.631,78.4304 947.503,76.7204 948.375,77.0712 949.247,78.7294 950.119,80.2328 950.991,80.2586 951.863,78.3895 952.734,75.3798 953.606,72.7717 954.478,72.0682 955.35,73.9096 956.222,77.7008 957.094,81.8949 957.966,84.7817 958.838,85.3594 959.709,83.8232 960.581,81.4088 961.453,79.6839 962.325,79.6728 963.197,81.2922 964.069,83.4055 964.941,84.4638 965.812,83.3855 966.684,80.1919 967.556,76.0508 968.428,72.6989 969.3,71.55 970.172,72.9679 971.044,76.0949 971.916,79.3251 972.788,81.1664 973.659,81.024 974.531,79.4831 975.403,77.9422 976.275,77.7997 977.147,79.6411 978.019,82.8712 978.891,85.9982 979.763,87.4161 980.634,86.2672 981.506,82.9154 982.378,78.7743 983.25,75.5806 984.122,74.5023 984.994,75.5607 985.866,77.674 986.737,79.2934 987.609,79.2822 988.481,77.5574 989.353,75.143 990.225,73.6067 991.097,74.1844 991.969,77.0712 992.841,81.2653 993.713,85.0565 994.584,86.8979 995.456,86.1944 996.328,83.5864 997.2,80.5766 998.072,78.7075 998.944,78.7333 999.816,80.2368 1000.69,81.8949 1001.56,82.2457 1002.43,80.5357 1003.3,77.1839 1004.18,73.6038 1005.05,71.4773 1005.92,71.8678 1006.79,74.6529 1007.66,78.5817 1008.53,81.9279 1009.41,83.3855 1010.28,82.7278 1011.15,80.8745 1012.02,79.3382 1012.89,79.3549 1013.77,81.1745 1014.64,83.8998 1015.51,85.9644 1016.38,85.9901 1017.25,83.5599 1018.12,79.4831" stroke-width="1.5"/>
  </g>
  <clipPath id="cp001124408">
   <polygon points="0,408 1124,408 1124,0 0,0"/>
  </clipPath>
  <g clip-path="url(#cp001124408)">
   <polygon fill="#ffffff" points="928.792,49.1168 928.792,99.9612 1007.46,99.9612 1007.46,49.1168" shape-rendering="crispEdges"/>
   <polyline stroke="#262626" stroke-linejoin="miter" stroke-dasharray="16,0" stroke-linecap="square" fill="none" points="928.792,99.9612 1007.46,99.9612" stroke-width="0.5"/>
   <polyline stroke="#262626" stroke-linejoin="miter" stroke-dasharray="16,0" stroke-linecap="square" fill="none" points="928.792,49.1168 1007.46,49.1168" stroke-width="0.5"/>
   <polyline stroke="#262626" stroke-linejoin="miter" stroke-dasharray="16,0" stroke-linecap="square" fill="none" points="928.792,99.9612 928.792,49.1168" stroke-width="0.5"/>
   <polyline stroke="#262626" stroke-linejoin="miter" stroke-dasharray="16,0" stroke-linecap="square" fill="none" points="1007.46,99.9612 1007.46,49.1168" stroke-width="0.5"/>
   <polyline stroke="#ff0000" stroke-linejoin="round" stroke-linecap="butt" fill="none" points="934.125,63.1613 960.792,63.1613" stroke-width="1.5"/>
   <text font-size="14" xml:space="preserve" font-weight="normal" font-family="FreeSans" transform="translate(966.125,70.6612) rotate(-0,-0,-7.5)" font-style="normal">
    <tspan y="-3" fill="rgb(0,0,0)" x="0 10 17 20 27 ">Noisy</tspan>
   </text>
   <polyline stroke="#000000" stroke-linejoin="round" stroke-linecap="butt" fill="none" points="934.125,85.9168 960.792,85.9168" stroke-width="1.5"/>
   <text font-size="14" xml:space="preserve" font-weight="normal" font-family="FreeSans" transform="translate(966.125,91.9168) rotate(-0,-0,-6)" font-style="normal">
    <tspan y="-0" fill="rgb(0,0,0)" x="0 10 13 20 28 ">Clean</tspan>
   </text>
  </g>
  <clipPath id="cp001124408">
   <polygon points="0,408 1124,408 1124,0 0,0"/>
  </clipPath>
  <g clip-path="url(#cp001124408)">
   <polygon fill="#ffffff" points="146.25,281.388 146.25,363.454 1018.12,363.454 1018.12,281.388" shape-rendering="crispEdges"/>
   <polyline stroke="#262626" stroke-linejoin="miter" stroke-dasharray="16,0" stroke-linecap="butt" fill="none" points="146.25,363.454 146.25,281.388" stroke-opacity="0.15" stroke-width="0.5"/>
   <polyline stroke="#262626" stroke-linejoin="miter" stroke-dasharray="16,0" stroke-linecap="butt" fill="none" points="320.625,363.454 320.625,281.388" stroke-opacity="0.15" stroke-width="0.5"/>
   <polyline stroke="#262626" stroke-linejoin="miter" stroke-dasharray="16,0" stroke-linecap="butt" fill="none" points="495,363.454 495,281.388" stroke-opacity="0.15" stroke-width="0.5"/>
   <polyline stroke="#262626" stroke-linejoin="miter" stroke-dasharray="16,0" stroke-linecap="butt" fill="none" points="669.375,363.454 669.375,281.388" stroke-opacity="0.15" stroke-width="0.5"/>
   <polyline stroke="#262626" stroke-linejoin="miter" stroke-dasharray="16,0" stroke-linecap="butt" fill="none" points="843.75,363.454 843.75,281.388" stroke-opacity="0.15" stroke-width="0.5"/>
   <polyline stroke="#262626" stroke-linejoin="miter" stroke-dasharray="16,0" stroke-linecap="butt" fill="none" points="1018.12,363.454 1018.12,281.388" stroke-opacity="0.15" stroke-width="0.5"/>
   <polyline stroke="#262626" stroke-linejoin="miter" stroke-linecap="butt" fill="none" points="146.25,363.454 146.25,354.728" stroke-width="0.5"/>
   <polyline stroke="#262626" stroke-linejoin="miter" stroke-linecap="butt" fill="none" points="146.25,281.388 146.25,290.114" stroke-width="0.5"/>
   <polyline stroke="#262626" stroke-linejoin="miter" stroke-linecap="butt" fill="none" points="320.625,363.454 320.625,354.728" stroke-width="0.5"/>
   <polyline stroke="#262626" stroke-linejoin="miter" stroke-linecap="butt" fill="none" points="320.625,281.388 320.625,290.114" stroke-width="0.5"/>
   <polyline stroke="#262626" stroke-linejoin="miter" stroke-linecap="butt" fill="none" points="495,363.454 495,354.728" stroke-width="0.5"/>
   <polyline stroke="#262626" stroke-linejoin="miter" stroke-linecap="butt" fill="none" points="495,281.388 495,290.114" stroke-width="0.5"/>
   <polyline stroke="#262626" stroke-linejoin="miter" stroke-linecap="butt" fill="none" points="669.375,363.454 669.375,354.728" stroke-width="0.5"/>
   <polyline stroke="#262626" stroke-linejoin="miter" stroke-linecap="butt" fill="none" points="669.375,281.388 669.375,290.114" stroke-width="0.5"/>
   <polyline stroke="#262626" stroke-linejoin="miter" stroke-linecap="butt" fill="none" points="843.75,363.454 843.75,354.728" stroke-width="0.5"/>
   <polyline stroke="#262626" stroke-linejoin="miter" stroke-linecap="butt" fill="none" points="843.75,281.388 843.75,290.114" stroke-width="0.5"/>
   <polyline stroke="#262626" stroke-linejoin="miter" stroke-linecap="butt" fill="none" points="1018.12,363.454 1018.12,354.728" stroke-width="0.5"/>
   <polyline stroke="#262626" stroke-linejoin="miter" stroke-linecap="butt" fill="none" points="1018.12,281.388 1018.12,290.114" stroke-width="0.5"/>
   <text font-size="14" xml:space="preserve" font-weight="normal" font-family="FreeSans" transform="translate(142.25,384.962) rotate(-0,4,-11)" font-style="normal">
    <tspan y="-0" fill="rgb(38,38,38)" x="0 ">0</tspan>
   </text>
   <text font-size="14" xml:space="preserve" font-weight="normal" font-family="FreeSans" transform="translate(308.625,384.962) rotate(-0,12,-11)" font-style="normal">
    <tspan y="-0" fill="rgb(38,38,38)" x="0 8 16 ">100</tspan>
   </text>
   <text font-size="14" xml:space="preserve" font-weight="normal" font-family="FreeSans" transform="translate(483,384.962) rotate(-0,12,-11)" font-style="normal">
    <tspan y="-0" fill="rgb(38,38,38)" x="0 8 16 ">200</tspan>
   </text>
   <text font-size="14" xml:space="preserve" font-weight="normal" font-family="FreeSans" transform="translate(657.375,384.962) rotate(-0,12,-11)" font-style="normal">
    <tspan y="-0" fill="rgb(38,38,38)" x="0 8 16 ">300</tspan>
   </text>
   <text font-size="14" xml:space="preserve" font-weight="normal" font-family="FreeSans" transform="translate(831.75,384.962) rotate(-0,12,-11)" font-style="normal">
    <tspan y="-0" fill="rgb(38,38,38)" x="0 8 16 ">400</tspan>
   </text>
   <text font-size="14" xml:space="preserve" font-weight="normal" font-family="FreeSans" transform="translate(1006.12,384.962) rotate(-0,12,-11)" font-style="normal">
    <tspan y="-0" fill="rgb(38,38,38)" x="0 8 16 ">500</tspan>
   </text>
   <polyline stroke="#262626" stroke-linejoin="miter" stroke-dasharray="16,0" stroke-linecap="butt" fill="none" points="146.25,363.454 1018.12,363.454" stroke-opacity="0.15" stroke-width="0.5"/>
   <polyline stroke="#262626" stroke-linejoin="miter" stroke-dasharray="16,0" stroke-linecap="butt" fill="none" points="146.25,351.73 1018.12,351.73" stroke-opacity="0.15" stroke-width="0.5"/>
   <polyline stroke="#262626" stroke-linejoin="miter" stroke-dasharray="16,0" stroke-linecap="butt" fill="none" points="146.25,340.006 1018.12,340.006" stroke-opacity="0.15" stroke-width="0.5"/>
   <polyline stroke="#262626" stroke-linejoin="miter" stroke-dasharray="16,0" stroke-linecap="butt" fill="none" points="146.25,328.283 1018.12,328.283" stroke-opacity="0.15" stroke-width="0.5"/>
   <polyline stroke="#262626" stroke-linejoin="miter" stroke-dasharray="16,0" stroke-linecap="butt" fill="none" points="146.25,316.559 1018.12,316.559" stroke-opacity="0.15" stroke-width="0.5"/>
   <polyline stroke="#262626" stroke-linejoin="miter" stroke-dasharray="16,0" stroke-linecap="butt" fill="none" points="146.25,304.835 1018.12,304.835" stroke-opacity="0.15" stroke-width="0.5"/>
   <polyline stroke="#262626" stroke-linejoin="miter" stroke-dasharray="16,0" stroke-linecap="butt" fill="none" points="146.25,293.112 1018.12,293.112" stroke-opacity="0.15" stroke-width="0.5"/>
   <polyline stroke="#262626" stroke-linejoin="miter" stroke-dasharray="16,0" stroke-linecap="butt" fill="none" points="146.25,281.388 1018.12,281.388" stroke-opacity="0.15" stroke-width="0.5"/>
   <polyline stroke="#262626" stroke-linejoin="miter" stroke-linecap="butt" fill="none" points="146.25,363.454 154.968,363.454" stroke-width="0.5"/>
   <polyline stroke="#262626" stroke-linejoin="miter" stroke-linecap="butt" fill="none" points="1018.12,363.454 1009.41,363.454" stroke-width="0.5"/>
   <polyline stroke="#262626" stroke-linejoin="miter" stroke-linecap="butt" fill="none" points="146.25,351.73 154.968,351.73" stroke-width="0.5"/>
   <polyline stroke="#262626" stroke-linejoin="miter" stroke-linecap="butt" fill="none" points="1018.12,351.73 1009.41,351.73" stroke-width="0.5"/>
   <polyline stroke="#262626" stroke-linejoin="miter" stroke-linecap="butt" fill="none" points="146.25,340.006 154.968,340.006" stroke-width="0.5"/>
   <polyline stroke="#262626" stroke-linejoin="miter" stroke-linecap="butt" fill="none" points="1018.12,340.006 1009.41,340.006" stroke-width="0.5"/>
   <polyline stroke="#262626" stroke-linejoin="miter" stroke-linecap="butt" fill="none" points="146.25,328.283 154.968,328.283" stroke-width="0.5"/>
   <polyline stroke="#262626" stroke-linejoin="miter" stroke-linecap="butt" fill="none" points="1018.12,328.283 1009.41,328.283" stroke-width="0.5"/>
   <polyline stroke="#262626" stroke-linejoin="miter" stroke-linecap="butt" fill="none" points="146.25,316.559 154.968,316.559" stroke-width="0.5"/>
   <polyline stroke="#262626" stroke-linejoin="miter" stroke-linecap="butt" fill="none" points="1018.12,316.559 1009.41,316.559" stroke-width="0.5"/>
   <polyline stroke="#262626" stroke-linejoin="miter" stroke-linecap="butt" fill="none" points="146.25,304.835 154.968,304.835" stroke-width="0.5"/>
   <polyline stroke="#262626" stroke-linejoin="miter" stroke-linecap="butt" fill="none" points="1018.12,304.835 1009.41,304.835" stroke-width="0.5"/>
   <polyline stroke="#262626" stroke-linejoin="miter" stroke-linecap="butt" fill="none" points="146.25,293.112 154.968,293.112" stroke-width="0.5"/>
   <polyline stroke="#262626" stroke-linejoin="miter" stroke-linecap="butt" fill="none" points="1018.12,293.112 1009.41,293.112" stroke-width="0.5"/>
   <polyline stroke="#262626" stroke-linejoin="miter" stroke-linecap="butt" fill="none" points="146.25,281.388 154.968,281.388" stroke-width="0.5"/>
   <polyline stroke="#262626" stroke-linejoin="miter" stroke-linecap="butt" fill="none" points="1018.12,281.388 1009.41,281.388" stroke-width="0.5"/>
   <text font-size="14" xml:space="preserve" font-weight="normal" font-family="FreeSans" transform="translate(131.251,368.954) rotate(-0,8,-5.5)" font-style="normal">
    <tspan y="-0" fill="rgb(38,38,38)" x="0 ">0</tspan>
   </text>
   <text font-size="14" xml:space="preserve" font-weight="normal" font-family="FreeSans" transform="translate(123.251,357.23) rotate(-0,16,-5.5)" font-style="normal">
    <tspan y="-0" fill="rgb(38,38,38)" x="0 8 ">50</tspan>
   </text>
   <text font-size="14" xml:space="preserve" font-weight="normal" font-family="FreeSans" transform="translate(115.251,345.506) rotate(-0,24,-5.5)" font-style="normal">
    <tspan y="-0" fill="rgb(38,38,38)" x="0 8 16 ">100</tspan>
   </text>
   <text font-size="14" xml:space="preserve" font-weight="normal" font-family="FreeSans" transform="translate(115.251,333.783) rotate(-0,24,-5.5)" font-style="normal">
    <tspan y="-0" fill="rgb(38,38,38)" x="0 8 16 ">150</tspan>
   </text>
   <text font-size="14" xml:space="preserve" font-weight="normal" font-family="FreeSans" transform="translate(115.251,322.059) rotate(-0,24,-5.5)" font-style="normal">
    <tspan y="-0" fill="rgb(38,38,38)" x="0 8 16 ">200</tspan>
   </text>
   <text font-size="14" xml:space="preserve" font-weight="normal" font-family="FreeSans" transform="translate(115.251,310.335) rotate(-0,24,-5.5)" font-style="normal">
    <tspan y="-0" fill="rgb(38,38,38)" x="0 8 16 ">250</tspan>
   </text>
   <text font-size="14" xml:space="preserve" font-weight="normal" font-family="FreeSans" transform="translate(115.251,298.612) rotate(-0,24,-5.5)" font-style="normal">
    <tspan y="-0" fill="rgb(38,38,38)" x="0 8 16 ">300</tspan>
   </text>
   <text font-size="14" xml:space="preserve" font-weight="normal" font-family="FreeSans" transform="translate(115.251,286.888) rotate(-0,24,-5.5)" font-style="normal">
    <tspan y="-0" fill="rgb(38,38,38)" x="0 8 16 ">350</tspan>
   </text>
   <polyline stroke="#262626" stroke-linejoin="miter" stroke-dasharray="16,0" stroke-linecap="square" fill="none" points="146.25,363.454 1018.12,363.454" stroke-width="0.5"/>
   <polyline stroke="#262626" stroke-linejoin="miter" stroke-dasharray="16,0" stroke-linecap="square" fill="none" points="146.25,281.388 1018.12,281.388" stroke-width="0.5"/>
   <polyline stroke="#262626" stroke-linejoin="miter" stroke-dasharray="16,0" stroke-linecap="square" fill="none" points="146.25,363.454 146.25,281.388" stroke-width="0.5"/>
   <polyline stroke="#262626" stroke-linejoin="miter" stroke-dasharray="16,0" stroke-linecap="square" fill="none" points="1018.12,363.454 1018.12,281.388" stroke-width="0.5"/>
   <polyline stroke="#ff0000" stroke-linejoin="round" stroke-linecap="butt" fill="none" points="146.25,362.624 147.992,362.051 149.734,362.817 151.476,363.138 153.218,363.2 154.96,359.882 156.702,363.078 158.444,361.706 160.186,362.413 161.928,362.798 163.67,359.801 165.412,360.846 167.154,362.726 168.896,362.528 170.638,362.303 172.38,361.364 174.122,347.994 175.864,363.238 177.606,362.857 179.348,361.96 181.09,361.975 182.832,362.439 184.574,362.307 186.316,361.246 188.058,363.206 189.8,363.155 191.542,361.575 193.284,360.351 195.026,359.904 196.768,363.306 198.51,358.428 200.252,362.63 201.994,362.873 203.736,357.266 205.478,363.085 207.22,362.538 208.962,363.023 210.704,361.771 212.446,362.709 214.188,360.574 215.93,357.641 217.672,361.905 219.414,363.059 221.156,362.93 222.898,363.062 224.64,360.833 226.382,360.821 228.124,362.713 229.866,362.459 231.608,362.598 233.35,292.819 235.092,362.349 236.834,360.527 238.576,362.656 240.318,361.933 242.06,362.098 243.802,363.012 245.544,363.284 247.286,363.052 249.028,362.096 250.771,360.914 252.513,363.292 254.255,362.848 255.997,359.395 257.739,361.902 259.481,361.52 261.223,360.986 262.965,361.889 264.707,363.115 266.449,363.408 268.191,361.002 269.933,362.884 271.675,362.412 273.417,362.899 275.159,361.618 276.901,363.158 278.643,361.845 280.385,361.705 282.127,362.953 283.869,362.476 285.611,361.752 287.353,363.321 289.095,361.426 290.837,362.878 292.579,359.682 294.321,361.403 296.063,362.81 297.805,362.753 299.547,363.421 301.289,363.313 303.031,362.992 304.773,361.031 306.515,362.223 308.257,362.09 309.999,363.263 311.741,362.615 313.483,362.456 315.225,362.574 316.967,359.355 318.709,359.44 320.451,363.273 322.193,362.574 323.935,360.125 325.677,361.766 327.419,363.327 329.161,361.636 330.903,362.518 332.645,362.605 334.387,361.182 336.129,363.418 337.871,362.645 339.613,361.561 341.355,363.153 343.097,361.394 344.839,360.426 346.581,361.901 348.323,363.424 350.065,360.346 351.807,360.973 353.549,356.823 355.291,314.656 357.033,357.988 358.775,363.394 360.517,361.477 362.259,362.005 364.001,361.35 365.743,358.13 367.485,362.508 369.227,360.79 370.969,363.205 372.711,361.496 374.453,363.031 376.195,362.373 377.937,360.038 379.679,361.329 381.421,361.892 383.163,359.857 384.905,363.388 386.647,361.467 388.389,362.885 390.131,363.209 391.873,361.147 393.615,363.21 395.357,361.56 397.099,361.128 398.841,363.026 400.583,362.589 402.325,361.26 404.067,363.125 405.809,362.412 407.551,361.973 409.293,363.34 411.035,361.91 412.777,360.478 414.519,359.742 416.261,362.832 418.003,360.818 419.745,361.873 421.487,361.466 423.229,360.208 424.971,360.962 426.713,362.176 428.455,360.745 430.197,363.353 431.939,362.408 433.681,362.654 435.423,363.393 437.165,361.083 438.907,362.121 440.649,363.186 442.391,363.334 444.133,362.065 445.875,360.994 447.617,362.616 449.359,363.204 451.101,363.365 452.843,363.045 454.585,361.566 456.327,363.074 458.069,361.356 459.811,362.275 461.553,362.484 463.295,360.686 465.038,363.076 466.779,362.727 468.522,362.04 470.263,362.625 472.006,362.375 473.748,360.226 475.49,362.663 477.232,362.489 478.974,362.289 480.716,362.805 482.458,362.019 484.2,362.389 485.942,362.285 487.684,360.384 489.426,363.047 491.168,363.453 492.91,362.73 494.652,363.366 496.394,360.623 498.136,362.584 499.878,361.844 501.62,363.429 503.362,363.189 505.104,362.41 506.846,362.612 508.588,361.053 510.33,363.387 512.072,363.109 513.814,362.681 515.556,363.193 517.298,363.265 519.04,363.21 520.782,363.045 522.524,363.37 524.266,360.569 526.008,363.208 527.75,361.506 529.492,363.042 531.234,362.76 532.976,358.658 534.718,362.062 536.46,362.485 538.202,362.781 539.944,360.179 541.686,363.286 543.428,362.35 545.17,363.372 546.912,363.402 548.654,361.893 550.396,363.42 552.138,363.056 553.88,363.436 555.622,362.993 557.364,361.89 559.106,363.374 560.848,363.028 562.59,362.528 564.332,363.066 566.074,362.395 567.816,361.494 569.558,362.286 571.3,360.365 573.042,363.178 574.784,361.826 576.526,362.957 578.268,361.249 580.01,361.118 581.752,362.61 583.494,360.974 585.236,361.156 586.978,361.585 588.72,361.48 590.462,362.722 592.204,363.415 593.946,362.022 595.688,359.31 597.43,357.478 599.172,363.183 600.914,363.254 602.656,362.793 604.398,363.422 606.14,361.116 607.882,362.333 609.624,363.424 611.366,362.932 613.108,363.075 614.85,362.213 616.592,359.265 618.334,362.967 620.076,362.021 621.818,363.148 623.56,363.174 625.302,363.12 627.044,361.463 628.786,362.888 630.528,363.275 632.27,363.272 634.012,360.961 635.754,362.524 637.496,363 639.238,362.924 640.98,361.943 642.722,362.997 644.464,362.241 646.206,363.208 647.948,362.325 649.69,362.115 651.432,363.018 653.174,362.931 654.916,363.152 656.658,363.114 658.4,361.057 660.142,362.387 661.884,360.264 663.626,362.568 665.368,362.812 667.11,363.37 668.852,358.814 670.594,363.284 672.336,361.69 674.078,361.388 675.82,359.089 677.562,363.358 679.304,360.188 681.046,362.137 682.789,359.21 684.531,361.777 686.272,361.498 688.015,359.434 689.757,360.863 691.499,360.678 693.241,361.587 694.983,363.051 696.725,362.755 698.467,363.306 700.209,361.326 701.951,360.712 703.693,359.286 705.435,363.092 707.177,357.656 708.919,363.1 710.661,363.386 712.403,362.942 714.145,358.585 715.887,362.211 717.629,362.8 719.371,361.309 721.113,363.055 722.855,363.005 724.597,362.864 726.339,359.643 728.081,362.762 729.823,361.276 731.565,363.193 733.307,361.653 735.049,360.907 736.791,363.18 738.533,362.042 740.275,362.63 742.017,363.113 743.759,362.122 745.501,361.254 747.243,362.493 748.985,360.342 750.727,362.276 752.469,363.099 754.211,358.876 755.953,363.355 757.695,363.218 759.437,362.576 761.179,361.628 762.921,362.842 764.663,363.357 766.405,363.314 768.147,363.209 769.889,362.921 771.631,362.829 773.373,362.146 775.115,363.038 776.857,362.023 778.599,362.66 780.341,361.445 782.083,363.216 783.825,362.971 785.567,361.851 787.309,363.392 789.051,361.92 790.793,362.273 792.535,361.017 794.277,363.308 796.019,362.167 797.761,363.418 799.503,361.206 801.245,363.447 802.987,359.668 804.729,363.196 806.471,363.146 808.213,362.759 809.955,361.468 811.697,363.448 813.439,363.336 815.181,363.403 816.923,363.194 818.665,363.127 820.407,362.806 822.149,361.723 823.891,362.996 825.633,363.093 827.375,362.854 829.117,357.368 830.859,361.945 832.601,363.123 834.343,360.198 836.085,362.758 837.827,363.374 839.569,360.808 841.311,363.105 843.053,360.453 844.795,359.174 846.537,361.003 848.279,363.224 850.021,361.947 851.763,360.605 853.505,362.269 855.247,362.367 856.989,362.024 858.731,360.18 860.473,362.5 862.215,361.996 863.957,363.435 865.699,356.173 867.441,362.775 869.183,363.41 870.925,360.826 872.667,359.136 874.409,363.197 876.151,362.556 877.893,361.361 879.635,362.068 881.377,363.185 883.119,363.171 884.861,362.598 886.603,362.467 888.345,358.472 890.087,361.64 891.829,361.932 893.571,360.28 895.313,361.833 897.055,362.429 898.797,362.728 900.54,361.165 902.281,362.819 904.023,362.573 905.766,362.528 907.508,362.355 909.25,358.756 910.992,362.948 912.734,362.591 914.476,361.49 916.218,362.024 917.96,362.767 919.702,363.006 921.444,363.217 923.186,360.319 924.928,359.268 926.67,359.611 928.412,362.389 930.154,362.081 931.896,362.675 933.638,361.406 935.38,362.093 937.122,363.351 938.864,363.184 940.606,363.396 942.348,360.825 944.09,363.187 945.832,359.614 947.574,363.274 949.316,361.454 951.058,360.285 952.8,359.168 954.542,362.314 956.284,362.898 958.026,362.093 959.768,363.297 961.51,362.857 963.252,359.172 964.994,363.165 966.736,362.075 968.478,358.288 970.22,356.438 971.962,360.118 973.704,363.144 975.446,362.831 977.188,363.167 978.93,362.697 980.672,362.166 982.414,361.508 984.156,363.194 985.898,362.874 987.64,362.676 989.382,362.053 991.124,361.931 992.866,363.025 994.608,362.748 996.35,363.207 998.092,361.421 999.834,362.907 1001.58,363.035 1003.32,362.61 1005.06,362.27 1006.8,360.745 1008.54,363.417 1010.29,362.944 1012.03,363.016 1013.77,363.296 1015.51,362.802" stroke-width="1.5"/>
   <polyline stroke="#0000ff" stroke-linejoin="round" stroke-linecap="butt" fill="none" points="146.25,363.454 147.992,363.454 149.734,363.454 151.476,363.454 153.218,363.454 154.96,363.454 156.702,363.454 158.444,363.454 160.186,363.454 161.928,363.454 163.67,363.454 165.412,363.454 167.154,363.454 168.896,363.454 170.638,363.454 172.38,363.454 174.122,363.454 175.864,363.454 177.606,363.454 179.348,363.454 181.09,363.454 182.832,363.454 184.574,363.454 186.316,363.454 188.058,363.454 189.8,363.454 191.542,363.454 193.284,363.454 195.026,363.454 196.768,363.454 198.51,363.454 200.252,363.454 201.994,363.454 203.736,363.454 205.478,363.454 207.22,363.454 208.962,363.454 210.704,363.454 212.446,363.454 214.188,363.454 215.93,363.454 217.672,363.454 219.414,363.454 221.156,363.454 222.898,363.454 224.64,363.454 226.382,363.454 228.124,363.454 229.866,363.454 231.608,363.454 233.35,292.819 235.092,363.454 236.834,363.454 238.576,363.454 240.318,363.454 242.06,363.454 243.802,363.454 245.544,363.454 247.286,363.454 249.028,363.454 250.771,363.454 252.513,363.454 254.255,363.454 255.997,363.454 257.739,363.454 259.481,363.454 261.223,363.454 262.965,363.454 264.707,363.454 266.449,363.454 268.191,363.454 269.933,363.454 271.675,363.454 273.417,363.454 275.159,363.454 276.901,363.454 278.643,363.454 280.385,363.454 282.127,363.454 283.869,363.454 285.611,363.454 287.353,363.454 289.095,363.454 290.837,363.454 292.579,363.454 294.321,363.454 296.063,363.454 297.805,363.454 299.547,363.454 301.289,363.454 303.031,363.454 304.773,363.454 306.515,363.454 308.257,363.454 309.999,363.454 311.741,363.454 313.483,363.454 315.225,363.454 316.967,363.454 318.709,363.454 320.451,363.454 322.193,363.454 323.935,363.454 325.677,363.454 327.419,363.454 329.161,363.454 330.903,363.454 332.645,363.454 334.387,363.454 336.129,363.454 337.871,363.454 339.613,363.454 341.355,363.454 343.097,363.454 344.839,363.454 346.581,363.454 348.323,363.454 350.065,363.454 351.807,363.454 353.549,363.454 355.291,314.656 357.033,363.454 358.775,363.454 360.517,363.454 362.259,363.454 364.001,363.454 365.743,363.454 367.485,363.454 369.227,363.454 370.969,363.454 372.711,363.454 374.453,363.454 376.195,363.454 377.937,363.454 379.679,363.454 381.421,363.454 383.163,363.454 384.905,363.454 386.647,363.454 388.389,363.454 390.131,363.454 391.873,363.454 393.615,363.454 395.357,363.454 397.099,363.454 398.841,363.454 400.583,363.454 402.325,363.454 404.067,363.454 405.809,363.454 407.551,363.454 409.293,363.454 411.035,363.454 412.777,363.454 414.519,363.454 416.261,363.454 418.003,363.454 419.745,363.454 421.487,363.454 423.229,363.454 424.971,363.454 426.713,363.454 428.455,363.454 430.197,363.454 431.939,363.454 433.681,363.454 435.423,363.454 437.165,363.454 438.907,363.454 440.649,363.454 442.391,363.454 444.133,363.454 445.875,363.454 447.617,363.454 449.359,363.454 451.101,363.454 452.843,363.454 454.585,363.454 456.327,363.454 458.069,363.454 459.811,363.454 461.553,363.454 463.295,363.454 465.038,363.454 466.779,363.454 468.522,363.454 470.263,363.454 472.006,363.454 473.748,363.454 475.49,363.454 477.232,363.454 478.974,363.454 480.716,363.454 482.458,363.454 484.2,363.454 485.942,363.454 487.684,363.454 489.426,363.454 491.168,363.454 492.91,363.454 494.652,363.454 496.394,363.454 498.136,363.454 499.878,363.454 501.62,363.454 503.362,363.454 505.104,363.454 506.846,363.454 508.588,363.454 510.33,363.454 512.072,363.454 513.814,363.454 515.556,363.454 517.298,363.454 519.04,363.454 520.782,363.454 522.524,363.454 524.266,363.454 526.008,363.454 527.75,363.454 529.492,363.454 531.234,363.454 532.976,363.454 534.718,363.454 536.46,363.454 538.202,363.454 539.944,363.454 541.686,363.454 543.428,363.454 545.17,363.454 546.912,363.454 548.654,363.454 550.396,363.454 552.138,363.454 553.88,363.454 555.622,363.454 557.364,363.454 559.106,363.454 560.848,363.454 562.59,363.454 564.332,363.454 566.074,363.454 567.816,363.454 569.558,363.454 571.3,363.454 573.042,363.454 574.784,363.454 576.526,363.454 578.268,363.454 580.01,363.454 581.752,363.454 583.494,363.454 585.236,363.454 586.978,363.454 588.72,363.454 590.462,363.454 592.204,363.454 593.946,363.454 595.688,363.454 597.43,363.454 599.172,363.454 600.914,363.454 602.656,363.454 604.398,363.454 606.14,363.454 607.882,363.454 609.624,363.454 611.366,363.454 613.108,363.454 614.85,363.454 616.592,363.454 618.334,363.454 620.076,363.454 621.818,363.454 623.56,363.454 625.302,363.454 627.044,363.454 628.786,363.454 630.528,363.454 632.27,363.454 634.012,363.454 635.754,363.454 637.496,363.454 639.238,363.454 640.98,363.454 642.722,363.454 644.464,363.454 646.206,363.454 647.948,363.454 649.69,363.454 651.432,363.454 653.174,363.454 654.916,363.454 656.658,363.454 658.4,363.454 660.142,363.454 661.884,363.454 663.626,363.454 665.368,363.454 667.11,363.454 668.852,363.454 670.594,363.454 672.336,363.454 674.078,363.454 675.82,363.454 677.562,363.454 679.304,363.454 681.046,363.454 682.789,363.454 684.531,363.454 686.272,363.454 688.015,363.454 689.757,363.454 691.499,363.454 693.241,363.454 694.983,363.454 696.725,363.454 698.467,363.454 700.209,363.454 701.951,363.454 703.693,363.454 705.435,363.454 707.177,363.454 708.919,363.454 710.661,363.454 712.403,363.454 714.145,363.454 715.887,363.454 717.629,363.454 719.371,363.454 721.113,363.454 722.855,363.454 724.597,363.454 726.339,363.454 728.081,363.454 729.823,363.454 731.565,363.454 733.307,363.454 735.049,363.454 736.791,363.454 738.533,363.454 740.275,363.454 742.017,363.454 743.759,363.454 745.501,363.454 747.243,363.454 748.985,363.454 750.727,363.454 752.469,363.454 754.211,363.454 755.953,363.454 757.695,363.454 759.437,363.454 761.179,363.454 762.921,363.454 764.663,363.454 766.405,363.454 768.147,363.454 769.889,363.454 771.631,363.454 773.373,363.454 775.115,363.454 776.857,363.454 778.599,363.454 780.341,363.454 782.083,363.454 783.825,363.454 785.567,363.454 787.309,363.454 789.051,363.454 790.793,363.454 792.535,363.454 794.277,363.454 796.019,363.454 797.761,363.454 799.503,363.454 801.245,363.454 802.987,363.454 804.729,363.454 806.471,363.454 808.213,363.454 809.955,363.454 811.697,363.454 813.439,363.454 815.181,363.454 816.923,363.454 818.665,363.454 820.407,363.454 822.149,363.454 823.891,363.454 825.633,363.454 827.375,363.454 829.117,363.454 830.859,363.454 832.601,363.454 834.343,363.454 836.085,363.454 837.827,363.454 839.569,363.454 841.311,363.454 843.053,363.454 844.795,363.454 846.537,363.454 848.279,363.454 850.021,363.454 851.763,363.454 853.505,363.454 855.247,363.454 856.989,363.454 858.731,363.454 860.473,363.454 862.215,363.454 863.957,363.454 865.699,363.454 867.441,363.454 869.183,363.454 870.925,363.454 872.667,363.454 874.409,363.454 876.151,363.454 877.893,363.454 879.635,363.454 881.377,363.454 883.119,363.454 884.861,363.454 886.603,363.454 888.345,363.454 890.087,363.454 891.829,363.454 893.571,363.454 895.313,363.454 897.055,363.454 898.797,363.454 900.54,363.454 902.281,363.454 904.023,363.454 905.766,363.454 907.508,363.454 909.25,363.454 910.992,363.454 912.734,363.454 914.476,363.454 916.218,363.454 917.96,363.454 919.702,363.454 921.444,363.454 923.186,363.454 924.928,363.454 926.67,363.454 928.412,363.454 930.154,363.454 931.896,363.454 933.638,363.454 935.38,363.454 937.122,363.454 938.864,363.454 940.606,363.454 942.348,363.454 944.09,363.454 945.832,363.454 947.574,363.454 949.316,363.454 951.058,363.454 952.8,363.454 954.542,363.454 956.284,363.454 958.026,363.454 959.768,363.454 961.51,363.454 963.252,363.454 964.994,363.454 966.736,363.454 968.478,363.454 970.22,363.454 971.962,363.454 973.704,363.454 975.446,363.454 977.188,363.454 978.93,363.454 980.672,363.454 982.414,363.454 984.156,363.454 985.898,363.454 987.64,363.454 989.382,363.454 991.124,363.454 992.866,363.454 994.608,363.454 996.35,363.454 998.092,363.454 999.834,363.454 1001.58,363.454 1003.32,363.454 1005.06,363.454 1006.8,363.454 1008.54,363.454 1010.29,363.454 1012.03,363.454 1013.77,363.454 1015.51,363.454" stroke-width="1.5"/>
  </g>
  <clipPath id="cp001124408">
   <polygon points="0,408 1124,408 1124,0 0,0"/>
  </clipPath>
  <g clip-path="url(#cp001124408)">
   <polygon fill="#ffffff" points="919.792,292.055 919.792,342.899 1007.46,342.899 1007.46,292.055" shape-rendering="crispEdges"/>
   <polyline stroke="#262626" stroke-linejoin="miter" stroke-dasharray="16,0" stroke-linecap="square" fill="none" points="919.792,342.899 1007.46,342.899" stroke-width="0.5"/>
   <polyline stroke="#262626" stroke-linejoin="miter" stroke-dasharray="16,0" stroke-linecap="square" fill="none" points="919.792,292.055 1007.46,292.055" stroke-width="0.5"/>
   <polyline stroke="#262626" stroke-linejoin="miter" stroke-dasharray="16,0" stroke-linecap="square" fill="none" points="919.792,342.899 919.792,292.055" stroke-width="0.5"/>
   <polyline stroke="#262626" stroke-linejoin="miter" stroke-dasharray="16,0" stroke-linecap="square" fill="none" points="1007.46,342.899 1007.46,292.055" stroke-width="0.5"/>
   <polyline stroke="#ff0000" stroke-linejoin="round" stroke-linecap="butt" fill="none" points="925.125,306.099 951.792,306.099" stroke-width="1.5"/>
   <text font-size="14" xml:space="preserve" font-weight="normal" font-family="FreeSans" transform="translate(957.125,313.599) rotate(-0,-0,-7.5)" font-style="normal">
    <tspan y="-3" fill="rgb(0,0,0)" x="0 10 17 20 27 ">Noisy</tspan>
   </text>
   <polyline stroke="#0000ff" stroke-linejoin="round" stroke-linecap="butt" fill="none" points="925.125,328.855 951.792,328.855" stroke-width="1.5"/>
   <text font-size="14" xml:space="preserve" font-weight="normal" font-family="FreeSans" transform="translate(957.125,335.355) rotate(-0,-0,-6.5)" font-style="normal">
    <tspan y="-1" fill="rgb(0,0,0)" x="0 8 11 14 18 25 30 37 ">Filtered</tspan>
   </text>
  </g>
  <clipPath id="cp001124408">
   <polygon points="0,408 1124,408 1124,0 0,0"/>
  </clipPath>
  <g clip-path="url(#cp001124408)">
   <polygon fill="#ffffff" points="146.25,159.919 146.25,241.985 1018.12,241.985 1018.12,159.919" shape-rendering="crispEdges"/>
   <polyline stroke="#262626" stroke-linejoin="miter" stroke-dasharray="16,0" stroke-linecap="butt" fill="none" points="146.25,241.985 146.25,159.919" stroke-opacity="0.15" stroke-width="0.5"/>
   <polyline stroke="#262626" stroke-linejoin="miter" stroke-dasharray="16,0" stroke-linecap="butt" fill="none" points="320.625,241.985 320.625,159.919" stroke-opacity="0.15" stroke-width="0.5"/>
   <polyline stroke="#262626" stroke-linejoin="miter" stroke-dasharray="16,0" stroke-linecap="butt" fill="none" points="495,241.985 495,159.919" stroke-opacity="0.15" stroke-width="0.5"/>
   <polyline stroke="#262626" stroke-linejoin="miter" stroke-dasharray="16,0" stroke-linecap="butt" fill="none" points="669.375,241.985 669.375,159.919" stroke-opacity="0.15" stroke-width="0.5"/>
   <polyline stroke="#262626" stroke-linejoin="miter" stroke-dasharray="16,0" stroke-linecap="butt" fill="none" points="843.75,241.985 843.75,159.919" stroke-opacity="0.15" stroke-width="0.5"/>
   <polyline stroke="#262626" stroke-linejoin="miter" stroke-dasharray="16,0" stroke-linecap="butt" fill="none" points="1018.12,241.985 1018.12,159.919" stroke-opacity="0.15" stroke-width="0.5"/>
   <polyline stroke="#262626" stroke-linejoin="miter" stroke-linecap="butt" fill="none" points="146.25,241.985 146.25,233.259" stroke-width="0.5"/>
   <polyline stroke="#262626" stroke-linejoin="miter" stroke-linecap="butt" fill="none" points="146.25,159.919 146.25,168.645" stroke-width="0.5"/>
   <polyline stroke="#262626" stroke-linejoin="miter" stroke-linecap="butt" fill="none" points="320.625,241.985 320.625,233.259" stroke-width="0.5"/>
   <polyline stroke="#262626" stroke-linejoin="miter" stroke-linecap="butt" fill="none" points="320.625,159.919 320.625,168.645" stroke-width="0.5"/>
   <polyline stroke="#262626" stroke-linejoin="miter" stroke-linecap="butt" fill="none" points="495,241.985 495,233.259" stroke-width="0.5"/>
   <polyline stroke="#262626" stroke-linejoin="miter" stroke-linecap="butt" fill="none" points="495,159.919 495,168.645" stroke-width="0.5"/>
   <polyline stroke="#262626" stroke-linejoin="miter" stroke-linecap="butt" fill="none" points="669.375,241.985 669.375,233.259" stroke-width="0.5"/>
   <polyline stroke="#262626" stroke-linejoin="miter" stroke-linecap="butt" fill="none" points="669.375,159.919 669.375,168.645" stroke-width="0.5"/>
   <polyline stroke="#262626" stroke-linejoin="miter" stroke-linecap="butt" fill="none" points="843.75,241.985 843.75,233.259" stroke-width="0.5"/>
   <polyline stroke="#262626" stroke-linejoin="miter" stroke-linecap="butt" fill="none" points="843.75,159.919 843.75,168.645" stroke-width="0.5"/>
   <polyline stroke="#262626" stroke-linejoin="miter" stroke-linecap="butt" fill="none" points="1018.12,241.985 1018.12,233.259" stroke-width="0.5"/>
   <polyline stroke="#262626" stroke-linejoin="miter" stroke-linecap="butt" fill="none" points="1018.12,159.919 1018.12,168.645" stroke-width="0.5"/>
   <text font-size="14" xml:space="preserve" font-weight="normal" font-family="FreeSans" transform="translate(142.25,263.493) rotate(-0,4,-11)" font-style="normal">
    <tspan y="-0" fill="rgb(38,38,38)" x="0 ">0</tspan>
   </text>
   <text font-size="14" xml:space="preserve" font-weight="normal" font-family="FreeSans" transform="translate(310.625,263.493) rotate(-0,10,-11)" font-style="normal">
    <tspan y="-0" fill="rgb(38,38,38)" x="0 8 12 ">0.2</tspan>
   </text>
   <text font-size="14" xml:space="preserve" font-weight="normal" font-family="FreeSans" transform="translate(485,263.493) rotate(-0,10,-11)" font-style="normal">
    <tspan y="-0" fill="rgb(38,38,38)" x="0 8 12 ">0.4</tspan>
   </text>
   <text font-size="14" xml:space="preserve" font-weight="normal" font-family="FreeSans" transform="translate(659.375,263.493) rotate(-0,10,-11)" font-style="normal">
    <tspan y="-0" fill="rgb(38,38,38)" x="0 8 12 ">0.6</tspan>
   </text>
   <text font-size="14" xml:space="preserve" font-weight="normal" font-family="FreeSans" transform="translate(833.75,263.493) rotate(-0,10,-11)" font-style="normal">
    <tspan y="-0" fill="rgb(38,38,38)" x="0 8 12 ">0.8</tspan>
   </text>
   <text font-size="14" xml:space="preserve" font-weight="normal" font-family="FreeSans" transform="translate(1014.12,263.493) rotate(-0,4,-11)" font-style="normal">
    <tspan y="-0" fill="rgb(38,38,38)" x="0 ">1</tspan>
   </text>
   <polyline stroke="#262626" stroke-linejoin="miter" stroke-dasharray="16,0" stroke-linecap="butt" fill="none" points="146.25,241.985 1018.12,241.985" stroke-opacity="0.15" stroke-width="0.5"/>
   <polyline stroke="#262626" stroke-linejoin="miter" stroke-dasharray="16,0" stroke-linecap="butt" fill="none" points="146.25,221.468 1018.12,221.468" stroke-opacity="0.15" stroke-width="0.5"/>
   <polyline stroke="#262626" stroke-linejoin="miter" stroke-dasharray="16,0" stroke-linecap="butt" fill="none" points="146.25,200.952 1018.12,200.952" stroke-opacity="0.15" stroke-width="0.5"/>
   <polyline stroke="#262626" stroke-linejoin="miter" stroke-dasharray="16,0" stroke-linecap="butt" fill="none" points="146.25,180.435 1018.12,180.435" stroke-opacity="0.15" stroke-width="0.5"/>
   <polyline stroke="#262626" stroke-linejoin="miter" stroke-dasharray="16,0" stroke-linecap="butt" fill="none" points="146.25,159.919 1018.12,159.919" stroke-opacity="0.15" stroke-width="0.5"/>
   <polyline stroke="#262626" stroke-linejoin="miter" stroke-linecap="butt" fill="none" points="146.25,241.985 154.968,241.985" stroke-width="0.5"/>
   <polyline stroke="#262626" stroke-linejoin="miter" stroke-linecap="butt" fill="none" points="1018.12,241.985 1009.41,241.985" stroke-width="0.5"/>
   <polyline stroke="#262626" stroke-linejoin="miter" stroke-linecap="butt" fill="none" points="146.25,221.468 154.968,221.468" stroke-width="0.5"/>
   <polyline stroke="#262626" stroke-linejoin="miter" stroke-linecap="butt" fill="none" points="1018.12,221.468 1009.41,221.468" stroke-width="0.5"/>
   <polyline stroke="#262626" stroke-linejoin="miter" stroke-linecap="butt" fill="none" points="146.25,200.952 154.968,200.952" stroke-width="0.5"/>
   <polyline stroke="#262626" stroke-linejoin="miter" stroke-linecap="butt" fill="none" points="1018.12,200.952 1009.41,200.952" stroke-width="0.5"/>
   <polyline stroke="#262626" stroke-linejoin="miter" stroke-linecap="butt" fill="none" points="146.25,180.435 154.968,180.435" stroke-width="0.5"/>
   <polyline stroke="#262626" stroke-linejoin="miter" stroke-linecap="butt" fill="none" points="1018.12,180.435 1009.41,180.435" stroke-width="0.5"/>
   <polyline stroke="#262626" stroke-linejoin="miter" stroke-linecap="butt" fill="none" points="146.25,159.919 154.968,159.919" stroke-width="0.5"/>
   <polyline stroke="#262626" stroke-linejoin="miter" stroke-linecap="butt" fill="none" points="1018.12,159.919 1009.41,159.919" stroke-width="0.5"/>
   <text font-size="14" xml:space="preserve" font-weight="normal" font-family="FreeSans" transform="translate(118.251,247.485) rotate(-0,21,-5.5)" font-style="normal">
    <tspan y="-0" fill="rgb(38,38,38)" x="0 5 13 ">-10</tspan>
   </text>
   <text font-size="14" xml:space="preserve" font-weight="normal" font-family="FreeSans" transform="translate(126.251,226.968) rotate(-0,13,-5.5)" font-style="normal">
    <tspan y="-0" fill="rgb(38,38,38)" x="0 5 ">-5</tspan>
   </text>
   <text font-size="14" xml:space="preserve" font-weight="normal" font-family="FreeSans" transform="translate(131.251,206.452) rotate(-0,8,-5.5)" font-style="normal">
    <tspan y="-0" fill="rgb(38,38,38)" x="0 ">0</tspan>
   </text>
   <text font-size="14" xml:space="preserve" font-weight="normal" font-family="FreeSans" transform="translate(131.251,185.935) rotate(-0,8,-5.5)" font-style="normal">
    <tspan y="-0" fill="rgb(38,38,38)" x="0 ">5</tspan>
   </text>
   <text font-size="14" xml:space="preserve" font-weight="normal" font-family="FreeSans" transform="translate(123.251,165.419) rotate(-0,16,-5.5)" font-style="normal">
    <tspan y="-0" fill="rgb(38,38,38)" x="0 8 ">10</tspan>
   </text>
   <polyline stroke="#262626" stroke-linejoin="miter" stroke-dasharray="16,0" stroke-linecap="square" fill="none" points="146.25,241.985 1018.12,241.985" stroke-width="0.5"/>
   <polyline stroke="#262626" stroke-linejoin="miter" stroke-dasharray="16,0" stroke-linecap="square" fill="none" points="146.25,159.919 1018.12,159.919" stroke-width="0.5"/>
   <polyline stroke="#262626" stroke-linejoin="miter" stroke-dasharray="16,0" stroke-linecap="square" fill="none" points="146.25,241.985 146.25,159.919" stroke-width="0.5"/>
   <polyline stroke="#262626" stroke-linejoin="miter" stroke-dasharray="16,0" stroke-linecap="square" fill="none" points="1018.12,241.985 1018.12,159.919" stroke-width="0.5"/>
   <polyline stroke="#0000ff" stroke-linejoin="round" stroke-linecap="butt" fill="none" points="146.25,199.702 147.122,196.213 147.994,194.648 148.866,195.302 149.738,197.385 150.609,199.493 151.481,200.394 152.353,199.706 153.225,198.089 154.097,196.863 154.969,197.251 155.841,199.659 156.713,203.4 157.584,207.004 158.456,208.957 159.328,208.482 160.2,205.929 161.072,202.577 161.944,199.952 162.816,199.031 163.688,199.754 164.559,201.113 165.431,201.758 166.303,200.785 167.175,198.282 168.047,195.322 168.919,193.413 169.791,193.687 170.663,196.281 171.534,200.234 172.406,203.966 173.278,206.072 174.15,206.03 175.022,204.417 175.894,202.546 176.766,201.712 177.638,202.463 178.509,204.294 179.381,205.93 180.253,206.046 181.125,204.023 181.997,200.339 182.869,196.371 183.741,193.71 184.613,193.354 185.484,195.212 186.356,198.179 187.228,200.747 188.1,201.808 188.972,201.228 189.844,199.876 190.716,199.099 191.588,199.934 192.459,202.486 193.331,205.818 194.203,208.412 195.075,208.966 195.947,207.086 196.819,203.508 197.691,199.73 198.563,197.242 199.434,196.774 200.306,197.963 201.178,199.608 202.05,200.374 202.922,199.559 203.794,197.502 204.666,195.409 205.538,194.689 206.409,196.17 207.281,199.603 208.153,203.747 209.025,206.976 209.897,208.102 210.769,206.962 211.641,204.461 212.513,202.058 213.384,200.961 214.256,201.488 215.128,202.918 216,203.925 216.872,203.349 217.744,200.884 218.616,197.305 219.488,194.101 220.359,192.714 221.231,193.788 222.103,196.831 222.975,200.471 223.847,203.174 224.719,204.028 225.591,203.185 226.463,201.72 227.334,200.986 228.206,201.828 229.078,204.083 229.95,206.64 230.822,208.028 231.694,207.224 232.566,204.23 233.438,200.114 234.309,196.49 235.181,194.7 236.053,195.152 236.925,197.151 237.797,199.321 238.669,200.378 239.541,199.835 240.413,198.256 241.284,196.929 242.156,197.119 243.028,199.339 243.9,203.005 244.772,206.696 245.644,208.866 246.516,208.638 247.388,206.246 248.259,202.903 249.131,200.147 250.003,199.039 250.875,199.631 251.747,200.988 252.619,201.758 253.491,200.961 254.363,198.576 255.234,195.596 256.106,193.518 256.978,193.548 257.85,195.937 258.722,199.822 259.594,203.648 260.466,205.958 261.338,206.122 262.209,204.614 263.081,202.704 263.953,201.725 264.825,202.323 265.697,204.095 266.569,205.817 267.441,206.129 268.313,204.316 269.184,200.747 270.056,196.733 270.928,193.881 271.8,193.279 272.672,194.952 273.544,197.876 274.416,200.546 275.288,201.783 276.159,201.342 277.031,200.008 277.903,199.115 278.775,199.766 279.647,202.173 280.519,205.492 281.391,208.229 282.263,209.023 283.134,207.37 284.006,203.902 284.878,200.071 285.75,197.404 286.622,196.732 287.494,197.8 288.366,199.463 289.238,200.364 290.109,199.71 290.981,197.734 291.853,195.577 292.725,194.668 293.597,195.921 294.469,199.202 295.341,203.348 296.213,206.735 297.084,208.098 297.956,207.159 298.828,204.732 299.7,202.254 300.572,200.994 301.444,201.376 302.316,202.771 303.188,203.881 304.059,203.495 304.931,201.201 305.803,197.673 306.675,194.359 307.547,192.744 308.419,193.575 309.291,196.473 310.163,200.127 311.034,202.979 311.906,204.03 312.778,203.32 313.65,201.855 314.522,200.995 315.394,201.668 316.266,203.82 317.138,206.413 318.009,207.978 318.881,207.413 319.753,204.604 320.625,200.531 321.497,196.786 322.369,194.776 323.241,195.018 324.113,196.919 324.984,199.137 325.856,200.345 326.728,199.952 327.6,198.427 328.472,197.01 329.344,197.009 330.216,199.034 331.088,202.61 331.959,206.373 332.831,208.751 333.703,208.771 334.575,206.554 335.447,203.235 336.319,200.359 337.191,199.066 338.063,199.516 338.934,200.856 339.806,201.741 340.678,201.121 341.55,198.864 342.422,195.878 343.294,193.645 344.166,193.434 345.038,195.609 345.909,199.408 346.781,203.314 347.653,205.822 348.525,206.197 349.397,204.807 350.269,202.872 351.141,201.755 352.013,202.196 352.884,203.896 353.756,205.688 354.628,206.189 355.5,204.592 356.372,201.151 357.244,197.107 358.116,194.075 358.988,193.228 359.859,194.705 360.731,197.57 361.603,200.33 362.475,201.739 363.347,201.446 364.219,200.144 365.091,199.148 365.963,199.617 366.834,201.871 367.706,205.16 368.578,208.025 369.45,209.054 370.322,207.636 371.194,204.293 372.066,200.423 372.938,197.586 373.809,196.708 374.681,197.643 375.553,199.311 376.425,200.338 377.297,199.848 378.169,197.963 379.041,195.759 379.913,194.669 380.784,195.693 381.656,198.81 382.528,202.941 383.4,206.473 384.272,208.07 385.144,207.34 386.016,205.002 386.888,202.463 387.759,201.045 388.631,201.275 389.503,202.621 390.375,203.822 391.247,203.621 392.119,201.505 392.991,198.044 393.863,194.635 394.734,192.799 395.606,193.384 396.478,196.123 397.35,199.774 398.222,202.766 399.094,204.013 399.966,203.447 400.838,201.996 401.709,201.021 402.581,201.525 403.453,203.562 404.325,206.176 405.197,207.906 406.069,207.577 406.941,204.965 407.813,200.951 408.684,197.101 409.556,194.875 410.428,194.902 411.3,196.689 412.172,198.943 413.044,200.294 413.916,200.058 414.788,198.598 415.659,197.106 416.531,196.92 417.403,198.745 418.275,202.217 419.147,206.035 420.019,208.611 420.891,208.881 421.763,206.85 422.634,203.572 423.506,200.588 424.378,199.11 425.25,199.41 426.122,200.72 426.994,201.709 427.866,201.263 428.738,199.145 429.609,196.169 430.481,193.793 431.353,193.344 432.225,195.298 433.097,198.996 433.969,202.965 434.841,205.663 435.713,206.253 436.584,204.995 437.456,203.049 438.328,201.801 439.2,202.082 440.072,203.698 440.944,205.546 441.816,206.228 442.688,204.848 443.559,201.548 444.431,197.491 445.303,194.293 446.175,193.201 447.047,194.473 447.919,197.263 448.791,200.1 449.663,201.678 450.534,201.539 451.406,200.284 452.278,199.196 453.15,199.486 454.022,201.579 454.894,204.823 455.766,207.802 456.638,209.06 457.509,207.882 458.381,204.678 459.253,200.787 460.125,197.789 460.997,196.703 461.869,197.494 462.741,199.152 463.613,200.296 464.484,199.97 465.356,198.189 466.228,195.952 467.1,194.693 467.972,195.487 468.844,198.428 469.716,202.527 470.588,206.191 471.459,208.018 472.331,207.505 473.203,205.27 474.075,202.684 474.947,201.113 475.819,201.185 476.691,202.469 477.562,203.748 478.434,203.727 479.306,201.795 480.178,198.414 481.05,194.927 481.922,192.879 482.794,193.215 483.666,195.782 484.538,199.414 485.409,202.535 486.281,203.978 487.153,203.565 488.025,202.142 488.897,201.062 489.769,201.398 490.641,203.31 491.513,205.93 492.384,207.812 493.256,207.718 494.128,205.311 495,201.373 495.872,197.432 496.744,194.998 497.616,194.804 498.488,196.465 499.359,198.739 500.231,200.227 501.103,200.151 501.975,198.769 502.847,197.216 503.719,196.852 504.591,198.474 505.463,201.828 506.334,205.685 507.206,208.447 508.078,208.967 508.95,207.133 509.822,203.912 510.694,200.832 511.566,199.174 512.438,199.316 513.309,200.581 514.181,201.662 515.053,201.387 515.925,199.416 516.797,196.465 517.669,193.961 518.541,193.28 519.413,195.005 520.284,198.586 521.156,202.603 522.028,205.483 522.9,206.29 523.772,205.175 524.644,203.233 525.516,201.864 526.388,201.982 527.259,203.503 528.131,205.393 529.003,206.245 529.875,205.083 530.747,201.937 531.619,197.885 532.491,194.532 533.363,193.199 534.234,194.256 535.106,196.956 535.978,199.857 536.85,201.598 537.722,201.62 538.594,200.425 539.466,199.258 540.338,199.375 541.209,201.299 542.081,204.484 542.953,207.561 543.825,209.041 544.697,208.107 545.569,205.056 546.441,201.16 547.312,198.012 548.184,196.718 549.056,197.354 549.928,198.987 550.8,200.239 551.672,200.077 552.544,198.41 553.416,196.155 554.288,194.738 555.159,195.303 556.031,198.058 556.903,202.109 557.775,205.889 558.647,207.941 559.519,207.652 560.391,205.535 561.263,202.915 562.134,201.198 563.006,201.108 563.878,202.317 564.75,203.66 565.622,203.813 566.494,202.07 567.366,198.783 568.238,195.234 569.109,192.985 569.981,193.069 570.853,195.453 571.725,199.048 572.597,202.285 573.469,203.923 574.341,203.672 575.213,202.291 576.084,201.118 576.956,201.287 577.828,203.066 578.7,205.676 579.572,207.698 580.444,207.835 581.316,205.642 582.188,201.795 583.059,197.779 583.931,195.144 584.803,194.725 585.675,196.247 586.547,198.526 587.419,200.143 588.291,200.23 589.163,198.938 590.034,197.339 590.906,196.805 591.778,198.221 592.65,201.444 593.522,205.323 594.394,208.26 595.266,209.028 596.138,207.401 597.009,204.254 597.881,201.092 598.753,199.256 599.625,199.233 600.497,200.439 601.369,201.6 602.241,201.494 603.112,199.676 603.984,196.766 604.856,194.148 605.728,193.241 606.6,194.731 607.472,198.181 608.344,202.23 609.216,205.281 610.088,206.307 610.959,205.347 611.831,203.423 612.703,201.942 613.575,201.897 614.447,203.312 615.319,205.228 616.191,206.241 617.062,205.298 617.934,202.317 618.806,198.286 619.678,194.792 620.55,193.222 621.422,194.056 622.294,196.651 623.166,199.601 624.038,201.501 624.909,201.689 625.781,200.567 626.653,199.334 627.525,199.282 628.397,201.032 629.269,204.144 630.141,207.303 631.013,208.996 631.884,208.309 632.756,205.425 633.628,201.541 634.5,198.255 635.372,196.753 636.244,197.224 637.116,198.818 637.988,200.167 638.859,200.168 639.731,198.625 640.603,196.367 641.475,194.803 642.347,195.142 643.219,197.702 644.091,201.689 644.963,205.57 645.834,207.84 646.706,207.78 647.578,205.794 648.45,203.157 649.322,201.301 650.194,201.045 651.066,202.167 651.938,203.56 652.809,203.879 653.681,202.328 654.553,199.15 655.425,195.555 656.297,193.114 657.169,192.947 658.041,195.136 658.913,198.679 659.784,202.019 660.656,203.848 661.528,203.767 662.4,202.443 663.272,201.189 664.144,201.194 665.016,202.831 665.888,205.417 666.759,207.564 667.631,207.928 668.503,205.955 669.375,202.215 670.247,198.141 671.119,195.314 671.991,194.666 672.862,196.036 673.734,198.307 674.606,200.044 675.478,200.294 676.35,199.104 677.222,197.472 678.094,196.778 678.966,197.986 679.838,201.067 680.709,204.951 681.581,208.05 682.453,209.065 683.325,207.654 684.197,204.595 685.069,201.366 685.941,199.358 686.813,199.162 687.684,200.297 688.556,201.525 689.428,201.583 690.3,199.925 691.172,197.07 692.044,194.352 692.916,193.226 693.788,194.478 694.659,197.782 695.531,201.845 696.403,205.057 697.275,206.304 698.147,205.509 699.019,203.618 699.891,202.035 700.763,201.828 701.634,203.126 702.506,205.054 703.378,206.216 704.25,205.492 705.122,202.686 705.994,198.692 706.866,195.073 707.738,193.269 708.609,193.875 709.481,196.35 710.353,199.333 711.225,201.385 712.097,201.744 712.969,200.707 713.841,199.423 714.713,199.209 715.584,200.78 716.456,203.805 717.328,207.031 718.2,208.926 719.072,208.489 719.944,205.784 720.816,201.928 721.688,198.516 722.559,196.808 723.431,197.106 724.303,198.647 725.175,200.08 726.047,200.243 726.919,198.832 727.791,196.586 728.663,194.889 729.534,195.005 730.406,197.361 731.278,201.267 732.15,205.233 733.022,207.715 733.894,207.888 734.766,206.047 735.638,203.406 736.509,201.42 737.381,200.997 738.253,202.02 739.125,203.449 739.997,203.926 740.869,202.569 741.741,199.512 742.613,195.888 743.484,193.268 744.356,192.85 745.228,194.832 746.1,198.307 746.972,201.737 747.844,203.754 748.716,203.85 749.587,202.596 750.459,201.273 751.331,201.118 752.203,202.605 753.075,205.152 753.947,207.411 754.819,207.996 755.691,206.25 756.562,202.631 757.434,198.515 758.306,195.506 759.178,194.628 760.05,195.835 760.922,198.081 761.794,199.928 762.666,200.344 763.537,199.265 764.409,197.615 765.281,196.771 766.153,197.772 767.025,200.699 767.897,204.571 768.769,207.818 769.641,209.076 770.513,207.89 771.384,204.936 772.256,201.652 773.128,199.478 774,199.106 774.872,200.156 775.744,201.438 776.616,201.653 777.488,200.162 778.359,197.375 779.231,194.573 780.103,193.237 780.975,194.246 781.847,197.391 782.719,201.452 783.591,204.813 784.463,206.279 785.334,205.659 786.206,203.816 787.078,202.143 787.95,201.774 788.822,202.947 789.694,204.872 790.566,206.172 791.438,205.664 792.309,203.042 793.181,199.102 794.053,195.372 794.925,193.342 795.797,193.713 796.669,196.053 797.541,199.056 798.413,201.251 799.284,201.784 800.156,200.845 801.028,199.522 801.9,199.154 802.772,200.544 803.644,203.468 804.516,206.744 805.388,208.833 806.259,208.645 807.131,206.131 808.003,202.32 808.875,198.795 809.747,196.885 810.619,197 811.491,198.474 812.362,199.98 813.234,200.301 814.106,199.03 814.978,196.811 815.85,194.993 816.722,194.891 817.594,197.036 818.466,200.846 819.338,204.881 820.209,207.565 821.081,207.975 821.953,206.292 822.825,203.663 823.697,201.556 824.569,200.963 825.441,201.877 826.312,203.328 827.184,203.953 828.056,202.792 828.928,199.868 829.8,196.23 830.672,193.444 831.544,192.778 832.416,194.545 833.287,197.935 834.159,201.44 835.031,203.639 835.903,203.918 836.775,202.748 837.647,201.369 838.519,201.059 839.391,202.391 840.262,204.885 841.134,207.241 842.006,208.04 842.878,206.525 843.75,203.043 844.622,198.901 845.494,195.72 846.366,194.612 847.238,195.645 848.109,197.852 848.981,199.797 849.853,200.377 850.725,199.42 851.597,197.766 852.469,196.783 853.341,197.577 854.213,200.34 855.084,204.185 855.956,207.566 856.828,209.062 857.7,208.107 858.572,205.272 859.444,201.95 860.316,199.618 861.188,199.065 862.059,200.018 862.931,201.339 863.803,201.706 864.675,200.384 865.547,197.68 866.419,194.81 867.291,193.272 868.163,194.036 869.034,197.009 869.906,201.051 870.778,204.549 871.65,206.232 872.522,205.797 873.394,204.016 874.266,202.265 875.138,201.737 876.009,202.776 876.881,204.684 877.753,206.109 878.625,205.814 879.497,203.384 880.369,199.514 881.241,195.689 882.113,193.44 882.984,193.572 883.856,195.764 884.728,198.771 885.6,201.1 886.472,201.808 887.344,200.979 888.216,199.632 889.088,199.118 889.959,200.323 890.831,203.135 891.703,206.446 892.575,208.715 893.447,208.777 894.319,206.465 895.191,202.715 896.062,199.091 896.934,196.983 897.806,196.909 898.678,198.302 899.55,199.867 900.422,200.342 901.294,199.218 902.166,197.039 903.038,195.115 903.909,194.8 904.781,196.728 905.653,200.427 906.525,204.515 907.397,207.392 908.269,208.04 909.141,206.527 910.013,203.925 910.884,201.708 911.756,200.946 912.628,201.74 913.5,203.198 914.372,203.961 915.244,202.997 916.116,200.216 916.987,196.582 917.859,193.642 918.731,192.731 919.603,194.274 920.475,197.564 921.347,201.129 922.219,203.504 923.091,203.971 923.963,202.898 924.834,201.476 925.706,201.017 926.578,202.19 927.45,204.617 928.322,207.055 929.194,208.06 930.066,206.78 930.938,203.447 931.809,199.298 932.681,195.956 933.553,194.619 934.425,195.467 935.297,197.619 936.169,199.652 937.041,200.394 937.912,199.567 938.784,197.925 939.656,196.814 940.528,197.404 941.4,199.993 942.272,203.794 943.144,207.294 944.016,209.022 944.888,208.305 945.759,205.604 946.631,202.259 947.503,199.776 948.375,199.04 949.247,199.883 950.119,201.23 950.991,201.74 951.863,200.592 952.734,197.982 953.606,195.06 954.478,193.331 955.35,193.849 956.222,196.638 957.094,200.645 957.966,204.267 958.838,206.163 959.709,205.921 960.581,204.217 961.453,202.4 962.325,201.716 963.197,202.614 964.069,204.49 964.941,206.028 965.812,205.941 966.684,203.712 967.556,199.927 968.428,196.022 969.3,193.563 970.172,193.452 971.044,195.483 971.916,198.478 972.788,200.932 973.659,201.817 974.531,201.107 975.403,199.75 976.275,199.1 977.147,200.12 978.019,202.807 978.891,206.136 979.763,208.575 980.634,208.884 981.506,206.784 982.378,203.112 983.25,199.403 984.122,197.102 984.994,196.834 985.866,198.131 986.737,199.742 987.609,200.366 988.481,199.395 989.353,197.27 990.225,195.254 991.097,194.733 991.969,196.439 992.841,200.012 993.713,204.137 994.584,207.195 995.456,208.083 996.328,206.751 997.2,204.192 998.072,201.876 998.944,200.945 999.816,201.61 1000.69,203.061 1001.56,203.952 1002.43,203.183 1003.3,200.555 1004.18,196.941 1005.05,193.861 1005.92,192.71 1006.79,194.021 1007.66,197.195 1008.53,200.806 1009.41,203.349 1010.28,204.008 1011.15,203.044 1012.02,201.594 1012.89,200.993 1013.77,202.002 1014.64,204.349 1015.51,206.854 1016.38,208.056 1017.25,207.013 1018.12,203.844" stroke-width="1.5"/>
  </g>
  <clipPath id="cp001124408">
   <polygon points="0,408 1124,408 1124,0 0,0"/>
  </clipPath>
  <g clip-path="url(#cp001124408)">
   <polygon fill="#ffffff" points="921.792,170.586 921.792,196.932 1007.46,196.932 1007.46,170.586" shape-rendering="crispEdges"/>
   <polyline stroke="#262626" stroke-linejoin="miter" stroke-dasharray="16,0" stroke-linecap="square" fill="none" points="921.792,196.932 1007.46,196.932" stroke-width="0.5"/>
   <polyline stroke="#262626" stroke-linejoin="miter" stroke-dasharray="16,0" stroke-linecap="square" fill="none" points="921.792,170.586 1007.46,170.586" stroke-width="0.5"/>
   <polyline stroke="#262626" stroke-linejoin="miter" stroke-dasharray="16,0" stroke-linecap="square" fill="none" points="921.792,196.932 921.792,170.586" stroke-width="0.5"/>
   <polyline stroke="#262626" stroke-linejoin="miter" stroke-dasharray="16,0" stroke-linecap="square" fill="none" points="1007.46,196.932 1007.46,170.586" stroke-width="0.5"/>
   <polyline stroke="#0000ff" stroke-linejoin="round" stroke-linecap="butt" fill="none" points="927.125,183.759 953.792,183.759" stroke-width="1.5"/>
   <text font-size="12.6" xml:space="preserve" font-weight="normal" font-family="FreeSans" transform="translate(959.125,189.759) rotate(-0,-0,-6)" font-style="normal">
    <tspan y="-1" fill="rgb(0,0,0)" x="0 8 11 14 18 25 29 36 ">Filtered</tspan>
   </text>
  </g>
 </g>
</svg>
