<?xml version="1.0" standalone="no"?>
<!DOCTYPE svg PUBLIC "-//W3C//DTD SVG 20010904//EN"
 "http://www.w3.org/TR/2001/REC-SVG-20010904/DTD/svg10.dtd">
<svg version="1.0" xmlns="http://www.w3.org/2000/svg"
 width="170.000000pt" height="144.000000pt" viewBox="0 0 170.000000 144.000000"
 preserveAspectRatio="xMidYMid meet">

<g transform="translate(0.000000,144.000000) scale(0.100000,-0.100000)"
fill="#000000" stroke="none">
<path d="M790 1319 c-41 -7 -92 -27 -100 -38 -3 -4 -23 -20 -45 -37 -52 -38
-85 -73 -85 -90 0 -8 -11 -14 -26 -14 -21 0 -24 -4 -19 -20 5 -14 2 -20 -10
-20 -10 0 -24 -18 -36 -45 -11 -25 -28 -53 -38 -63 -44 -42 -31 -131 22 -158
44 -23 131 -98 170 -148 27 -34 33 -50 37 -110 4 -62 8 -72 29 -83 23 -11 27
-9 43 18 l18 30 33 -24 c34 -25 94 -57 109 -57 16 0 8 19 -12 25 -18 6 -18 8
-5 21 19 19 20 31 2 15 -10 -8 -17 -7 -26 2 -11 9 -14 9 -18 0 -6 -18 -28 -16
-43 2 -10 12 -10 19 1 33 38 46 43 82 12 82 -12 0 -13 -3 -4 -14 8 -10 9 -16
1 -21 -5 -3 -10 -16 -11 -28 0 -12 -3 -16 -6 -9 -4 10 -8 10 -19 1 -18 -15
-21 -12 -27 30 -6 35 -20 51 -49 51 -14 0 -15 5 -5 35 8 26 15 34 27 30 11 -3
21 3 29 19 7 13 27 31 44 39 l32 17 -37 -6 c-21 -4 -38 -3 -38 2 0 18 55 85
84 103 26 17 86 34 121 36 6 0 10 7 10 15 0 11 11 15 45 14 60 -2 151 -24 144
-35 -3 -5 14 -10 38 -11 39 -1 37 -2 -17 -8 -42 -5 -49 -7 -25 -9 32 -1 33 -3
17 -16 -18 -13 -18 -14 4 -17 16 -2 23 -11 26 -33 2 -16 10 -42 18 -57 7 -15
16 -41 20 -57 3 -16 15 -37 26 -47 17 -16 22 -16 29 -4 19 30 11 87 -17 121
l-28 33 25 -8 c87 -27 121 -30 148 -13 72 45 106 56 175 53 65 -3 69 -2 78 21
13 34 12 34 -18 28 -16 -4 -55 -10 -88 -13 -40 -5 -79 -19 -118 -41 -67 -38
-101 -41 -172 -11 -41 17 -44 19 -15 13 59 -12 89 -5 132 29 64 52 128 115
128 127 0 20 -33 11 -62 -16 -17 -16 -28 -21 -28 -13 0 10 -5 9 -18 -3 -25
-22 -77 -21 -110 1 -46 32 -87 42 -129 30 -62 -16 -65 -31 -6 -23 44 6 61 3
100 -16 45 -22 148 -36 138 -19 -3 5 2 10 10 14 8 3 15 1 15 -5 0 -6 5 -7 12
-3 7 4 8 3 4 -5 -4 -6 -12 -9 -17 -6 -5 4 -9 2 -9 -3 0 -6 -10 -10 -22 -9 -13
0 -43 -2 -66 -6 -24 -3 -41 -3 -38 1 13 12 -58 32 -115 32 -56 0 -139 18 -139
30 0 3 17 5 38 3 58 -5 8 14 -61 22 -32 4 -57 10 -57 14 0 3 11 40 25 81 22
67 29 78 60 92 19 8 35 14 35 12 0 -10 -76 -142 -93 -161 l-20 -23 39 0 c21
-1 59 -5 84 -10 48 -9 65 -5 34 8 -36 15 -84 47 -84 56 0 5 18 45 41 88 44 88
45 86 -21 122 -57 32 -188 49 -260 35z m213 -47 c54 -24 64 -38 38 -51 -26
-14 -67 -14 -93 0 -64 34 -238 3 -338 -60 l-25 -16 23 32 c23 32 138 107 177
115 48 10 176 -1 218 -20z m-33 -78 c12 -12 -27 -174 -42 -174 -11 0 -55 -37
-111 -95 -49 -51 -147 -204 -147 -230 0 -27 -17 -16 -92 55 -40 39 -87 81
-105 93 -47 32 -58 92 -24 126 11 11 17 22 14 25 -4 3 -1 6 5 6 7 0 12 -6 12
-13 0 -8 11 -24 25 -37 13 -12 24 -25 23 -29 -2 -21 7 -31 52 -54 64 -33 115
-29 106 9 -6 21 -3 24 19 24 19 0 24 5 23 23 0 12 2 33 6 47 5 20 -2 34 -39
75 -25 27 -45 55 -45 61 0 7 -3 19 -6 27 -5 15 -5 16 91 53 50 20 74 24 143
21 45 -2 87 -8 92 -13z m-410 -95 c0 -5 -4 -9 -10 -9 -5 0 -10 7 -10 16 0 8 5
12 10 9 6 -3 10 -10 10 -16z m68 -27 c-3 -22 1 -26 22 -27 21 0 25 -5 25 -30
1 -23 5 -30 20 -30 27 0 30 -27 6 -49 -25 -22 -39 -15 -91 48 -31 38 -40 57
-40 86 0 29 5 40 18 42 25 6 43 -11 40 -40z m-84 -50 c27 -55 75 -111 102
-118 13 -3 24 -12 24 -19 0 -22 -31 -26 -58 -7 -15 10 -35 22 -45 25 -15 6
-17 13 -12 38 5 22 4 29 -4 25 -35 -22 -82 45 -61 85 14 25 33 15 54 -29z m74
-76 c11 -14 7 -13 -12 4 -29 26 -66 89 -66 112 0 7 14 -11 30 -41 17 -30 38
-64 48 -75z m334 23 c-13 -5 -20 -13 -17 -19 3 -5 -2 -10 -12 -11 -10 0 -26
-2 -35 -4 -10 -2 -18 0 -18 3 0 9 70 40 90 40 8 1 5 -3 -8 -9z m248 -39 c0 -5
-4 -10 -9 -10 -6 0 -13 5 -16 10 -3 6 1 10 9 10 9 0 16 -4 16 -10z m180 -24
c0 -2 -8 -10 -17 -17 -16 -13 -17 -12 -4 4 13 16 21 21 21 13z m-180 -26 c0
-5 -4 -10 -10 -10 -5 0 -10 5 -10 10 0 6 5 10 10 10 6 0 10 -4 10 -10z m113
-17 c-7 -2 -19 -2 -25 0 -7 3 -2 5 12 5 14 0 19 -2 13 -5z m-47 -161 c4 -21 3
-32 -5 -32 -6 0 -11 8 -11 18 0 9 -3 28 -6 42 -5 18 -4 22 4 15 7 -6 15 -25
18 -43z m-542 -128 c8 -29 -9 -64 -29 -64 -9 0 -15 9 -15 23 0 12 -3 39 -7 61
l-6 38 26 -16 c14 -10 28 -28 31 -42z"/>
<path d="M941 904 c-19 -13 -40 -25 -45 -27 -20 -7 3 -20 31 -18 15 2 49 2 75
2 37 0 46 3 44 16 -2 9 -16 21 -32 26 -16 6 -31 13 -34 17 -3 4 -21 -3 -39
-16z m89 -22 c0 -4 -16 -6 -35 -4 -19 2 -35 6 -35 8 0 2 16 4 35 4 19 0 35 -4
35 -8z"/>
<path d="M1075 831 c3 -11 1 -22 -5 -26 -15 -9 -12 -25 5 -25 8 0 15 7 15 16
0 14 2 15 17 3 15 -12 16 -12 10 4 -5 14 -2 16 18 11 34 -8 31 2 -5 21 -41 21
-63 20 -55 -4z"/>
<path d="M778 735 c-31 -27 -36 -45 -13 -45 9 0 20 11 25 25 5 14 16 25 25 25
8 0 15 5 15 10 0 17 -24 10 -52 -15z"/>
<path d="M1065 624 c-8 -20 -15 -40 -15 -44 0 -13 -71 -71 -82 -68 -13 5 -58
-38 -58 -53 0 -6 5 -7 10 -4 6 4 55 -8 110 -26 78 -24 119 -32 187 -33 93 -1
138 8 114 23 -8 5 -28 6 -45 4 -69 -12 -191 -4 -241 16 -28 11 -41 20 -30 21
17 0 18 2 5 10 -33 22 13 31 123 25 114 -6 170 3 181 32 5 11 2 13 -11 8 -58
-25 -119 -31 -178 -19 -36 8 -61 9 -63 3 -2 -5 -8 -9 -13 -9 -6 0 -5 8 1 20 6
11 20 20 31 20 16 0 19 6 17 34 -1 21 -6 32 -14 29 -8 -3 -10 4 -7 21 8 37 -4
32 -22 -10z m32 -38 c-5 -16 -27 -19 -27 -3 0 7 7 14 15 14 9 0 14 -5 12 -11z
m-102 -96 c-3 -5 -14 -10 -23 -10 -15 0 -15 2 -2 10 20 13 33 13 25 0z"/>
<path d="M878 568 c-34 -12 -36 -24 -5 -23 25 0 47 12 47 26 0 11 -6 11 -42
-3z"/>
<path d="M0 500 c0 -5 12 -12 28 -16 126 -27 236 -87 307 -166 35 -38 48 -41
20 -4 -8 11 -15 23 -15 27 0 3 51 4 113 2 84 -3 125 -1 162 11 49 15 50 15 67
-7 10 -13 15 -31 12 -44 -9 -33 5 -63 27 -63 11 0 18 -4 15 -8 -2 -4 3 -18 12
-30 16 -20 19 -21 38 -7 14 9 23 29 27 57 4 32 14 49 38 69 27 22 30 28 20 47
-17 31 -13 50 9 55 17 4 16 4 -2 3 -20 -1 -23 -7 -23 -43 -1 -32 -7 -49 -28
-71 -17 -18 -27 -39 -27 -58 0 -34 -16 -55 -36 -47 -17 6 -18 49 -1 57 6 2 -4
4 -23 3 -46 -3 -53 26 -13 59 l28 24 -30 -2 c-27 -3 -30 0 -33 28 l-3 31 63 6
c58 4 149 37 105 37 -10 0 -27 -5 -38 -11 -11 -6 -46 -12 -77 -15 -39 -3 -62
-10 -72 -22 -8 -10 -26 -23 -40 -29 -51 -21 -337 -13 -323 10 3 5 1 7 -4 4 -6
-4 -33 8 -59 26 -56 38 -144 77 -173 77 -11 0 -23 5 -26 10 -8 13 -45 13 -45
0z"/>
<path d="M1285 303 c-26 -26 -27 -27 -22 -5 3 14 0 22 -8 22 -7 0 -15 -17 -19
-39 -3 -22 -12 -42 -18 -44 -7 -3 -3 -6 9 -6 15 -1 23 6 26 22 l4 22 8 -22 c4
-14 15 -23 28 -23 19 0 19 1 2 20 -20 22 -13 55 10 46 18 -6 31 12 17 26 -6 6
-19 0 -37 -19z"/>
<path d="M1116 298 c-8 -32 -7 -78 2 -78 4 0 8 23 9 50 2 54 -1 62 -11 28z"/>
<path d="M1026 301 c-4 -7 -5 -15 -2 -18 9 -9 19 4 14 18 -4 11 -6 11 -12 0z"/>
<path d="M970 279 c-18 -33 -9 -64 21 -67 18 -2 29 3 33 15 6 14 5 16 -5 6
-32 -32 -52 3 -29 48 7 12 7 19 1 19 -6 0 -15 -9 -21 -21z"/>
<path d="M1348 278 c-20 -16 -33 -58 -19 -58 6 0 11 9 11 19 0 11 5 23 11 27
7 4 9 -2 7 -16 -2 -13 2 -25 8 -27 5 -2 10 12 11 32 1 38 -4 42 -29 23z"/>
<path d="M1395 269 c-4 -12 -2 -26 3 -31 17 -17 42 -1 42 27 0 32 -35 35 -45
4z m33 -6 c-2 -9 -8 -18 -15 -20 -7 -3 -9 3 -6 16 6 25 26 28 21 4z"/>
<path d="M1478 282 c7 -5 10 -16 6 -25 -3 -10 -1 -17 6 -17 17 0 8 43 -10 47
-11 4 -12 2 -2 -5z"/>
<path d="M1045 249 c-9 -28 9 -46 30 -29 8 7 15 21 15 31 0 26 -37 25 -45 -2z
m35 2 c0 -6 -4 -13 -10 -16 -5 -3 -10 1 -10 9 0 9 5 16 10 16 6 0 10 -4 10 -9z"/>
<path d="M1145 240 c-3 -5 -1 -10 4 -10 6 0 11 5 11 10 0 6 -2 10 -4 10 -3 0
-8 -4 -11 -10z"/>
<path d="M0 193 c0 -24 122 -63 200 -63 30 -1 66 -7 80 -15 14 -8 50 -14 81
-15 32 0 70 -7 90 -17 25 -13 64 -18 148 -20 112 -2 115 -3 146 -33 48 -47 51
-35 5 18 -50 56 -88 81 -86 54 1 -13 -11 -18 -53 -23 -30 -4 -65 -3 -78 2 -14
5 -36 9 -51 9 -16 0 -22 3 -15 8 7 4 -8 18 -40 36 -29 15 -46 22 -39 15 6 -7
12 -19 12 -27 0 -24 -85 -7 -149 29 -31 17 -50 25 -43 18 45 -48 -48 -35 -190
26 -10 4 -18 3 -18 -2z"/>
<path d="M10 10 c-12 -8 -11 -10 8 -10 12 0 22 5 22 10 0 13 -11 13 -30 0z"/>
</g>
</svg>
