<?xml version="1.0" standalone="no"?>
<!DOCTYPE svg PUBLIC "-//W3C//DTD SVG 20010904//EN"
 "http://www.w3.org/TR/2001/REC-SVG-20010904/DTD/svg10.dtd">
<svg version="1.0" xmlns="http://www.w3.org/2000/svg"
 width="1270.000000pt" height="660.000000pt" viewBox="0 0 1270.000000 660.000000"
 preserveAspectRatio="xMidYMid meet">

<g transform="translate(0.000000,660.000000) scale(0.100000,-0.100000)"
fill="#000000" stroke="none">
<path d="M6238 6513 c-17 -20 -58 -109 -58 -127 0 -7 -14 -25 -31 -42 -29 -28
-34 -29 -146 -32 -114 -4 -117 -4 -144 -33 -23 -25 -35 -29 -78 -29 -28 0 -51
2 -51 5 0 2 15 28 33 57 45 71 49 85 31 103 -20 20 -35 19 -114 -5 -36 -10
-86 -22 -112 -25 -26 -3 -50 -10 -53 -16 -4 -5 -25 -9 -48 -9 -39 0 -81 -12
-184 -54 -31 -13 -46 -15 -62 -7 -33 18 -52 13 -112 -29 -32 -22 -62 -40 -67
-40 -5 0 -15 -7 -22 -15 -7 -8 -18 -15 -25 -15 -15 0 -179 -91 -183 -102 -2
-4 -8 -8 -14 -8 -6 0 -29 -15 -52 -33 -45 -36 -112 -77 -126 -77 -5 0 -21 11
-36 25 -15 14 -33 25 -41 25 -8 0 -33 -21 -56 -46 -23 -25 -53 -52 -67 -60
-63 -33 -300 -289 -300 -323 0 -6 -4 -11 -9 -11 -4 0 -20 -18 -35 -40 -25 -38
-28 -40 -65 -34 -33 5 -41 3 -50 -14 -6 -11 -11 -32 -11 -46 0 -49 -24 -54
-285 -60 -184 -4 -253 -9 -295 -22 -43 -13 -105 -18 -295 -20 -300 -4 -860
-16 -940 -20 -33 -2 -118 -6 -190 -9 -71 -4 -150 -13 -174 -21 -25 -8 -56 -14
-70 -14 -14 0 -42 -12 -64 -27 -40 -28 -43 -41 -22 -95 6 -14 2 -18 -18 -18
-14 0 -36 4 -49 9 -14 5 -111 12 -216 15 -106 4 -205 11 -220 17 -30 12 -270
39 -407 45 -75 4 -101 1 -159 -18 -88 -29 -117 -62 -97 -111 22 -55 51 -132
51 -136 0 -2 -46 0 -103 4 -83 5 -115 3 -163 -10 -75 -22 -124 -58 -124 -91 0
-62 117 -220 193 -260 41 -22 205 -74 232 -74 38 0 37 -13 -5 -61 -22 -24 -39
-55 -40 -68 -1 -53 67 -123 170 -175 30 -16 63 -32 72 -37 10 -5 32 -9 48 -9
17 0 52 -5 77 -11 44 -12 45 -13 37 -43 -27 -113 38 -225 162 -281 60 -27 286
-85 332 -85 31 0 32 -1 32 -43 0 -32 7 -52 27 -78 47 -59 115 -119 142 -126
14 -3 41 -14 60 -24 19 -10 60 -23 90 -29 31 -6 76 -15 101 -21 25 -5 95 -10
155 -11 61 0 148 -7 195 -15 117 -21 808 -19 919 2 97 19 149 11 163 -24 12
-29 27 -169 21 -188 -3 -6 -20 -11 -38 -11 -19 0 -38 -3 -44 -7 -16 -9 -13
-37 7 -65 20 -30 40 -80 52 -135 19 -86 59 -218 69 -228 6 -6 11 -19 11 -28 0
-9 7 -30 15 -45 8 -16 15 -38 15 -49 0 -11 11 -44 25 -73 29 -62 31 -94 10
-112 -24 -20 -17 -57 16 -91 18 -18 45 -60 61 -93 58 -122 116 -227 137 -252
12 -14 41 -51 65 -83 23 -32 62 -80 87 -106 36 -38 45 -56 51 -97 6 -49 11
-56 101 -143 53 -51 122 -109 154 -130 32 -22 63 -44 68 -51 10 -13 42 -32
130 -80 56 -30 67 -42 59 -66 -6 -21 29 -58 56 -58 20 0 69 -22 160 -72 53
-29 63 -54 25 -68 -33 -13 -61 1 -69 35 -8 33 -40 33 -97 0 -33 -18 -59 -25
-101 -25 -61 0 -67 5 -43 36 18 24 19 70 2 77 -7 3 -31 1 -53 -3 -124 -25
-149 -31 -197 -44 -28 -9 -92 -20 -142 -26 -128 -16 -268 -45 -294 -61 -14
-10 -21 -22 -19 -38 2 -21 12 -27 53 -38 78 -20 188 -43 209 -43 11 0 41 -18
67 -40 41 -34 56 -40 125 -50 173 -23 237 -41 218 -60 -15 -15 -111 -60 -127
-60 -9 0 -19 -5 -22 -10 -4 -6 -24 -18 -45 -26 -81 -32 -52 -87 51 -97 58 -5
128 -17 289 -48 30 -6 96 -23 147 -37 76 -21 97 -23 118 -14 27 12 32 40 14
74 -24 45 28 42 148 -9 17 -7 42 -13 56 -13 14 0 44 -9 67 -19 24 -11 49 -17
57 -14 20 8 16 50 -9 83 -14 19 -18 34 -12 40 14 14 325 17 350 3 22 -13 54
-109 54 -166 0 -18 7 -42 15 -54 41 -58 232 -106 351 -88 69 10 163 97 164
152 0 32 11 34 66 14 31 -12 56 -16 69 -10 11 4 64 8 117 8 l97 1 36 37 c19
20 35 40 35 44 0 4 7 15 16 23 19 20 174 22 216 3 46 -21 88 -90 91 -150 l2
-52 -45 -3 c-25 -2 -59 -9 -77 -17 -17 -8 -36 -15 -42 -15 -20 0 -85 -37 -108
-62 -20 -21 -47 -83 -60 -133 -7 -33 37 -89 77 -97 95 -18 166 -30 175 -30
172 18 190 22 202 38 28 39 8 74 -42 74 -17 0 -39 6 -49 13 -16 11 -7 15 66
26 133 20 166 38 215 115 21 33 25 48 21 96 -4 61 -42 128 -85 151 -32 17 -29
39 5 39 15 0 52 12 82 27 53 26 60 27 215 26 108 -2 183 -7 230 -19 39 -9 86
-18 105 -20 19 -3 118 -16 220 -29 102 -13 217 -27 255 -30 39 -3 93 -10 122
-16 42 -8 57 -7 82 6 44 22 41 53 -10 99 -23 20 -39 40 -35 43 10 10 146 6
232 -7 96 -15 166 -3 184 30 8 16 3 26 -30 60 -21 22 -44 40 -50 40 -14 0 -13
37 3 43 6 2 66 2 133 -1 118 -5 121 -4 137 18 15 22 15 26 -10 71 -17 32 -35
51 -54 58 -16 5 -29 14 -29 18 0 5 26 35 57 66 48 48 55 61 46 75 -9 14 -27
17 -113 16 -57 -1 -133 -6 -169 -12 -36 -6 -101 -14 -144 -16 l-78 -5 6 30
c10 47 -6 58 -76 52 -51 -5 -59 -4 -53 10 3 8 12 18 20 21 9 3 14 20 14 44 0
35 9 47 125 167 69 71 125 130 125 132 0 3 29 32 63 66 87 85 94 99 67 144
-24 41 -21 56 18 98 16 17 35 42 43 56 8 15 27 45 42 68 15 23 37 61 49 84 12
23 27 49 33 57 6 8 18 31 25 50 8 19 20 39 27 43 7 4 13 13 13 19 0 5 13 27
28 47 16 20 36 53 45 73 16 35 16 41 2 87 -15 45 -15 53 0 97 9 27 20 53 24
59 4 5 22 48 40 95 18 47 37 95 42 108 5 13 9 33 9 45 0 27 53 195 75 237 19
37 11 57 -25 65 -39 9 -56 30 -40 50 10 12 33 13 123 9 62 -3 135 -12 162 -19
37 -10 161 -15 460 -19 353 -5 422 -4 500 11 73 13 104 14 160 5 39 -5 95 -9
125 -7 82 5 274 26 283 32 4 2 28 8 55 13 26 4 67 16 92 25 106 39 116 46 153
109 30 53 42 64 75 74 22 7 47 12 57 12 31 0 160 33 175 45 8 7 23 15 33 18 9
4 17 10 17 15 0 5 26 19 58 31 41 15 76 39 122 84 76 72 100 116 100 181 l0
46 56 25 c31 14 63 25 71 25 23 0 122 68 166 115 127 135 138 159 92 213 l-25
30 26 21 c15 12 39 24 53 27 46 10 116 37 126 48 6 6 24 20 40 30 73 47 123
98 140 144 9 26 24 61 32 78 11 22 13 36 6 49 -11 18 -94 55 -125 55 -21 0
-87 29 -110 49 -10 8 -18 25 -18 38 0 12 -9 31 -19 41 -53 49 -70 62 -118 91
-36 22 -70 34 -115 39 -100 11 -815 2 -937 -13 l-63 -7 6 48 c4 27 3 54 -2 61
-9 14 -98 63 -113 63 -6 0 -22 9 -35 19 -81 63 -231 80 -839 91 -254 5 -478
13 -500 19 -22 6 -58 11 -81 11 -22 0 -44 4 -50 9 -9 8 -99 31 -209 52 -33 6
-127 15 -210 19 -82 5 -181 13 -220 19 -38 6 -133 10 -211 11 -134 0 -142 1
-175 25 -19 14 -46 42 -62 63 -51 69 -102 127 -151 172 -27 25 -67 62 -89 83
-28 26 -48 37 -71 37 -24 0 -48 15 -106 65 -41 36 -87 68 -102 72 -16 3 -28 9
-28 14 0 5 -6 9 -13 9 -7 0 -29 8 -50 19 -20 10 -57 25 -81 32 -26 8 -71 35
-107 66 -61 51 -91 64 -104 43 -3 -5 -13 -10 -20 -10 -16 0 -121 49 -174 81
-19 11 -75 36 -125 56 -50 20 -95 40 -100 44 -6 5 -18 9 -27 9 -10 0 -19 4
-21 10 -3 10 -134 60 -159 60 -23 0 -43 -43 -35 -77 22 -87 24 -81 -40 -82
-33 0 -81 2 -107 5 -46 6 -47 7 -28 21 26 18 27 49 2 63 -11 5 -45 10 -76 10
-57 0 -142 16 -160 31 -5 4 -28 43 -50 86 -51 100 -66 111 -97 76z m83 -211
c30 -58 37 -62 107 -62 l65 0 -62 -59 c-33 -32 -61 -63 -61 -69 0 -5 11 -40
25 -76 26 -69 31 -96 17 -96 -5 0 -33 18 -63 40 -87 65 -122 65 -193 0 -24
-22 -47 -40 -51 -40 -10 0 3 68 22 113 14 33 14 41 2 64 -8 14 -33 40 -56 57
-23 17 -41 36 -39 41 1 6 29 11 62 13 95 4 103 8 125 59 29 69 37 76 63 60 12
-8 28 -28 37 -45z m-661 4 c0 -24 -45 -52 -107 -65 -32 -7 -92 -24 -133 -36
-79 -25 -90 -24 -90 5 0 22 63 55 136 71 56 12 175 36 187 38 4 0 7 -5 7 -13z
m1383 -97 c48 -21 90 -39 93 -39 17 0 172 -80 184 -95 14 -16 11 -17 -40 -10
-51 7 -142 47 -230 101 -20 12 -51 25 -70 29 -39 8 -70 31 -70 52 0 18 18 13
133 -38z m-1790 -31 c8 -24 -5 -38 -34 -38 -30 0 -34 6 -23 34 7 19 50 21 57
4z m642 -14 c36 -9 65 -22 65 -28 0 -46 -304 -126 -480 -126 -52 0 -60 2 -60
19 0 17 11 20 100 26 103 7 138 20 127 49 -5 13 -24 16 -109 17 -57 1 -92 4
-78 6 14 3 31 10 39 16 14 12 182 33 279 36 29 0 82 -6 117 -15z m-775 -9 c0
-17 -67 -65 -92 -65 -9 0 -21 -6 -25 -13 -4 -7 -19 -18 -33 -25 -78 -38 -125
-69 -174 -114 -42 -40 -66 -48 -66 -23 0 19 76 92 105 101 11 4 36 19 55 34
19 15 60 40 90 55 30 15 71 36 90 46 43 23 50 23 50 4z m1744 -15 c91 -11 157
-26 166 -40 6 -9 144 -74 185 -88 26 -8 28 -11 11 -17 -10 -5 -40 -1 -70 8
-70 22 -172 32 -180 18 -14 -22 13 -51 49 -51 51 0 145 -50 145 -76 0 -11
-162 6 -209 22 -24 8 -56 23 -70 33 -36 26 -139 81 -151 81 -6 0 -42 24 -81
53 l-70 52 68 6 c37 3 79 6 92 7 14 1 65 -3 115 -8z m-326 -76 c13 -9 35 -27
49 -40 14 -13 32 -24 39 -24 15 0 54 -30 54 -42 0 -5 -7 -8 -15 -8 -21 0 -116
-52 -122 -67 -9 -22 -23 -14 -23 13 0 14 -5 35 -12 47 -19 35 -38 90 -38 115
0 27 34 30 68 6z m-1266 -6 c29 -6 55 -13 57 -15 9 -7 -75 -85 -104 -97 -16
-7 -64 -41 -106 -74 -43 -34 -82 -62 -89 -62 -6 0 -28 -11 -48 -25 -37 -25
-72 -33 -72 -16 0 13 67 82 113 116 45 34 49 72 7 67 -27 -4 -89 -41 -130 -77
-31 -28 -57 -37 -66 -24 -7 12 34 59 51 59 6 0 22 12 36 26 38 42 219 126 286
133 6 0 35 -4 65 -11z m768 -11 c0 -13 -4 -27 -9 -32 -11 -13 -61 -157 -61
-178 0 -9 8 -21 18 -26 20 -11 62 -4 62 10 0 5 5 9 10 9 6 0 29 12 53 27 42
28 65 41 113 67 23 13 31 12 63 -2 20 -8 62 -35 94 -59 59 -44 70 -50 141 -73
31 -10 46 -10 77 0 40 13 69 7 229 -46 25 -9 94 -25 153 -37 86 -18 114 -28
135 -48 35 -34 57 -45 110 -53 24 -3 51 -10 60 -15 9 -5 34 -14 56 -21 21 -7
47 -21 57 -31 11 -11 67 -43 125 -72 59 -28 109 -58 112 -67 6 -19 43 -60 53
-60 21 0 109 -65 109 -81 0 -18 -48 -64 -84 -80 -56 -26 -139 -83 -192 -132
-41 -38 -85 -129 -100 -207 -10 -50 -50 -97 -111 -132 -29 -16 -67 -47 -85
-69 -35 -42 -122 -89 -166 -89 -38 0 -125 -32 -147 -54 -14 -14 -28 -17 -59
-13 -56 8 -76 36 -142 202 -32 80 -65 137 -91 157 -23 17 -73 83 -73 97 0 5
-6 14 -14 18 -8 4 -33 40 -56 78 -23 39 -53 81 -66 95 -13 14 -30 43 -37 65
-8 22 -29 64 -46 93 -17 29 -31 57 -31 63 0 5 -12 32 -27 60 -28 51 -67 84
-136 113 -17 8 -48 21 -69 30 -20 9 -42 16 -50 16 -8 0 -20 6 -27 13 -9 9 -67
12 -219 12 -114 1 -212 4 -218 7 -14 9 -131 -8 -204 -28 -91 -26 -132 -44
-181 -80 -26 -19 -52 -34 -57 -34 -6 0 -17 -10 -23 -22 -19 -36 -110 -148
-120 -148 -5 0 -27 -11 -48 -24 -79 -51 -138 -45 -232 24 -36 25 -37 28 -21
43 9 8 72 43 140 77 129 65 162 90 162 125 0 21 44 45 82 45 9 0 29 6 45 14
15 8 62 29 103 46 41 18 89 38 105 45 17 7 47 19 69 26 47 17 55 33 33 72 -10
16 -15 32 -12 37 2 4 75 8 162 8 207 2 359 8 372 17 18 11 12 76 -11 113 l-21
35 22 18 c13 11 28 19 35 19 6 0 22 9 36 20 33 26 50 25 50 -3z m1399 -26 c18
-12 7 -41 -16 -41 -19 0 -46 34 -36 44 9 9 36 7 52 -3z m125 -35 c12 -16 120
-76 136 -76 10 0 45 -15 148 -62 32 -15 42 -25 42 -43 0 -13 -5 -27 -10 -30
-17 -10 -141 34 -184 66 -22 16 -43 29 -47 29 -5 0 -29 14 -54 31 -41 28 -65
61 -65 90 0 14 21 11 34 -5z m-1779 -42 c67 -28 44 -32 -219 -41 -149 -5 -178
-3 -174 8 6 18 44 26 133 29 39 1 84 6 100 10 51 13 121 11 160 -6z m1599 -13
c23 -11 48 -22 56 -25 8 -4 31 -16 50 -27 19 -12 70 -39 113 -61 42 -22 82
-48 88 -60 11 -21 3 -40 -9 -21 -12 19 -88 43 -100 31 -20 -20 1 -46 74 -93
41 -26 79 -54 84 -61 18 -21 -5 -25 -50 -9 -23 8 -54 15 -69 15 -14 0 -35 7
-45 15 -11 8 -26 15 -34 15 -23 0 -193 142 -221 185 -22 35 -51 91 -51 100 0
5 31 12 54 14 10 0 37 -8 60 -18z m-491 -61 c18 -10 52 -24 77 -31 25 -7 49
-16 55 -21 5 -4 19 -8 31 -8 13 0 26 -5 30 -11 12 -20 -208 5 -241 27 -11 8
-29 14 -40 14 -12 0 -25 4 -30 9 -6 5 -28 14 -50 22 -38 12 -39 13 -15 20 39
12 148 -1 183 -21z m-2378 -7 c-3 -16 -23 -52 -43 -82 -32 -46 -76 -89 -265
-260 -21 -19 -30 -22 -39 -13 -9 9 -5 19 18 44 17 18 47 58 67 89 20 31 52 68
71 83 20 15 43 41 52 57 8 17 30 37 47 44 18 8 41 25 52 39 28 35 49 34 40 -1z
m153 0 c2 -14 -4 -26 -17 -32 -29 -16 -51 -3 -51 31 0 27 2 29 33 26 24 -2 33
-8 35 -25z m642 12 c10 -12 9 -20 -4 -40 -18 -28 -28 -30 -57 -15 -18 10 -26
50 -12 63 12 13 60 7 73 -8z m1920 -75 c0 -30 -11 -37 -44 -24 -31 12 -10 54
26 54 13 0 18 -8 18 -30z m-2434 -31 c3 -6 -6 -23 -20 -38 -14 -15 -26 -32
-26 -39 0 -7 -4 -12 -8 -12 -5 0 -23 -30 -42 -66 -34 -68 -53 -85 -168 -152
-145 -83 -167 -81 -74 7 39 39 72 76 72 84 0 25 -25 26 -66 1 -65 -40 -137
-24 -83 18 13 11 57 50 97 86 86 78 86 78 143 92 24 6 58 15 74 20 44 12 93
12 101 -1z m454 -4 c10 -12 7 -16 -16 -26 -16 -6 -47 -19 -69 -29 -89 -41
-133 -53 -200 -56 l-70 -4 45 20 c25 11 52 24 60 30 8 6 24 14 35 19 11 5 36
21 55 35 42 30 139 37 160 11z m2756 -32 c20 -27 17 -33 -15 -33 -35 0 -48 15
-31 35 16 20 30 19 46 -2z m-648 -37 c33 -17 80 -66 64 -66 -7 0 -29 11 -50
24 -20 12 -58 26 -85 30 -26 4 -45 11 -42 17 9 14 83 11 113 -5z m505 -1 c20
-8 51 -28 69 -44 18 -15 49 -36 68 -46 19 -10 62 -45 96 -79 33 -33 89 -85
123 -115 34 -29 60 -55 58 -58 -5 -5 -100 20 -107 28 -22 27 -124 99 -140 99
-38 0 -20 -32 70 -127 71 -75 90 -101 90 -124 0 -16 -3 -29 -7 -29 -3 0 -34
26 -67 58 -100 93 -148 136 -172 152 -35 24 -68 78 -103 168 -31 80 -39 132
-22 132 5 0 25 -7 44 -15z m524 -330 c36 -54 47 -80 50 -120 4 -47 3 -49 -11
-31 -9 11 -16 25 -16 31 0 13 -29 74 -42 90 -5 6 -22 31 -38 56 -17 26 -47 60
-68 77 -85 69 -141 129 -148 157 -6 25 9 14 110 -80 69 -65 136 -139 163 -180z
m-3557 240 c0 -33 -2 -35 -35 -35 -39 0 -43 10 -17 45 27 37 52 32 52 -10z
m2705 -23 c11 -2 25 -8 30 -12 6 -4 24 -11 40 -14 17 -4 41 -15 55 -26 l25
-20 -26 0 c-15 0 -43 7 -63 15 -39 17 -135 83 -101 70 11 -4 29 -10 40 -13z
m-1820 -73 c136 9 232 -7 329 -53 39 -18 81 -37 93 -40 37 -12 47 -32 23 -49
-27 -19 -19 -37 36 -82 65 -54 57 -89 -13 -60 -35 15 -39 15 -50 -1 -7 -10
-13 -21 -13 -26 0 -19 45 -45 109 -61 60 -16 76 -25 114 -66 52 -55 71 -90 81
-145 6 -33 4 -42 -20 -67 -28 -30 -27 -55 3 -66 10 -3 34 -19 54 -34 20 -16
64 -40 97 -55 58 -25 63 -30 92 -90 16 -35 30 -70 30 -77 0 -7 13 -28 30 -47
16 -19 29 -38 30 -42 0 -15 -40 -8 -72 12 -46 28 -78 27 -78 -3 0 -34 64 -80
132 -96 40 -10 65 -23 87 -47 53 -55 32 -79 -40 -45 -48 24 -85 27 -92 9 -2
-7 -2 -28 1 -45 7 -45 -10 -42 -54 12 -39 48 -69 57 -79 25 -7 -23 2 -60 16
-60 5 0 9 -6 9 -13 0 -21 40 -53 107 -87 35 -17 78 -43 95 -58 18 -15 50 -40
70 -55 41 -30 108 -98 108 -109 0 -4 14 -36 30 -70 33 -67 38 -114 16 -144
-14 -19 -15 -19 -34 1 -10 11 -39 39 -64 62 -58 52 -84 100 -102 184 -8 39
-44 79 -71 79 -33 0 -40 -31 -16 -77 25 -49 37 -128 21 -138 -13 -8 -81 35
-119 75 -14 15 -34 30 -44 33 -25 9 -39 -30 -22 -63 24 -46 131 -120 174 -120
51 0 137 -31 159 -57 56 -66 68 -82 85 -111 9 -17 17 -51 17 -76 0 -38 -3 -46
-18 -46 -23 0 -39 19 -72 83 -35 67 -65 99 -93 95 -34 -5 -32 -41 7 -121 41
-82 47 -127 17 -127 -20 0 -77 36 -129 81 -27 24 -37 27 -52 19 -11 -6 -20
-18 -20 -27 0 -29 -78 64 -91 109 -16 54 -22 62 -48 53 -26 -8 -29 -61 -6
-124 25 -72 121 -156 168 -147 20 4 39 -1 65 -19 20 -14 54 -28 75 -32 41 -6
55 -18 32 -27 -32 -12 -16 -44 37 -73 77 -42 72 -50 -29 -45 l-88 3 -63 -44
c-35 -25 -77 -64 -93 -88 l-29 -44 0 36 c0 46 51 151 86 176 20 15 25 25 20
41 -5 13 -16 22 -27 22 -21 0 -81 -54 -110 -99 -20 -32 -34 -22 -54 40 -29 87
-70 75 -61 -18 3 -31 18 -79 40 -123 42 -82 43 -94 16 -113 -18 -13 -20 -21
-14 -86 7 -74 -5 -139 -33 -172 -7 -8 -13 -19 -13 -23 0 -4 -9 -19 -20 -33
-24 -31 -12 -63 24 -63 23 0 63 48 96 114 14 28 15 28 18 7 5 -32 -16 -78 -46
-102 -24 -19 -26 -24 -23 -104 2 -82 -11 -133 -39 -150 -15 -9 -39 13 -55 52
-10 25 -20 33 -38 33 -21 0 -26 -6 -32 -37 -9 -47 -22 -73 -38 -73 -7 0 -25
-7 -40 -15 -25 -13 -29 -13 -35 3 -4 9 -7 46 -7 82 0 57 4 71 34 118 37 56 41
58 59 40 8 -8 15 -8 27 2 17 14 19 51 6 112 -26 118 -28 152 -14 218 39 169
55 309 42 362 -10 45 -9 50 15 79 30 36 31 38 11 66 -12 17 -15 50 -13 152 1
98 -2 134 -12 147 -8 9 -19 26 -25 38 -6 12 -22 22 -38 24 -25 3 -27 1 -27
-35 1 -21 7 -49 15 -63 19 -33 21 -190 2 -190 -20 0 -57 30 -57 46 0 8 -7 17
-15 20 -8 4 -15 11 -15 16 0 6 -19 49 -42 97 -35 71 -42 96 -42 141 1 35 7 66
18 82 23 35 18 72 -10 76 -38 5 -71 -57 -103 -194 -10 -43 -10 -58 3 -88 12
-29 14 -58 9 -131 -6 -89 -7 -93 -27 -86 -12 5 -27 21 -35 37 -8 16 -20 40
-26 54 -27 56 -56 312 -36 324 6 4 11 25 11 46 0 22 7 59 15 84 18 52 12 76
-20 76 -30 0 -43 -18 -54 -71 -6 -24 -15 -61 -20 -81 -6 -21 -15 -54 -20 -73
-10 -40 -117 -163 -142 -165 -8 0 -18 50 -25 127 -5 46 -2 59 35 127 48 91 67
122 98 159 31 39 31 77 -1 77 -16 0 -40 -18 -74 -55 -28 -30 -53 -55 -56 -55
-13 0 -5 51 14 92 54 113 85 162 109 168 14 3 39 25 56 51 18 24 46 60 64 79
17 19 34 43 37 54 8 26 -23 49 -56 42 -22 -4 -27 0 -37 32 -6 20 -15 45 -18
55 -5 13 -2 17 13 17 28 0 35 15 28 55 -7 37 -39 75 -98 120 -45 33 -48 52
-10 60 15 4 36 8 46 10 11 2 38 -5 62 -15 37 -17 53 -18 130 -11 128 13 185
42 168 86 -6 15 -24 20 -54 16 -8 -1 -100 -1 -204 -1 -140 0 -197 -4 -220 -14
-58 -26 -163 -34 -368 -25 -106 4 -135 13 -80 24 15 3 54 13 87 21 33 9 76 20
95 24 19 5 70 11 113 14 91 7 97 9 97 41 0 27 -26 45 -64 45 -26 0 -35 14 -16
25 18 11 11 35 -11 35 -18 0 -20 -4 -15 -25 6 -23 4 -25 -29 -25 -20 0 -68 5
-106 12 -59 9 -79 9 -122 -4 -29 -9 -74 -19 -102 -22 -85 -11 -148 -28 -195
-52 -25 -13 -52 -24 -61 -24 -9 0 -24 -9 -33 -19 -10 -11 -24 -17 -32 -14 -18
7 -17 42 5 126 13 51 25 75 47 92 16 14 35 24 41 25 7 0 27 9 45 20 18 11 40
20 48 20 8 0 33 14 55 31 38 29 41 29 55 12 58 -70 156 -67 130 3 -10 25 -83
66 -104 58 -22 -8 -8 34 22 68 25 28 97 68 122 68 18 0 78 19 116 37 34 16
222 34 269 25 17 -3 44 -4 60 -3z m-1427 -21 c-2 -6 -10 -14 -16 -16 -7 -2
-10 2 -6 12 7 18 28 22 22 4z m476 3 c15 -6 11 -10 -23 -26 -23 -10 -41 -22
-41 -27 0 -4 -5 -8 -11 -8 -6 0 -30 -13 -54 -30 -24 -16 -47 -30 -51 -30 -4 0
-22 -11 -40 -25 -18 -14 -38 -25 -44 -25 -6 0 -13 -7 -16 -15 -8 -19 -79 -39
-100 -27 -12 7 -2 16 44 45 33 20 66 37 74 37 8 0 23 7 33 15 29 22 110 76
153 102 40 24 47 26 76 14z m3041 -10 c7 -23 -3 -51 -20 -51 -20 0 -37 27 -30
50 8 25 42 26 50 1z m-3675 -72 c0 -17 -20 -49 -31 -49 -16 0 -22 29 -9 45 14
17 40 20 40 4z m180 -26 c0 -9 -44 -121 -71 -178 -10 -22 -27 -50 -38 -62 -11
-11 -37 -47 -58 -78 -21 -31 -50 -74 -64 -96 -14 -21 -43 -55 -64 -76 -33 -34
-36 -36 -30 -13 4 14 13 32 20 40 7 8 25 39 40 69 28 56 24 79 -11 67 -17 -6
-73 -72 -99 -116 -20 -33 -37 -50 -52 -50 -27 0 -7 57 52 149 30 47 67 100 83
117 15 18 41 52 56 77 16 25 40 50 54 57 14 6 42 24 61 39 58 45 121 73 121
54z m-300 -65 c0 -35 -8 -53 -40 -96 -22 -29 -40 -55 -40 -58 0 -4 -20 -36
-43 -73 -24 -36 -50 -88 -57 -116 -13 -49 -35 -85 -52 -85 -15 0 -8 83 13 140
14 39 39 76 79 118 60 64 90 111 90 144 0 20 30 67 43 68 4 0 7 -19 7 -42z
m3922 1 c75 -44 228 -193 228 -221 0 -10 -2 -18 -5 -18 -13 0 -114 77 -150
115 -22 22 -65 60 -96 83 -31 23 -64 51 -74 62 -18 19 -17 20 5 20 13 0 55
-18 92 -41z m1183 -8 l70 -20 -213 0 c-141 -1 -220 3 -235 10 -18 10 -147 14
-217 7 -17 -2 -25 3 -28 16 -4 18 6 18 275 13 236 -5 289 -9 348 -26z m-5272
-1 c40 0 36 -37 -11 -87 -47 -52 -73 -56 -309 -51 -176 3 -179 4 -222 32 -33
21 -41 30 -30 37 8 5 20 9 28 9 8 0 22 6 30 14 9 7 54 19 101 26 86 14 328 29
365 23 11 -1 32 -3 48 -3z m-705 -56 c12 -2 22 -10 22 -18 0 -7 11 -29 24 -49
26 -37 24 -52 -3 -38 -27 14 -134 22 -456 33 -459 16 -615 12 -615 -18 0 -25
51 -36 160 -33 87 1 652 -17 755 -26 17 -1 47 -3 68 -3 40 -2 48 -24 11 -30
-10 -2 -48 -18 -84 -35 -61 -29 -75 -32 -210 -38 -176 -8 -278 3 -301 32 -13
17 -22 19 -52 14 -21 -4 -40 -11 -43 -16 -3 -5 -36 -9 -74 -9 -51 0 -69 4 -74
15 -7 19 -42 19 -125 -1 -60 -15 -74 -15 -148 -1 -93 18 -176 55 -228 102 -46
43 -45 62 3 70 20 4 48 11 62 17 33 14 316 32 465 29 66 -1 140 3 165 8 43 9
631 5 678 -5z m1504 -30 c64 -33 103 -68 93 -84 -6 -10 -40 -12 -139 -7 -177
8 -192 15 -138 64 27 25 81 50 115 52 10 0 41 -11 69 -25z m4003 16 c254 -29
350 -59 420 -128 40 -40 42 -52 18 -93 -13 -22 -25 -29 -48 -29 -17 0 -36 -5
-42 -11 -7 -7 -28 -9 -55 -5 -116 18 -148 18 -154 2 -3 -9 -10 -13 -15 -10
-14 8 -49 90 -49 115 0 31 -55 95 -87 102 -35 8 -93 43 -93 57 0 12 -5 12 105
0z m-316 -58 c25 -26 60 -57 76 -67 44 -29 145 -134 145 -151 0 -8 10 -34 22
-57 22 -42 36 -75 64 -157 9 -25 23 -53 31 -62 8 -9 13 -24 11 -34 -2 -14 -9
-11 -35 17 -18 18 -33 38 -33 44 0 7 -9 20 -20 30 -11 10 -20 25 -20 33 0 23
-66 83 -84 76 -25 -10 -19 -34 24 -99 22 -33 40 -68 40 -77 0 -9 5 -28 11 -41
7 -16 8 -31 2 -41 -8 -14 -11 -13 -23 11 -8 15 -29 44 -48 65 -34 36 -52 62
-71 106 -6 12 -15 22 -20 22 -9 0 -91 132 -91 147 0 5 -11 24 -24 44 -19 28
-26 55 -32 122 -11 133 2 144 75 69z m-3959 2 c0 -19 -5 -24 -25 -24 -20 0
-25 5 -25 24 0 13 6 26 13 29 22 7 37 -4 37 -29z m4924 24 c514 3 698 2 936
-4 146 -4 276 -11 290 -16 14 -6 70 -11 126 -12 102 -3 175 -20 239 -58 17
-10 39 -22 50 -27 29 -13 48 -38 42 -55 -14 -36 -85 -73 -164 -85 -43 -7 -112
-19 -154 -27 -42 -8 -100 -14 -129 -14 -69 0 -179 19 -205 36 -37 23 -64 21
-88 -9 l-22 -29 -160 -1 -160 -2 -65 37 c-113 64 -105 66 172 61 495 -11 608
-7 608 22 0 23 -36 26 -660 44 -168 5 -341 14 -385 20 -44 6 -138 15 -210 21
-177 15 -216 25 -260 64 -39 35 -34 49 14 39 13 -3 96 -5 185 -5z m-1344 -79
c38 -23 71 -48 74 -56 3 -8 3 -39 0 -69 -5 -39 -13 -59 -28 -69 -27 -20 -29
-19 -65 11 -42 35 -56 21 -64 -62 -4 -38 -13 -74 -22 -84 -8 -9 -15 -23 -15
-31 0 -20 -20 -39 -41 -39 -27 0 -49 -28 -49 -62 0 -24 -10 -40 -42 -70 -48
-44 -52 -45 -64 -18 l-9 21 -23 -21 c-15 -14 -22 -32 -22 -59 0 -23 -9 -51
-23 -72 -22 -33 -26 -34 -99 -39 -73 -5 -79 -7 -115 -42 -42 -41 -63 -47 -83
-23 -20 24 -51 18 -151 -34 -79 -41 -94 -52 -94 -72 0 -34 31 -35 94 -3 42 20
61 25 89 19 21 -4 58 -8 84 -8 42 -2 51 2 86 36 36 35 41 37 103 37 58 0 70 4
107 32 23 18 42 40 42 49 0 18 25 43 68 67 17 9 50 41 74 70 23 29 62 77 86
105 24 29 57 79 74 113 28 56 35 62 101 94 l70 34 34 -40 c59 -67 114 -137
111 -139 -2 -2 -29 2 -61 8 -51 9 -60 8 -75 -7 -16 -16 -16 -18 7 -37 13 -10
31 -19 41 -19 30 0 200 -119 223 -157 4 -5 -19 -38 -50 -72 -49 -53 -61 -61
-93 -61 -29 0 -44 8 -75 41 -61 62 -101 84 -131 70 -13 -6 -24 -15 -24 -19 0
-11 33 -47 75 -82 60 -50 110 -136 94 -161 -5 -8 -9 -23 -9 -34 0 -11 -12 -33
-25 -49 -23 -29 -24 -30 -67 -16 -28 10 -65 36 -107 77 -35 35 -68 63 -75 63
-6 0 -26 13 -44 30 -40 36 -80 49 -93 29 -14 -22 -12 -25 34 -60 56 -44 106
-95 141 -147 25 -37 28 -48 23 -93 -8 -62 -19 -77 -63 -85 -42 -8 -70 13 -80
60 -12 59 -96 174 -126 176 -4 0 -29 14 -55 30 -53 34 -68 37 -77 15 -4 -11
20 -42 71 -95 43 -44 83 -90 90 -102 20 -36 15 -78 -13 -115 -24 -31 -28 -33
-89 -33 l-64 0 -21 66 c-17 57 -30 77 -92 140 -65 68 -94 85 -111 68 -9 -9 40
-93 71 -124 60 -59 74 -153 30 -199 -22 -25 -30 -25 -82 -7 -44 15 -56 30 -56
68 0 31 -36 132 -53 151 -7 7 -17 21 -23 32 -19 33 -42 42 -61 22 -17 -17 -17
-19 3 -60 43 -87 54 -119 54 -157 0 -31 -4 -40 -22 -46 -13 -3 -31 -13 -40
-21 -26 -23 -41 -12 -81 67 -32 62 -37 82 -37 139 0 39 -6 78 -15 95 -8 15
-15 35 -15 43 0 8 -13 35 -30 59 -31 46 -64 142 -58 170 5 25 142 94 185 94
21 0 52 4 69 9 16 5 50 6 74 2 91 -13 119 8 81 60 -26 35 -15 59 25 59 41 0
74 19 95 55 12 19 32 38 45 41 34 9 44 33 37 91 -6 53 7 92 55 163 27 40 47
59 131 120 34 25 61 48 61 52 0 5 5 8 11 8 5 0 27 11 47 25 20 14 42 25 50 25
7 0 44 -19 82 -41z m610 16 c16 -19 6 -45 -18 -45 -25 0 -46 25 -38 45 7 19
40 19 56 0z m-7693 -16 c13 -5 55 -9 92 -9 47 0 100 -9 169 -30 106 -31 137
-36 146 -21 13 21 59 21 101 1 39 -19 50 -20 135 -10 99 11 186 5 210 -15 34
-28 117 -65 147 -65 17 0 35 -4 38 -10 8 -13 -125 -12 -185 1 -25 5 -101 14
-170 19 -69 5 -181 17 -250 25 -69 8 -170 20 -225 25 -55 6 -106 13 -113 15
-24 9 -62 -6 -62 -24 0 -29 49 -45 185 -58 72 -6 168 -17 215 -22 47 -6 157
-17 245 -25 88 -8 223 -24 300 -35 77 -12 174 -21 215 -21 41 0 89 -4 106 -9
18 -5 198 -12 400 -15 349 -6 464 -16 464 -38 0 -5 -25 -20 -55 -33 -46 -21
-64 -24 -116 -18 -35 3 -88 1 -127 -7 -52 -9 -104 -10 -233 -1 -91 6 -311 16
-490 21 -302 9 -568 26 -579 36 -2 3 1 14 8 24 32 52 3 67 -80 40 -69 -23
-246 -28 -295 -9 -15 6 -68 15 -117 20 -49 5 -94 13 -100 18 -6 5 -36 14 -66
22 -30 7 -71 23 -90 35 -43 26 -140 130 -140 149 0 14 41 29 105 38 41 7 183
-3 212 -14z m2865 -51 c15 -26 -36 -149 -78 -189 l-23 -22 -30 32 c-46 49 -64
38 -78 -44 l-9 -50 -114 1 c-134 1 -182 12 -255 59 -53 34 -75 60 -75 89 0 25
141 87 275 121 45 11 251 24 319 19 33 -2 63 -10 68 -16z m548 -15 c-1 -24
-175 -232 -203 -242 -34 -13 -33 -5 9 45 21 25 53 67 70 93 38 57 97 121 113
121 6 0 11 -8 11 -17z m4382 -32 c3 -26 14 -68 26 -92 77 -165 112 -263 112
-316 0 -57 -22 -57 -40 0 -7 23 -18 51 -25 62 -6 11 -24 56 -39 100 -16 44
-41 107 -57 141 -16 34 -29 71 -29 83 0 21 28 70 41 71 4 0 9 -22 11 -49z
m-4252 36 c0 -2 -10 -12 -21 -23 -22 -19 -22 -19 -10 4 10 18 31 31 31 19z
m4852 -13 c27 -9 71 -38 104 -68 l58 -52 -27 -46 c-24 -41 -32 -47 -77 -57
-28 -6 -75 -11 -104 -11 -45 0 -56 4 -81 30 -16 17 -34 30 -39 30 -6 0 -24 10
-40 23 l-29 23 54 12 c63 14 83 38 81 94 -2 35 0 38 26 38 16 0 49 -7 74 -16z
m-4584 -10 c12 -8 22 -24 22 -35 0 -16 -7 -19 -53 -19 -29 0 -77 -7 -106 -16
-64 -19 -81 -14 -81 23 0 43 39 62 125 63 48 0 78 -5 93 -16z m4819 -30 c-3
-3 -12 -4 -19 -1 -8 3 -5 6 6 6 11 1 17 -2 13 -5z m-1262 -31 c-9 -35 -9 -36
-34 -28 -36 11 -18 55 22 55 16 0 18 -5 12 -27z m662 -81 c80 -19 96 -28 168
-91 44 -38 43 -66 -2 -97 -33 -22 -170 -41 -185 -26 -4 4 -28 48 -53 96 -31
62 -45 101 -45 129 0 38 1 39 18 24 10 -9 54 -25 99 -35z m769 33 c16 -8 41
-15 56 -15 20 0 48 -19 105 -74 67 -64 76 -76 64 -90 -7 -9 -21 -16 -31 -16
-9 0 -35 -13 -56 -28 -43 -31 -68 -39 -164 -54 -144 -21 -137 -22 -247 32 -56
27 -107 50 -112 50 -6 0 -11 5 -11 10 0 6 10 10 23 10 39 0 141 40 170 68 15
14 36 45 48 68 11 24 26 45 32 48 26 10 96 5 123 -9z m2405 -1 c8 -6 25 -14
39 -18 34 -9 94 -62 85 -75 -8 -13 -71 -41 -92 -41 -8 0 -29 -6 -46 -14 -57
-26 -127 -46 -160 -46 -18 0 -38 -5 -44 -11 -13 -13 -96 -26 -268 -41 -159
-14 -222 -14 -348 0 -54 6 -105 8 -112 6 -8 -3 -15 -18 -17 -32 l-3 -27 -165
0 c-102 0 -182 5 -210 13 -25 6 -76 13 -114 15 -67 2 -70 1 -76 -23 -5 -22
-13 -26 -60 -32 -30 -3 -145 -6 -256 -7 -162 -1 -204 2 -220 14 -25 19 -58 19
-74 0 -13 -16 -140 -22 -140 -7 0 4 17 16 37 27 20 11 44 27 52 36 37 39 116
51 381 59 140 4 325 15 410 25 170 18 199 20 405 34 372 26 363 24 352 54 -3
8 -23 17 -44 20 -37 7 -309 -10 -324 -19 -5 -3 -61 -7 -126 -10 -65 -2 -161
-9 -213 -14 -123 -12 -314 -22 -509 -26 -86 -2 -172 -5 -191 -6 -26 -2 -35 1
-35 12 0 17 86 24 470 34 234 7 333 20 490 66 33 10 101 21 150 25 50 5 119
11 155 15 112 11 805 6 821 -6z m-7714 -9 c5 -17 -36 -75 -60 -84 -42 -16 -87
-21 -87 -10 0 6 12 26 27 46 38 50 110 79 120 48z m-1582 -5 c7 -12 -160 -12
-188 -1 -10 3 27 7 82 8 55 1 103 -2 106 -7z m188 3 c-7 -2 -21 -2 -30 0 -10
3 -4 5 12 5 17 0 24 -2 18 -5z m1760 -31 c11 -9 23 -27 28 -40 5 -14 28 -31
56 -43 l48 -20 26 31 c18 21 29 28 34 20 16 -26 90 -50 155 -50 55 0 72 -5
110 -30 25 -16 51 -30 57 -30 20 0 41 -41 53 -105 13 -68 -1 -123 -45 -181
-25 -33 -32 -68 -16 -78 5 -3 23 -3 40 0 24 5 40 20 69 65 36 57 60 71 87 51
35 -25 73 -149 61 -198 -4 -16 -8 -42 -9 -59 -4 -59 65 -36 78 26 9 39 49 67
70 49 21 -18 20 -24 -25 -100 -23 -37 -44 -85 -47 -106 -3 -22 -11 -48 -16
-59 -6 -11 -13 -67 -16 -124 -7 -120 -20 -138 -46 -61 -16 49 -16 55 0 112 17
63 14 108 -9 108 -7 0 -27 -30 -44 -67 -47 -104 -108 -155 -147 -123 -17 14
-21 129 -6 158 13 27 21 96 12 110 -17 28 -50 -10 -77 -88 -36 -103 -43 -116
-70 -131 -28 -14 -61 -2 -82 31 -16 26 5 126 41 196 35 69 39 108 11 112 -26
4 -74 -50 -74 -83 0 -12 -7 -28 -15 -35 -8 -7 -15 -20 -15 -29 0 -25 -27 -59
-62 -77 -57 -29 -108 11 -108 86 0 32 11 61 40 105 41 62 73 133 67 149 -4 9
-15 16 -26 16 -21 0 -85 -66 -96 -99 -16 -52 -114 -63 -170 -19 -49 38 -21
101 66 148 31 16 64 30 73 30 17 0 126 65 126 76 0 18 -23 44 -40 44 -10 0
-40 -11 -67 -24 -27 -14 -60 -30 -73 -35 -14 -6 -32 -15 -40 -19 -46 -26 -63
-32 -98 -32 -46 0 -75 19 -92 60 -12 28 -11 33 11 56 24 26 84 57 129 68 14 3
38 16 54 29 59 48 -4 77 -89 41 -45 -19 -103 -11 -134 17 -32 30 -53 78 -47
105 6 23 27 32 151 63 53 13 124 5 148 -17z m-4178 -11 c55 -5 136 -20 180
-34 107 -33 165 -46 255 -57 160 -19 142 -30 -43 -26 -185 5 -207 3 -207 -19
0 -36 74 -49 425 -75 185 -14 312 -29 345 -40 14 -5 169 -11 345 -14 183 -3
335 -9 355 -15 21 -7 144 -11 311 -11 297 0 320 -3 379 -52 48 -39 51 -41 83
-55 15 -7 27 -16 27 -20 0 -9 -321 -5 -330 3 -3 3 3 10 13 15 18 11 23 34 8
44 -10 5 -64 -3 -166 -25 -27 -6 -138 -13 -245 -15 -107 -3 -211 -8 -231 -11
-45 -7 -55 6 -29 36 25 29 25 37 -1 51 -18 9 -27 7 -49 -10 -16 -11 -57 -30
-91 -42 -60 -21 -74 -22 -249 -15 -102 4 -203 11 -225 15 l-40 8 28 11 c16 7
39 12 52 12 32 0 75 20 75 35 0 28 -28 37 -77 26 -265 -62 -333 -74 -362 -63
-15 5 -39 4 -63 -2 -31 -8 -57 -6 -131 11 -50 12 -119 26 -152 31 -106 17
-228 54 -292 88 -33 19 -72 34 -86 34 -50 0 -144 131 -121 167 13 20 92 33
164 27 25 -3 90 -8 145 -13z m7752 -73 c67 -69 113 -125 113 -137 0 -6 6 -14
14 -17 7 -3 21 -23 31 -45 10 -21 22 -39 27 -39 14 0 9 -40 -7 -46 -15 -6 -81
58 -91 89 -3 9 -9 17 -14 17 -4 0 -15 18 -24 40 -9 22 -20 40 -26 40 -5 0 -10
7 -10 16 0 10 -15 35 -33 58 -45 56 -51 66 -35 66 7 0 32 -19 55 -42z m-4570
-14 c3 -8 -2 -23 -11 -32 -20 -20 -49 -6 -54 27 -3 18 2 21 28 21 19 0 33 -6
37 -16z m1738 -23 c107 -7 125 -13 166 -58 41 -44 53 -89 75 -280 l6 -53 -40
0 c-54 0 -108 33 -132 80 -11 21 -46 62 -80 92 -39 36 -71 76 -91 117 -17 35
-38 65 -45 68 -17 6 -18 40 -1 46 6 3 19 3 27 0 8 -3 60 -8 115 -12z m-4205
-21 c0 -11 -31 -11 -75 0 -26 7 -22 8 23 9 29 0 52 -3 52 -9z m2350 -9 c15
-29 11 -72 -10 -111 -37 -68 -52 -104 -60 -149 -5 -25 -18 -77 -29 -116 -12
-38 -24 -101 -28 -138 -3 -37 -10 -70 -14 -73 -5 -3 -9 -16 -9 -30 0 -15 -6
-24 -16 -24 -14 0 -15 9 -9 63 11 110 46 311 61 352 8 22 24 72 35 110 38 131
56 157 79 116z m244 -62 c-1 -67 -29 -198 -47 -215 -4 -4 -7 -15 -7 -23 0 -9
-8 -32 -18 -51 -11 -19 -21 -51 -24 -70 -8 -46 -48 -109 -71 -110 -25 0 -31
24 -12 53 9 15 15 40 13 59 -2 28 -7 33 -28 33 -21 0 -28 -8 -41 -45 -8 -25
-23 -62 -32 -82 -9 -21 -17 -41 -17 -46 0 -5 -9 -17 -20 -27 -20 -18 -20 -17
-20 29 0 31 9 66 25 98 14 27 25 67 25 88 0 22 6 54 14 72 8 18 20 53 27 78 7
25 16 47 19 50 3 3 18 22 33 43 35 46 157 149 172 144 6 -2 10 -35 9 -78z
m512 41 c20 -22 47 -43 60 -46 13 -3 24 -12 24 -19 0 -9 -25 -15 -82 -20 -46
-4 -123 -17 -173 -31 -100 -27 -157 -32 -137 -12 7 7 12 22 12 35 0 35 20 70
49 84 60 29 119 46 164 48 43 1 50 -2 83 -39z m-897 4 c18 -6 9 -70 -18 -127
-12 -24 -21 -50 -21 -59 0 -8 -9 -23 -19 -32 -17 -16 -39 -18 -155 -17 -166 1
-196 10 -279 83 -29 26 -36 38 -31 55 10 35 99 85 174 98 59 11 315 10 349 -1z
m8899 -19 c65 -20 82 -47 58 -91 -19 -36 -62 -84 -74 -84 -5 0 -21 -9 -35 -20
-15 -12 -50 -28 -78 -36 -29 -9 -69 -27 -90 -41 -21 -13 -77 -38 -125 -54 -48
-16 -92 -33 -98 -37 -6 -5 -36 -16 -66 -24 -115 -33 -168 -41 -222 -33 -29 4
-82 8 -118 9 -61 1 -64 0 -70 -24 -6 -25 -7 -25 -135 -30 -184 -7 -294 3 -395
36 -47 15 -103 28 -125 28 -36 1 -40 -1 -43 -26 -3 -26 -7 -28 -45 -28 -24 0
-53 -7 -65 -16 -13 -9 -33 -14 -45 -11 -12 3 -78 2 -147 -2 -158 -10 -326 3
-404 30 -48 17 -63 19 -85 9 -28 -13 -251 -24 -251 -12 1 8 71 42 88 42 7 0
18 11 24 25 9 20 8 31 -2 50 -7 14 -11 28 -7 31 3 4 205 8 449 9 301 2 512 8
658 20 278 21 275 21 410 34 63 7 174 16 245 21 161 11 243 30 253 59 3 10
-30 12 -159 8 -158 -4 -245 -11 -544 -42 -163 -18 -1057 -39 -1214 -30 -58 4
-122 12 -141 18 l-35 11 40 7 c52 9 291 24 330 20 36 -4 22 -4 285 8 118 5
235 15 259 21 32 8 64 8 121 -1 88 -12 418 4 453 23 16 8 82 14 297 26 98 6
248 21 261 26 8 4 53 13 100 20 123 20 265 52 286 65 24 15 132 8 201 -14z
m-8408 -10 c0 -9 -7 -18 -16 -22 -18 -7 -39 11 -30 26 11 17 46 13 46 -4z
m-1675 -10 c39 -10 46 -13 20 -10 -22 3 -55 5 -72 5 -18 0 -33 5 -33 10 0 13
12 12 85 -5z m6982 -4 c63 -23 153 -109 153 -146 0 -23 -45 -65 -69 -65 -6 0
-25 -9 -43 -20 -18 -11 -45 -20 -60 -20 -26 0 -28 3 -28 40 0 31 -7 45 -34 72
-34 33 -100 58 -151 58 -40 0 -29 17 23 36 26 10 61 28 77 41 37 28 65 29 132
4z m-6434 -10 c4 -4 1 -16 -7 -26 -13 -18 -16 -18 -66 -2 -40 13 -90 17 -216
17 -228 0 -226 19 3 23 187 3 273 0 286 -12z m6124 -101 c31 -16 62 -30 69
-30 18 0 87 -32 96 -45 9 -12 10 -71 2 -102 -4 -14 -19 -26 -43 -34 -20 -7
-45 -18 -57 -25 -19 -13 -21 -11 -33 37 -7 27 -11 52 -9 55 3 2 -1 26 -7 52
-9 35 -19 51 -41 62 -16 8 -30 15 -30 15 -1 0 -5 10 -8 23 -9 28 -7 28 61 -8z
m-5060 -157 c-29 -65 -59 -138 -66 -163 -20 -75 -32 -98 -58 -115 -33 -22 -42
-11 -20 23 10 15 25 43 34 62 15 33 21 51 41 130 13 52 81 193 100 208 35 27
23 -26 -31 -145z m500 121 c-8 -49 -34 -74 -133 -130 -77 -43 -191 -143 -218
-191 -26 -46 -43 -56 -90 -49 -39 6 -47 5 -52 -11 -11 -35 -21 -48 -43 -51
-11 -2 -21 0 -21 4 0 3 16 41 36 83 56 120 62 135 70 160 16 57 173 190 227
192 12 0 38 7 57 14 19 7 66 14 104 14 l69 1 -6 -36z m4270 10 c10 -15 37 -47
60 -73 46 -52 80 -150 109 -318 24 -144 4 -139 -48 12 -27 76 -51 111 -69 99
-14 -8 -10 -72 7 -128 30 -96 32 -106 24 -111 -11 -7 -60 60 -60 84 0 11 -4
23 -10 26 -5 3 -10 15 -10 27 0 11 -6 32 -14 46 -22 43 -40 150 -39 243 0 122
13 146 50 93z m932 -26 c30 -20 67 -58 92 -96 50 -73 50 -73 -49 -122 -50 -25
-76 -31 -135 -33 -70 -2 -75 0 -110 30 -20 17 -44 36 -54 41 -15 9 -16 13 -4
36 8 14 33 35 57 46 57 28 94 64 94 93 0 13 3 27 7 30 15 15 56 5 102 -25z
m-731 -10 c21 -21 13 -38 -17 -38 -33 0 -46 13 -37 35 7 18 37 20 54 3z
m-7878 -47 c74 -4 148 -13 163 -20 48 -19 284 -31 727 -36 234 -3 511 -10 615
-15 105 -6 260 -10 345 -10 85 0 161 -4 167 -8 9 -6 3 -13 -18 -26 -29 -17
-60 -18 -536 -12 -278 3 -509 8 -513 11 -8 5 -263 20 -505 30 -60 3 -153 9
-206 15 -99 11 -149 3 -149 -22 1 -21 67 -48 117 -48 25 0 91 -6 147 -14 56
-8 218 -17 366 -20 146 -3 342 -10 435 -16 94 -6 307 -12 475 -14 323 -2 328
-3 380 -52 14 -14 34 -31 45 -38 40 -28 8 -33 -200 -27 -66 1 -114 5 -107 8
17 7 15 50 -4 57 -8 3 -43 -5 -77 -18 -92 -35 -97 -37 -157 -52 -77 -19 -80
-18 -80 16 0 39 -18 46 -72 27 -61 -21 -153 -40 -169 -35 -7 2 -14 15 -14 29
0 34 -37 37 -85 6 l-37 -26 -227 6 c-124 3 -226 9 -226 12 0 3 9 12 20 19 23
14 27 50 5 58 -8 4 -45 -1 -83 -10 -120 -28 -251 -39 -316 -27 -33 6 -87 11
-120 11 -33 0 -89 7 -125 15 -36 9 -86 21 -111 26 -25 6 -61 17 -80 24 -19 7
-49 18 -66 25 -17 6 -50 29 -73 51 -53 49 -53 79 1 94 20 5 40 14 45 19 4 4
44 5 88 2 44 -4 141 -10 215 -15z m7554 -17 c7 -19 -1 -34 -19 -34 -18 0 -28
17 -21 35 7 20 32 19 40 -1z m-5154 -39 c7 -8 10 -27 7 -42 -19 -98 -34 -164
-38 -166 -47 -34 -60 -37 -102 -26 -23 6 -55 17 -72 24 -16 8 -45 18 -64 22
-71 18 -68 75 6 119 64 38 110 54 159 54 22 0 49 7 60 15 24 18 29 18 44 0z
m1140 -50 c0 -43 -2 -46 -67 -94 -123 -91 -165 -125 -240 -198 -84 -81 -106
-93 -134 -68 -31 29 -34 78 -9 126 75 144 267 273 413 278 l37 1 0 -45z m4402
-27 c3 -36 11 -75 17 -86 6 -11 11 -34 11 -49 0 -16 4 -33 9 -38 11 -12 31
-183 24 -202 -4 -9 -12 -11 -22 -7 -9 4 -28 9 -43 11 -38 7 -58 65 -33 93 15
17 16 26 6 64 -12 49 -15 188 -5 249 10 57 28 39 36 -35z m-506 -89 c6 -8 14
-32 16 -55 3 -23 22 -73 41 -113 35 -71 35 -73 36 -204 1 -72 2 -139 3 -147 3
-30 -2 -50 -12 -50 -5 0 -10 6 -10 14 0 8 -24 35 -52 61 l-53 46 23 19 c44 36
67 187 37 246 -22 46 -83 112 -142 155 -32 24 -53 47 -51 56 2 8 22 25 44 37
23 12 50 30 60 40 17 18 19 17 34 -36 8 -31 20 -61 26 -69z m102 74 c30 -29
45 -54 60 -103 11 -36 32 -96 46 -135 23 -62 24 -71 11 -85 -12 -11 -20 -12
-33 -4 -25 15 -76 121 -95 199 -9 37 -24 81 -32 98 -17 33 -20 67 -6 67 5 0
27 -17 49 -37z m713 -13 c24 -10 57 -31 72 -45 l28 -27 -20 -31 c-27 -44 -105
-70 -181 -62 -66 8 -85 20 -105 68 -22 53 -19 62 18 63 18 0 50 12 72 27 47
32 59 33 116 7z m2856 -57 c8 -11 9 -20 1 -32 -12 -19 -84 -71 -98 -71 -5 0
-14 -8 -19 -19 -6 -10 -27 -26 -48 -36 -21 -9 -54 -28 -73 -41 -19 -12 -57
-29 -85 -35 -27 -7 -57 -19 -66 -26 -8 -7 -26 -13 -38 -13 -12 0 -36 -8 -54
-17 -25 -14 -57 -18 -143 -18 -96 0 -115 -3 -133 -19 -19 -17 -27 -18 -69 -9
-26 6 -83 17 -127 24 -44 7 -89 18 -100 25 -11 7 -38 14 -60 16 -34 3 -40 0
-40 -17 0 -11 14 -29 33 -41 l32 -22 -27 -6 c-95 -19 -212 -26 -464 -27 -368
-2 -833 2 -838 7 -3 3 3 19 14 36 10 17 19 51 19 74 1 63 10 65 188 53 188
-12 421 -11 454 1 13 5 135 10 272 11 136 1 299 3 362 4 354 5 582 47 531 98
-6 6 -76 3 -193 -9 -209 -21 -617 -30 -1153 -27 -376 3 -496 10 -502 30 -7 20
325 21 752 2 62 -3 244 9 256 17 13 8 217 18 319 16 318 -7 409 -5 500 13 52
10 140 21 195 24 55 4 110 12 122 19 12 7 35 12 50 12 16 0 33 4 39 9 25 25
171 20 191 -6z m-7450 -50 c74 -25 71 -37 -27 -112 -78 -60 -165 -157 -205
-230 -19 -34 -23 -36 -75 -37 -65 -2 -86 12 -100 67 -15 55 -6 76 63 150 71
74 111 107 188 149 63 35 83 36 156 13z m2228 -37 c29 -16 44 -33 59 -68 11
-26 17 -51 13 -54 -4 -4 -22 5 -41 20 -19 14 -37 26 -40 26 -12 0 -96 84 -96
96 0 18 53 8 105 -20z m2637 -5 c55 -24 108 -76 108 -107 0 -12 5 -26 10 -29
6 -3 10 -19 10 -35 0 -21 -10 -37 -37 -59 -57 -47 -95 -61 -165 -61 -83 0
-103 19 -113 105 -4 33 -16 72 -27 87 -21 30 -17 48 10 48 9 0 37 16 62 35 52
39 80 43 142 16z m-1208 -32 c35 -27 71 -84 87 -137 14 -48 0 -94 -36 -118
-26 -17 -48 -11 -65 19 -7 12 -41 47 -76 77 -34 30 -66 62 -69 70 -4 10 5 24
26 40 18 14 42 35 53 47 26 28 46 29 80 2z m-7144 1 c105 -18 236 -29 405 -34
94 -3 215 -8 270 -11 88 -4 448 -17 515 -19 14 0 201 4 415 8 l390 8 -24 -25
c-14 -16 -42 -30 -73 -36 -62 -14 -1082 -14 -1288 0 -334 21 -436 23 -443 6
-12 -33 16 -47 113 -58 52 -6 115 -10 140 -8 62 3 79 2 210 -10 63 -5 187 -10
275 -11 154 0 159 -1 137 -18 -71 -54 -191 -77 -406 -77 l-180 0 0 34 c-1 49
-24 60 -84 39 -78 -28 -187 -44 -214 -31 -13 6 -66 21 -118 32 -134 31 -142
35 -178 94 -38 63 -40 82 -9 108 24 20 62 22 147 9z m2480 -31 c4 -8 12 -24
18 -36 7 -12 16 -39 21 -60 5 -21 15 -52 22 -70 11 -27 10 -40 -4 -86 -9 -29
-17 -74 -17 -98 0 -24 -6 -77 -14 -119 -8 -41 -20 -106 -26 -145 -18 -107 -23
-117 -31 -65 -4 25 -8 79 -8 121 -1 61 -5 79 -20 93 -27 24 -37 5 -44 -84 -6
-82 -31 -143 -61 -148 -17 -4 -18 9 -11 215 l7 218 40 85 c68 145 73 154 87
178 15 24 30 25 41 1z m-290 -4 c0 -9 -18 -35 -40 -57 -29 -30 -40 -51 -40
-73 0 -41 -10 -75 -22 -75 -5 0 -25 16 -43 36 l-34 36 19 37 c22 40 56 80 86
98 28 18 74 16 74 -2z m5750 -25 c13 -11 37 -20 55 -20 34 0 63 -25 83 -73 21
-49 15 -72 -25 -99 -54 -36 -91 -41 -99 -14 -3 12 -14 28 -24 36 -14 11 -20
37 -25 103 -4 52 -3 87 3 87 5 0 19 -9 32 -20z m-5140 2 c0 -16 -24 -32 -49
-32 -23 0 -24 1 -6 20 18 20 55 28 55 12z m822 -42 c27 -35 35 -54 31 -71 -4
-13 -9 -26 -13 -29 -19 -14 -80 -142 -90 -190 -7 -31 -24 -74 -39 -95 -23 -35
-34 -41 -76 -47 -74 -11 -102 -2 -132 44 -25 38 -26 43 -15 94 6 30 22 69 35
86 13 18 32 50 42 70 34 67 164 188 200 187 12 0 35 -20 57 -49z m-1347 -20
c9 -29 -4 -60 -25 -60 -28 0 -44 34 -28 60 16 26 45 26 53 0z m365 -5 c0 -21
-5 -25 -30 -25 -22 0 -30 5 -30 18 0 25 9 32 37 32 18 0 23 -5 23 -25z m4322
-43 c35 -27 73 -64 86 -83 13 -19 33 -45 44 -58 17 -20 21 -37 20 -94 -1 -61
-5 -72 -27 -93 -26 -24 -43 -28 -81 -18 -19 5 -55 57 -104 147 -75 138 -75
139 -50 177 5 8 14 27 20 43 5 15 14 27 19 27 6 0 38 -22 73 -48z m-4145 -2
c3 -11 9 -21 14 -21 5 -1 21 -3 37 -5 60 -7 91 -17 96 -31 7 -18 -32 -58 -66
-69 -12 -3 -52 -38 -89 -75 -37 -38 -72 -69 -78 -69 -7 0 -11 24 -11 61 0 46
5 67 21 87 15 20 19 34 14 63 -5 30 -2 42 14 58 26 26 41 27 48 1z m975 -7 c8
-10 18 -26 21 -36 4 -9 15 -20 24 -24 25 -8 63 -44 63 -58 0 -7 -14 -57 -31
-111 -30 -94 -48 -133 -76 -162 -7 -7 -18 -21 -25 -30 -7 -10 -34 -30 -59 -44
-45 -26 -47 -27 -80 -10 l-34 17 3 75 c3 72 25 164 43 185 5 5 9 16 9 25 0 36
97 190 120 190 4 0 14 -8 22 -17z m3894 -56 c-5 -31 -1 -51 12 -77 36 -68 45
-125 39 -248 -3 -64 -11 -142 -18 -172 l-12 -55 -8 35 c-4 19 -6 64 -5 100 4
79 0 90 -29 90 -29 0 -35 -16 -35 -98 0 -71 -25 -152 -48 -152 -26 0 -32 52
-26 238 7 232 29 315 104 392 22 23 34 -1 26 -53z m-5876 30 c-15 -14 -81 -39
-187 -71 -41 -13 -101 -16 -292 -16 -133 0 -241 4 -241 8 0 23 86 74 140 83
19 3 161 7 315 8 235 1 277 -1 265 -12z m146 -23 c72 -46 62 -57 -51 -58 -87
-1 -104 6 -60 26 18 8 25 19 25 40 0 38 17 36 86 -8z m5594 13 c0 -45 -41 -63
-60 -26 -14 26 3 49 36 49 18 0 24 -5 24 -23z m-4893 -84 c-14 -182 -29 -277
-52 -329 -13 -28 -28 -55 -34 -58 -22 -14 -12 114 26 339 11 71 20 96 41 118
14 15 26 27 26 27 1 0 -2 -44 -7 -97z m-446 48 l24 -19 2 -271 c1 -227 -1
-271 -13 -271 -15 0 -15 2 -38 125 -34 188 -37 229 -25 344 7 61 16 111 20
111 4 0 17 -9 30 -19z m5613 3 c22 -22 20 -51 -5 -64 -27 -15 -49 3 -49 40 0
43 25 54 54 24z m-3756 -59 c30 -25 61 -45 68 -45 11 0 13 -10 8 -42 -3 -24
-9 -54 -14 -68 -5 -14 -11 -78 -15 -142 -8 -155 -21 -183 -104 -211 -33 -12
-50 -13 -74 -5 -44 15 -45 16 -62 83 -13 49 -14 67 -4 110 7 27 17 56 22 63 5
6 24 55 42 106 17 52 36 101 42 108 6 7 13 30 17 51 4 20 10 37 13 37 3 0 31
-20 61 -45z m2653 -15 c10 0 22 7 27 16 9 16 11 15 34 -2 13 -10 32 -36 43
-58 10 -23 28 -63 41 -91 41 -91 48 -129 34 -180 -17 -62 -32 -75 -88 -75 -73
0 -96 17 -104 74 -5 34 -21 70 -55 120 -26 39 -50 76 -52 81 -2 6 -9 17 -16
25 -7 8 -16 32 -19 54 -7 34 -4 41 24 66 l32 29 41 -30 c22 -16 48 -29 58 -29z
m3799 40 c0 -20 -19 -47 -73 -101 -28 -28 -97 -64 -146 -76 -14 -3 -48 -16
-76 -28 -120 -55 -188 -67 -465 -81 -30 -1 -116 -7 -190 -14 -159 -13 -929 -8
-1120 8 -69 6 -132 11 -140 11 -10 1 -4 11 18 32 19 17 32 40 32 54 0 34 24
38 163 26 74 -7 179 -8 267 -3 80 4 179 4 220 1 41 -3 118 -2 170 3 52 5 167
11 255 14 88 2 178 8 200 13 22 6 52 12 68 16 18 3 27 12 27 24 0 18 -14 18
-367 14 -657 -8 -1021 -8 -1029 0 -4 4 -1 14 7 22 11 11 53 15 189 16 96 2
198 -1 225 -5 28 -4 61 -3 75 2 16 6 89 5 205 -3 123 -9 209 -10 270 -4 50 5
167 12 260 14 94 3 247 10 340 15 94 6 210 13 259 15 48 3 93 9 100 13 11 7
113 18 204 20 46 2 52 0 52 -18z m-3030 -106 c9 -33 11 -86 6 -200 -4 -86 -10
-162 -13 -170 -12 -32 -54 -2 -50 36 1 8 -2 31 -7 50 -5 22 -2 69 8 125 9 50
16 121 16 159 0 57 2 67 14 57 7 -6 19 -32 26 -57z m729 47 c12 -12 21 -29 21
-39 0 -10 5 -23 11 -29 17 -17 -8 -101 -32 -108 -21 -7 -127 13 -146 28 -7 5
-40 10 -73 10 l-61 2 7 70 c4 38 8 72 9 75 2 3 57 6 123 8 111 3 122 2 141
-17z m-3930 -23 c51 -32 71 -50 71 -67 0 -7 13 -36 30 -62 29 -47 30 -53 26
-143 -4 -85 -12 -120 -37 -150 -5 -6 -18 -23 -30 -38 -67 -90 -156 42 -160
237 -1 45 4 91 10 103 6 11 11 31 11 43 0 33 22 99 33 99 5 0 26 -10 46 -22z
m2182 -25 c28 -26 62 -68 75 -93 14 -25 36 -65 50 -90 26 -46 42 -138 31 -182
-10 -39 -59 -51 -131 -32 -71 18 -85 34 -86 94 0 44 -30 122 -68 178 -27 41
-44 99 -34 118 13 23 64 54 90 54 14 0 43 -19 73 -47z m-5616 17 c127 -10 178
-10 250 0 102 14 335 17 505 5 134 -9 130 -9 324 1 125 6 148 5 144 -7 -3 -9
-22 -15 -49 -16 -318 -17 -1016 -38 -1147 -35 -82 2 -152 -15 -152 -37 0 -29
45 -34 260 -26 118 4 343 8 500 10 157 1 344 5 416 9 167 11 174 9 174 -53 0
-54 -10 -66 -60 -74 -19 -3 -79 -13 -132 -22 -70 -12 -102 -14 -115 -6 -17 10
-17 10 -1 11 10 0 25 11 34 25 13 20 14 28 4 40 -14 17 -46 20 -54 6 -14 -22
-144 -54 -236 -58 -52 -2 -122 -8 -155 -13 -33 -6 -93 -10 -133 -10 -67 0 -75
2 -96 27 -21 24 -25 25 -56 15 -18 -7 -57 -12 -87 -12 -47 0 -56 3 -60 20 -7
28 -47 35 -96 19 -63 -21 -216 -19 -247 4 -13 9 -40 17 -60 17 -29 0 -46 10
-98 58 -34 32 -62 65 -62 74 0 9 16 23 38 32 43 18 184 17 447 -4z m2121 5
c-11 -8 -27 -15 -35 -15 -11 0 -10 4 5 15 10 8 26 14 34 14 11 0 10 -3 -4 -14z
m-66 -25 c0 -5 -5 -10 -11 -10 -5 0 -7 5 -4 10 3 6 8 10 11 10 2 0 4 -4 4 -10z
m3256 -28 c47 -7 47 -7 84 -82 76 -154 80 -166 80 -248 0 -105 -5 -111 -70
-84 -29 12 -57 22 -62 22 -5 0 -22 10 -38 22 -25 18 -30 29 -30 62 0 23 -10
77 -21 121 -30 116 -40 177 -34 204 6 22 7 22 25 6 10 -9 39 -19 66 -23z
m-2998 16 c7 -7 12 -24 12 -39 0 -21 -7 -29 -30 -38 -16 -5 -30 -15 -30 -20 0
-6 -5 -11 -12 -11 -31 0 -120 -75 -224 -189 -63 -69 -123 -134 -132 -144 -28
-30 -60 -17 -89 35 -26 47 -26 48 -9 92 11 29 24 46 39 50 13 3 67 48 122 101
94 90 195 155 239 155 8 0 18 5 21 10 9 14 78 13 93 -2z m4698 -30 c-21 -139
-26 -180 -32 -241 -4 -37 -11 -70 -15 -73 -5 -3 -9 -14 -9 -25 0 -12 -5 -19
-12 -16 -7 2 -11 13 -10 23 2 10 5 73 6 139 3 132 9 166 38 208 28 40 41 34
34 -15z m-1859 -68 c29 -58 34 -79 43 -197 8 -111 7 -137 -6 -168 -8 -20 -19
-35 -24 -33 -4 2 -33 34 -64 71 -44 54 -56 76 -56 103 0 18 -5 53 -12 77 -9
36 -8 56 6 113 19 73 40 107 65 102 9 -2 30 -32 48 -68z m1270 33 c83 -91 83
-91 83 -231 0 -113 -1 -120 -24 -142 -14 -12 -31 -20 -39 -17 -15 6 -21 16
-90 152 -23 44 -49 89 -59 99 -24 26 -24 26 17 86 19 29 35 61 35 71 0 32 40
22 77 -18z m-4479 -11 c-19 -27 -88 -86 -88 -75 0 12 80 93 92 93 5 0 3 -8 -4
-18z m1841 -58 c16 -60 -3 -188 -40 -261 -37 -73 -34 -94 13 -91 31 3 32 1 44
-47 6 -27 23 -70 37 -95 18 -32 28 -67 33 -120 6 -68 4 -77 -15 -94 -11 -11
-21 -31 -21 -45 0 -31 25 -71 44 -71 16 0 29 -32 50 -120 29 -123 45 -215 52
-297 6 -73 5 -83 -10 -83 -9 0 -16 3 -16 8 0 4 -18 26 -40 49 -25 28 -45 63
-56 100 -26 85 -38 97 -69 67 -12 -12 -14 -27 -9 -67 7 -52 26 -102 42 -109 4
-1 33 -35 65 -74 l57 -71 0 -87 c0 -109 -14 -110 -48 -5 -33 103 -52 140 -71
137 -17 -4 -19 -63 -6 -161 6 -41 4 -49 -15 -65 -12 -10 -32 -38 -44 -63 -11
-24 -27 -44 -35 -44 -9 0 -27 30 -45 74 -27 68 -28 77 -18 117 16 57 15 89 -1
106 -9 9 -13 42 -13 108 1 115 -21 180 -62 180 -23 0 -24 -2 -18 -42 4 -24 9
-86 12 -138 4 -70 10 -98 21 -107 14 -11 14 -17 4 -40 -12 -26 -13 -27 -23 -8
-6 11 -30 40 -52 65 -23 25 -48 61 -56 80 -17 43 -28 52 -57 45 -12 -3 -25 -1
-28 5 -14 22 -45 8 -72 -32 -49 -73 -58 -61 -58 79 l0 122 34 35 c19 20 41 36
49 36 30 0 82 43 101 83 47 101 64 157 52 171 -17 20 -51 8 -64 -23 -7 -14
-17 -32 -24 -39 -7 -7 -13 -23 -13 -35 -1 -39 -78 -107 -121 -107 -31 0 17
283 54 322 7 7 23 30 36 50 12 21 44 55 69 75 26 21 53 44 61 51 40 39 108 42
141 7 13 -14 34 -25 47 -25 19 0 23 5 23 34 0 20 -8 42 -22 57 -20 21 -23 37
-25 109 -1 47 -6 99 -11 115 -14 49 6 114 51 167 49 58 72 62 86 12z m3356 -8
c28 -9 64 -30 85 -51 l37 -36 199 -9 c460 -22 622 -28 664 -25 25 1 135 6 245
9 695 21 674 21 688 7 14 -14 -15 -46 -56 -62 -18 -6 -45 -17 -62 -24 -16 -7
-59 -18 -95 -25 -240 -48 -510 -52 -592 -9 -10 5 -49 9 -88 9 -59 0 -71 -3
-80 -20 -6 -10 -9 -25 -8 -32 2 -10 -26 -12 -132 -10 -143 4 -231 21 -343 69
-72 31 -101 28 -105 -10 l-3 -28 -77 7 c-90 8 -157 37 -146 63 4 9 7 27 8 41
1 22 -4 25 -36 28 -29 2 -44 -3 -65 -22 -15 -14 -33 -26 -39 -26 -6 0 -26 -3
-43 -6 l-31 -6 0 68 c0 72 7 114 20 114 4 0 28 -7 55 -14z m-4730 -33 c30 -15
55 -33 55 -41 0 -13 -29 -50 -128 -164 -23 -27 -53 -66 -66 -87 -14 -21 -38
-53 -56 -72 -17 -19 -41 -56 -55 -84 -31 -66 -70 -90 -132 -80 -73 11 -93 29
-93 83 0 26 9 64 22 91 61 125 222 291 352 363 40 22 37 22 101 -9z m1685 -50
c30 -47 38 -73 21 -73 -14 0 -61 75 -61 98 0 32 7 28 40 -25z m-1456 31 c9 -4
16 -18 16 -34 0 -15 11 -40 25 -56 14 -16 25 -34 25 -39 0 -21 -32 -55 -51
-55 -14 0 -21 -9 -26 -30 -3 -17 -30 -65 -59 -107 -30 -43 -54 -83 -54 -89 0
-6 -7 -24 -15 -40 -8 -16 -22 -61 -30 -99 -29 -122 -80 -183 -160 -193 -39 -4
-47 -1 -79 30 -34 33 -36 39 -36 99 1 37 7 75 15 89 8 14 14 33 15 43 0 10 10
33 23 50 103 141 177 236 203 262 17 16 55 60 83 97 59 76 72 85 105 72z
m3626 -105 c28 -43 50 -83 50 -89 0 -5 4 -18 10 -28 5 -9 16 -57 23 -107 13
-77 13 -94 1 -117 -15 -28 -64 -58 -97 -58 -23 0 -97 76 -97 100 0 9 -7 25
-15 36 -8 10 -15 27 -15 36 0 9 -16 43 -35 75 -19 32 -35 63 -35 68 0 6 11 23
25 39 14 16 25 33 25 37 0 4 14 30 31 58 29 46 33 49 55 39 13 -6 47 -46 74
-89z m-3340 -54 c0 -17 -12 -46 -61 -150 -21 -44 -41 -98 -44 -120 -4 -22 -10
-49 -14 -60 -20 -50 -41 -159 -41 -212 0 -62 -7 -76 -65 -140 -31 -34 -35 -36
-85 -31 -84 8 -95 27 -94 152 1 71 7 119 19 152 32 88 82 189 104 208 11 11
21 23 21 28 0 13 73 108 108 142 42 39 152 62 152 31z m940 0 c18 -22 108 -65
135 -65 13 0 29 10 39 25 9 14 21 25 26 25 5 0 34 -16 64 -35 77 -49 112 -109
108 -190 -1 -33 -6 -76 -10 -95 l-8 -34 -24 39 c-13 22 -45 63 -71 91 -27 29
-51 65 -54 80 -11 51 -14 54 -40 54 -22 0 -25 -4 -25 -38 0 -20 9 -70 20 -110
11 -39 20 -79 20 -87 0 -34 -42 -12 -105 58 -53 57 -72 87 -91 141 -24 69 -29
110 -18 140 8 20 18 20 34 1z m3283 -30 c-12 -8 -28 -12 -37 -9 -29 11 -17 24
21 24 36 0 37 -1 16 -15z m-1164 -51 c28 -25 51 -50 51 -55 0 -4 11 -32 24
-61 54 -122 70 -215 44 -269 -16 -34 -108 -76 -108 -49 0 5 -19 21 -43 34 -75
44 -93 77 -125 226 -3 14 -11 34 -18 45 -8 11 -14 39 -14 63 0 35 6 49 35 77
50 51 88 48 154 -11z m-4378 -59 c46 -75 60 -139 79 -345 5 -58 13 -122 16
-142 5 -26 3 -38 -5 -38 -18 0 -42 65 -65 175 -19 89 -24 100 -44 103 -32 5
-35 -15 -17 -111 13 -68 14 -95 5 -128 -9 -34 -14 -39 -24 -28 -67 77 -91 506
-32 597 6 11 15 6 39 -19 16 -18 38 -47 48 -64z m116 79 c8 -22 -9 -69 -26
-69 -21 0 -36 52 -21 70 16 20 39 19 47 -1z m1883 -28 c0 -34 -26 -54 -45 -35
-13 13 -13 17 1 37 20 29 44 28 44 -2z m1407 -37 c84 -79 93 -94 93 -161 0
-62 18 -101 77 -163 15 -17 34 -43 41 -58 13 -31 16 -67 5 -67 -12 1 -153 140
-189 186 -17 22 -36 60 -42 84 -24 102 -32 129 -52 174 -19 45 -19 71 0 64 5
-2 35 -28 67 -59z m-1596 -41 c22 -6 39 -14 39 -17 0 -4 -17 -17 -39 -30 -37
-23 -131 -129 -131 -148 0 -5 -5 -14 -12 -21 -20 -20 -67 -176 -68 -224 0 -58
-15 -63 -24 -8 -12 74 21 235 75 371 22 53 39 103 39 111 0 8 5 19 12 26 9 9
18 5 41 -18 16 -16 47 -35 68 -42z m2235 40 c31 -11 50 -41 105 -163 61 -137
54 -329 -13 -351 -27 -8 -90 13 -126 43 -39 33 -62 106 -62 199 0 49 -7 75
-30 122 -34 68 -37 94 -15 112 8 7 15 18 15 24 0 36 46 41 126 14z m1004 2 c0
-22 -38 -62 -52 -54 -12 8 -10 48 4 62 19 19 48 15 48 -8z m-3641 -6 c18 -13
40 -15 107 -12 71 4 84 2 84 -11 1 -16 -57 -203 -71 -232 -14 -29 -31 -141
-25 -165 3 -12 2 -26 -4 -29 -5 -3 -10 -25 -10 -47 0 -32 -8 -52 -37 -90 -60
-78 -101 -76 -169 8 l-39 47 1 106 c0 97 20 217 45 276 5 11 16 42 25 69 19
59 42 96 58 96 6 0 22 -7 35 -16z m2314 0 c18 -9 40 -24 50 -32 49 -43 97
-224 97 -367 0 -65 -34 -140 -83 -181 -40 -34 -55 -19 -63 66 -7 69 -45 183
-70 211 -14 16 -43 132 -44 175 0 26 58 144 71 144 6 0 24 -7 42 -16z m1490
-42 c18 -61 23 -147 8 -156 -5 -4 -12 -30 -16 -59 -4 -28 -13 -77 -21 -108 -8
-31 -14 -67 -14 -80 0 -13 -9 -35 -20 -49 l-20 -25 0 34 c0 18 5 51 12 73 10
35 9 41 -11 61 -21 21 -23 21 -36 4 -7 -10 -19 -42 -26 -70 -14 -61 -66 -144
-81 -129 -6 6 -7 48 0 118 5 60 9 128 9 152 1 23 5 48 11 55 5 7 14 28 21 47
6 19 28 53 48 76 21 23 51 58 66 78 15 20 33 36 40 36 7 0 20 -26 30 -58z
m121 26 c8 -13 7 -21 -5 -33 -22 -22 -54 2 -44 34 8 25 32 25 49 -1z m-5536
-10 c17 -17 15 -58 -3 -64 -21 -8 -45 14 -45 41 0 35 24 47 48 23z m372 -65
c0 -21 7 -56 15 -78 16 -45 21 -310 6 -319 -18 -12 -28 23 -46 159 -27 220
-29 243 -15 260 23 27 40 18 40 -22z m4771 -166 c-6 -6 -11 -49 -11 -96 0 -82
-24 -191 -42 -191 -4 0 -8 42 -8 93 0 86 14 161 40 209 5 9 13 36 17 60 l8 43
3 -54 c2 -30 -2 -59 -7 -64z m419 84 c0 -11 -4 -23 -10 -26 -5 -3 -10 -15 -10
-25 0 -74 -125 -384 -155 -382 -18 1 -16 21 4 39 12 9 21 29 21 44 0 14 3 29
7 32 13 13 45 113 53 167 5 30 12 71 16 90 11 58 74 110 74 61z m-5586 -41
c15 -19 27 -48 31 -78 3 -26 12 -69 19 -97 8 -27 17 -68 21 -90 4 -22 11 -45
17 -52 5 -6 8 -29 6 -50 l-3 -38 -21 45 c-12 25 -29 68 -39 95 -10 28 -22 54
-26 60 -5 5 -9 21 -9 36 0 28 -25 121 -41 151 -27 52 6 64 45 18z m3552 -46
c43 -38 75 -77 94 -113 15 -31 37 -64 49 -75 11 -10 30 -36 41 -58 11 -22 38
-66 59 -97 l37 -57 -20 -27 c-27 -37 -15 -56 52 -77 65 -22 68 -24 53 -54 -17
-32 -6 -63 29 -81 33 -17 69 -61 105 -129 41 -76 31 -118 -12 -51 -28 42 -67
69 -89 61 -26 -10 -10 -62 44 -141 72 -104 82 -129 82 -205 0 -56 -4 -71 -23
-91 -12 -13 -31 -36 -40 -51 -10 -16 -22 -28 -27 -28 -15 0 -12 63 4 85 8 11
17 50 21 86 6 54 4 67 -9 79 -21 16 -36 4 -52 -43 l-11 -32 -8 33 c-4 19 -20
59 -36 90 -28 51 -29 61 -23 125 11 109 -35 231 -81 214 -19 -8 -19 -41 1 -99
14 -42 14 -55 -1 -139 -21 -121 -24 -125 -67 -90 -83 70 -98 84 -98 96 0 7 -7
18 -15 25 -8 7 -15 21 -15 32 0 18 -15 54 -42 98 -5 8 -18 36 -30 62 -21 45
-47 66 -67 54 -13 -9 -53 -146 -47 -162 8 -20 29 -17 50 8 18 21 19 21 32 3
20 -27 17 -48 -15 -117 -16 -35 -33 -84 -36 -110 -4 -27 -10 -48 -14 -48 -9 0
-81 84 -81 95 0 6 -17 44 -38 85 -34 66 -38 79 -30 110 5 19 12 50 15 68 3 19
19 45 39 64 39 37 41 48 15 72 -28 26 -54 13 -79 -39 -12 -25 -26 -45 -32 -45
-15 0 -23 47 -16 93 3 23 9 60 12 82 3 22 17 63 30 92 13 28 24 61 24 72 0 27
-36 37 -59 17 -30 -27 -34 -19 -29 57 6 80 26 131 77 196 45 57 81 73 153 67
54 -4 63 -8 124 -62z m1504 -23 c-7 -31 -16 -69 -22 -86 -5 -16 -12 -67 -15
-112 l-6 -82 -36 -3 -36 -3 -18 -75 c-20 -85 -51 -197 -79 -285 -10 -33 -26
-85 -35 -115 -20 -67 -17 -64 -41 -49 -11 7 -27 9 -35 6 -17 -6 -47 -67 -47
-94 0 -8 -17 -35 -38 -61 -40 -49 -74 -102 -135 -212 -41 -73 -80 -120 -99
-120 -20 0 -73 -51 -104 -100 -16 -25 -53 -69 -82 -97 -64 -64 -94 -68 -132
-21 -14 17 -32 39 -41 49 -10 9 -23 33 -30 52 -16 45 -1 85 49 129 41 35 97
138 108 195 4 21 13 50 20 65 20 40 17 79 -11 140 -14 29 -25 64 -25 78 0 32
-39 109 -90 180 -30 42 -39 65 -39 97 -1 23 -6 53 -13 67 -10 24 -6 31 73 111
l84 85 49 -25 c27 -14 58 -25 68 -25 11 0 32 -7 49 -15 26 -14 32 -14 51 -1
39 27 97 107 104 142 3 19 10 34 15 34 5 0 32 -18 60 -40 40 -31 59 -40 90
-40 38 0 40 2 114 110 l77 110 62 0 c62 0 64 1 102 43 21 24 41 39 43 34 2 -5
-2 -35 -9 -66z m-2271 -36 c40 -128 43 -171 17 -270 -32 -125 -100 -231 -132
-204 -22 18 -17 45 16 91 28 38 30 47 30 126 0 67 4 90 18 105 14 16 17 37 15
131 -3 120 3 124 36 21z m-2163 13 c88 -2 104 -9 104 -47 0 -29 69 -154 102
-185 24 -23 104 -19 161 8 30 15 40 16 52 6 8 -7 15 -17 15 -23 0 -29 64 -107
104 -127 41 -19 46 -20 101 -5 59 15 70 21 117 64 l27 24 20 -24 c11 -13 25
-37 32 -52 13 -31 111 -87 153 -87 17 0 40 16 72 50 26 28 51 50 56 50 4 0 18
-11 30 -25 19 -23 21 -37 23 -182 2 -95 8 -170 15 -188 7 -17 13 -85 14 -155
2 -118 3 -128 34 -190 17 -36 37 -72 44 -82 15 -21 -13 -109 -48 -154 -22 -27
-28 -29 -86 -27 -35 0 -83 8 -108 17 -27 10 -79 16 -131 16 -71 0 -91 4 -111
20 -14 11 -47 25 -74 31 -81 19 -90 25 -149 99 -31 39 -63 74 -69 76 -7 3 -43
45 -80 94 -37 50 -72 90 -76 90 -5 0 -20 24 -34 54 -25 54 -50 86 -65 86 -4 0
-18 -9 -30 -19 -22 -19 -51 -19 -51 0 0 5 -12 34 -26 66 -14 32 -32 72 -39 88
-8 17 -37 79 -64 139 -28 59 -51 111 -51 115 0 3 -7 19 -15 35 -8 15 -21 53
-29 82 -8 30 -28 76 -45 103 -31 48 -40 110 -25 168 6 20 8 21 28 8 14 -9 52
-15 102 -17z m2041 -36 c28 -28 30 -52 4 -52 -32 0 -33 -17 -6 -137 4 -18 2
-47 -5 -67 -19 -60 -34 -45 -50 51 -5 29 -16 69 -26 88 -18 38 -13 127 7 152
13 14 41 2 76 -35z m1202 -213 c13 -17 20 -33 17 -36 -5 -6 -55 47 -56 60 0
16 17 5 39 -24z m-3409 -39 c0 -31 -17 -39 -38 -18 -22 22 -14 48 13 48 21 0
25 -5 25 -30z m-155 -39 c75 -58 116 -102 132 -141 40 -93 80 -182 115 -256
41 -85 59 -154 40 -154 -10 0 -72 84 -72 97 0 18 -58 93 -71 93 -36 0 -30 -35
20 -136 72 -142 68 -174 -9 -85 -40 46 -74 101 -101 161 -6 14 -21 48 -35 75
-13 28 -24 56 -24 64 0 7 -7 27 -14 44 -26 56 -66 227 -60 252 8 34 21 32 79
-14z m4985 -46 c0 -41 -5 -87 -11 -102 -7 -15 -18 -42 -25 -60 -8 -17 -14 -38
-14 -46 0 -8 -26 -66 -57 -129 -32 -62 -66 -132 -75 -153 -35 -85 -76 -105
-44 -22 24 63 21 79 -10 75 -20 -2 -32 -14 -48 -45 -28 -56 -40 -54 -32 5 7
50 19 87 55 167 13 28 29 66 36 87 12 32 107 171 142 206 7 7 13 18 13 25 0
13 50 67 62 67 4 0 8 -34 8 -75z m-160 22 c0 -19 -21 -37 -42 -37 -18 0 -25
29 -11 43 12 12 53 7 53 -6z m-4566 -109 c117 -254 165 -398 134 -398 -9 0
-23 26 -37 67 -13 36 -51 123 -86 192 -63 126 -82 181 -70 201 13 21 27 7 59
-62z m-396 39 c2 -12 -3 -17 -17 -17 -15 0 -21 6 -21 21 0 25 33 22 38 -4z
m5242 4 c0 -12 -20 -25 -27 -18 -7 7 6 27 18 27 5 0 9 -4 9 -9z m-414 -115
c-3 -36 -13 -77 -21 -93 -8 -15 -15 -39 -15 -51 0 -13 -8 -36 -19 -50 -17 -25
-32 -68 -46 -134 -3 -16 -10 -28 -16 -28 -7 0 -9 10 -5 28 4 15 10 54 15 87 5
33 16 78 26 100 35 82 55 140 55 166 0 27 7 39 23 39 6 0 7 -25 3 -64z m-2283
-147 c1 -67 -2 -90 -18 -116 -11 -18 -23 -33 -27 -33 -11 0 -10 144 1 172 5
13 12 36 16 52 11 52 26 12 28 -75z m2610 34 c-17 -32 -33 -71 -37 -88 -6 -25
-66 -127 -86 -145 -3 -3 -14 -24 -24 -47 -10 -23 -25 -44 -32 -47 -19 -7 -17
11 4 42 10 15 24 42 31 60 8 17 16 32 20 32 6 0 24 36 72 145 24 54 69 119 77
110 3 -2 -9 -31 -25 -62z m-5076 -33 c24 -47 43 -92 43 -101 0 -9 7 -22 15
-29 8 -7 15 -18 15 -25 0 -7 17 -34 38 -61 45 -59 65 -94 58 -101 -9 -10 -26
9 -79 90 -55 83 -73 114 -103 177 -9 19 -20 42 -25 50 -12 20 -39 81 -39 87 0
2 8 3 18 1 10 -2 34 -37 59 -88z m1803 -30 c0 -10 11 -31 24 -47 l25 -29 -23
-29 c-13 -16 -21 -35 -19 -42 6 -15 39 -17 48 -3 3 6 13 10 21 10 21 0 18 -63
-6 -110 -23 -45 -19 -77 12 -123 17 -23 23 -26 35 -15 10 8 13 22 9 40 -8 40
15 35 36 -8 16 -35 16 -35 -18 -80 -19 -24 -34 -48 -34 -52 0 -4 -9 -13 -20
-20 -11 -6 -36 -45 -57 -85 -24 -47 -38 -66 -41 -54 -2 10 1 32 7 49 6 17 11
40 11 52 0 12 7 34 15 50 28 54 16 94 -25 81 -14 -4 -21 -19 -25 -53 -11 -82
-42 -168 -81 -223 -20 -30 -43 -58 -51 -62 -19 -12 -17 -76 3 -84 21 -8 91 67
120 126 10 23 22 41 27 41 23 0 -14 -127 -42 -144 -6 -4 -11 -29 -11 -57 0
-41 -3 -49 -19 -49 -30 0 -42 -24 -35 -67 7 -44 -12 -69 -46 -60 -33 9 -50
-17 -38 -57 10 -30 8 -38 -13 -64 -13 -17 -37 -49 -52 -72 -22 -31 -32 -38
-42 -30 -19 15 -38 94 -32 132 5 37 48 160 57 168 22 17 62 106 67 149 5 44
13 60 52 102 47 51 59 80 102 244 17 65 19 297 2 302 -21 7 -49 -32 -62 -90
-14 -56 -14 -56 -28 -31 -7 15 -13 40 -13 57 0 44 39 153 65 179 12 13 27 39
34 58 7 19 18 45 24 58 11 22 11 22 24 -9 7 -17 13 -39 13 -49z m1072 -2 c2
-36 7 -44 26 -46 18 -3 25 3 34 29 l11 32 23 -39 c13 -22 24 -45 24 -52 0 -7
11 -30 25 -50 14 -20 25 -45 25 -56 0 -17 -5 -18 -47 -12 -61 8 -107 36 -111
67 -2 13 -9 30 -15 37 -12 14 -27 112 -20 125 11 19 22 3 25 -35z m-169 -47
c24 -28 25 -39 31 -193 8 -212 14 -338 22 -471 3 -59 3 -151 -1 -202 l-7 -95
-31 0 c-41 0 -54 9 -58 40 -6 37 -37 38 -52 1 -17 -39 -27 -30 -27 24 0 47 35
123 80 174 34 38 35 42 18 59 -17 17 -22 15 -56 -13 l-30 -26 -8 23 c-4 13 -7
55 -6 95 2 76 20 121 61 149 30 22 29 72 -3 80 -19 4 -25 14 -29 49 -9 61 3
307 15 323 18 21 55 13 81 -17z m-173 -104 c0 -20 -1 -20 -16 -5 -9 9 -13 21
-9 27 10 16 25 3 25 -22z m774 -119 c8 -117 3 -128 -43 -90 -20 16 -21 21 -11
67 6 28 14 64 17 80 5 27 22 60 28 53 1 -2 6 -51 9 -110z m-1347 50 c-3 -8 -6
-5 -6 6 -1 11 2 17 5 13 3 -3 4 -12 1 -19z m-1397 -8 c0 -13 -7 -20 -20 -20
-19 0 -27 20 -13 33 13 14 33 6 33 -13z m1945 4 c24 -16 25 -20 25 -138 0 -66
-4 -137 -10 -156 -5 -19 -11 -111 -14 -205 -3 -93 -8 -200 -12 -236 l-7 -67
-49 -5 c-79 -10 -78 -11 -78 122 1 82 5 123 15 141 21 38 18 57 -12 72 -21 10
-29 22 -31 46 -3 33 23 121 52 177 22 41 20 66 -4 72 -16 4 -19 10 -13 27 3
11 9 38 12 58 7 42 57 107 84 108 10 0 29 -7 42 -16z m961 -81 c18 -32 18 -33
-4 -54 -16 -14 -21 -27 -17 -42 9 -29 42 -57 60 -50 20 7 19 67 -1 87 -14 15
-14 16 0 16 9 0 34 19 56 42 21 23 43 39 47 34 4 -4 8 -51 9 -104 0 -53 6
-108 12 -122 6 -14 19 -56 27 -95 9 -38 23 -77 32 -87 15 -17 14 -18 -10 -18
-31 0 -48 -26 -37 -55 4 -12 37 -43 74 -70 53 -40 67 -57 72 -85 4 -19 18 -50
31 -68 17 -23 23 -40 19 -57 -5 -18 2 -32 24 -57 41 -45 42 -109 3 -151 -23
-23 -28 -37 -28 -80 0 -39 -4 -52 -14 -52 -14 0 -18 11 -35 85 -3 14 -19 41
-36 60 -16 18 -30 44 -30 57 0 36 -18 63 -42 63 -18 0 -20 4 -14 39 3 22 9 46
12 54 4 11 -5 21 -25 32 -35 18 -35 18 -19 80 11 40 10 47 -6 63 -16 16 -18
16 -42 -11 -14 -17 -24 -41 -24 -60 0 -36 -43 -87 -73 -87 -10 0 -38 -20 -62
-45 -24 -25 -68 -55 -97 -68 -29 -13 -67 -36 -85 -51 -35 -30 -46 -23 -37 23
5 22 18 37 50 56 24 14 50 38 58 53 17 33 86 98 137 129 19 12 42 35 50 50 8
15 18 31 24 35 5 4 12 63 13 131 3 103 1 125 -12 136 -9 7 -16 18 -16 24 0 6
-24 34 -53 62 -55 54 -69 87 -83 205 l-7 55 40 -35 c23 -19 49 -50 59 -67z
m-544 50 c20 -14 40 -32 44 -41 28 -68 52 -346 35 -409 l-8 -28 -29 42 c-34
49 -48 57 -75 43 -27 -15 -24 -34 12 -87 17 -24 33 -62 36 -84 6 -44 14 -48
44 -18 11 11 23 18 26 16 2 -3 7 -39 10 -80 6 -80 19 -99 48 -70 11 10 16 30
14 57 -1 23 -1 86 0 141 l2 100 30 -35 c40 -46 57 -80 65 -127 5 -35 3 -41
-20 -56 -29 -19 -33 -43 -11 -71 8 -11 15 -28 15 -39 0 -15 -5 -18 -22 -14
-13 4 -53 9 -91 13 -58 6 -67 9 -62 24 6 19 -24 79 -58 118 -49 54 -86 5 -43
-57 32 -46 34 -77 4 -85 -59 -15 -58 -17 -59 122 0 70 -4 159 -8 197 -4 39 -3
159 2 267 l11 197 25 -5 c14 -4 43 -17 63 -31z m-2202 -59 c14 -21 48 -62 76
-93 99 -110 128 -151 116 -163 -9 -9 -39 15 -122 102 -61 63 -110 121 -110
130 0 8 -7 24 -15 34 -8 11 -15 28 -15 38 0 17 2 17 23 3 12 -8 33 -31 47 -51z
m-267 16 c74 -39 132 -86 259 -214 81 -81 127 -134 124 -143 -6 -15 -37 6
-132 90 -42 38 -73 45 -82 19 -2 -7 21 -38 52 -69 35 -35 56 -64 54 -75 -3
-16 -6 -16 -47 5 -25 12 -77 55 -117 95 -69 69 -154 180 -154 201 0 6 -6 14
-14 18 -17 10 -46 66 -46 89 0 13 6 15 32 10 18 -4 50 -15 71 -26z m4019 -17
c-4 -39 -17 -63 -67 -130 -61 -80 -107 -161 -120 -216 -9 -35 -25 -45 -25 -15
0 34 25 108 49 148 11 19 24 42 28 50 10 23 56 93 70 108 7 7 13 18 13 23 0 9
49 79 55 79 1 0 0 -21 -3 -47z m128 18 c0 -20 -19 -41 -37 -41 -18 0 -16 35 3
54 18 19 34 13 34 -13z m-2381 -69 c0 -15 -10 -61 -22 -102 -23 -80 -47 -100
-74 -64 -24 33 -16 88 17 120 17 16 37 42 46 57 17 33 34 27 33 -11z m2474
-29 c-6 -67 -49 -146 -116 -215 -23 -24 -64 -76 -92 -115 -70 -101 -107 -115
-62 -24 33 65 37 94 14 99 -11 2 -31 -11 -52 -35 -31 -34 -35 -36 -35 -15 0
12 9 39 20 59 11 21 20 43 20 50 0 21 140 153 168 159 15 3 52 25 82 49 30 24
56 44 57 44 1 1 -1 -25 -4 -56z m-1590 -25 c14 -48 23 -87 42 -185 6 -32 6
-33 -28 -33 -31 0 -35 3 -41 31 -3 17 -6 71 -6 118 0 52 -5 92 -11 98 -7 7 -9
19 -5 28 10 27 30 3 49 -57z m1717 47 c0 -16 -27 -32 -37 -22 -3 4 -3 13 0 22
8 20 37 20 37 0z m-4482 -59 c5 -26 -17 -49 -34 -35 -17 14 -18 46 -1 52 19 8
32 2 35 -17z m2973 -30 c39 -9 114 -84 138 -140 25 -58 26 -81 5 -151 -13 -48
-22 -58 -70 -91 -33 -21 -68 -56 -85 -82 -53 -83 -59 -78 -59 50 0 62 -5 142
-11 178 -13 87 -28 184 -36 244 l-6 49 49 -26 c27 -14 61 -28 75 -31z m1489
-35 c0 -9 -66 -71 -75 -71 -14 0 -2 34 20 55 24 25 55 33 55 16z m-2751 -76
c1 -37 17 -55 49 -55 19 0 23 -4 19 -20 -3 -11 0 -36 6 -56 10 -33 9 -38 -14
-55 -27 -21 -110 -26 -156 -8 -32 12 -72 56 -73 81 -1 54 68 148 110 148 10 0
24 7 31 16 12 14 14 14 20 -3 4 -10 8 -32 8 -48z m211 -249 c-8 -8 -19 -6 -38
5 -26 15 -27 18 -25 95 3 81 11 112 48 174 l20 35 3 -149 c2 -96 -1 -153 -8
-160z m-1828 229 c20 -14 49 -36 64 -50 14 -13 35 -27 45 -30 11 -4 19 -11 19
-16 0 -5 6 -9 14 -9 8 0 34 -18 58 -39 24 -22 54 -48 68 -59 22 -18 23 -21 8
-27 -23 -9 -164 83 -240 158 -16 15 -33 27 -38 27 -5 0 -26 16 -47 35 -37 34
-37 35 -13 35 14 0 42 -11 62 -25z m713 -74 c49 -32 52 -33 129 -27 60 5 91 3
130 -10 67 -22 75 -31 40 -45 -59 -22 -253 9 -292 48 -18 17 -33 16 -61 -4
-23 -16 -25 -15 -45 10 -27 34 -46 34 -84 2 -38 -32 -56 -33 -46 -2 16 52 47
68 124 64 42 -3 67 -11 105 -36z m2965 -106 c0 -28 -5 -38 -25 -47 -29 -13
-39 -7 -31 19 6 19 42 63 51 63 3 0 5 -16 5 -35z m-3270 4 c0 -5 -4 -9 -10 -9
-5 0 -10 7 -10 16 0 8 5 12 10 9 6 -3 10 -10 10 -16z m3375 11 c3 -5 1 -10 -4
-10 -6 0 -11 5 -11 10 0 6 2 10 4 10 3 0 8 -4 11 -10z m345 -6 c0 -4 -18 -26
-40 -50 -48 -53 -51 -48 -7 11 29 40 47 55 47 39z m-3522 -53 c29 -10 57 -22
63 -28 11 -11 -41 -73 -63 -73 -33 0 -66 62 -59 113 1 9 -1 10 59 -12z m482
-7 c0 -40 -40 -85 -90 -101 -98 -31 -130 -36 -145 -23 -8 7 -25 10 -39 6 -19
-5 -25 -14 -28 -38 -2 -24 -13 -39 -48 -64 -50 -36 -75 -42 -84 -19 -25 66 76
165 168 165 37 0 48 4 57 23 17 31 28 37 79 38 25 0 61 7 80 14 46 18 50 18
50 -1z m2800 -19 c0 -39 -28 -88 -46 -81 -9 3 -21 6 -28 6 -8 0 -25 9 -40 21
-22 17 -25 24 -15 36 17 20 68 41 102 42 23 1 27 -3 27 -24z m-2410 0 c0 -16
-26 -55 -37 -55 -15 0 -53 35 -53 50 0 6 20 10 45 10 25 0 45 -2 45 -5z m143
-11 c36 -5 47 -11 47 -25 0 -45 -79 -51 -129 -10 -39 32 -35 57 8 47 14 -3 47
-9 74 -12z m189 -67 c37 -27 35 -31 -9 -22 -43 8 -63 21 -63 42 0 18 33 9 72
-20z m1735 4 c16 -11 22 -26 23 -53 0 -48 -17 -49 -82 -5 -38 25 -48 38 -48
60 0 28 1 29 42 22 24 -4 53 -15 65 -24z m183 -36 c19 -14 39 -25 45 -25 12 0
57 -41 96 -88 40 -48 51 -87 35 -125 l-14 -32 -12 47 c-10 40 -17 49 -45 58
-22 7 -37 21 -45 40 -16 38 -47 40 -56 5 -8 -33 -24 -31 -62 8 -36 37 -49 85
-33 116 16 28 49 27 91 -4z m-3204 -15 c45 -21 55 -36 29 -46 -21 -9 -115 40
-115 60 0 12 42 6 86 -14z m3461 -6 c2 -6 -5 -21 -15 -34 -16 -20 -21 -21 -40
-9 -27 17 -28 27 -4 45 19 16 54 14 59 -2z m-2574 -21 c32 -35 77 -91 77 -97
0 -12 -36 -5 -57 12 -25 19 -73 81 -73 94 0 15 36 8 53 -9z m298 -47 c24 -8
60 -18 81 -21 20 -4 47 -17 60 -28 l23 -22 -30 -3 c-70 -8 -115 8 -169 60 -28
28 -41 46 -30 40 12 -6 41 -18 65 -26z m-115 -17 c37 -22 45 -49 16 -49 -17 0
-72 48 -72 63 0 13 22 7 56 -14z m1564 -9 c0 -5 -11 -10 -25 -10 -14 0 -25 5
-25 10 0 6 11 10 25 10 14 0 25 -4 25 -10z m-933 -18 c9 -6 4 -18 -18 -45 -27
-33 -48 -68 -86 -142 -28 -55 -43 -129 -43 -212 0 -85 -1 -91 -28 -116 -24
-23 -37 -27 -83 -27 -31 0 -58 2 -61 5 -3 3 19 54 48 113 52 103 54 110 54
188 0 55 5 86 15 100 8 10 15 27 15 37 0 9 4 17 9 17 5 0 14 14 20 30 6 20 22
36 43 45 36 16 96 19 115 7z m1830 -8 c3 -8 1 -20 -6 -27 -14 -14 -15 -54 -1
-62 14 -9 12 -32 -3 -32 -7 0 -24 -3 -39 -6 l-27 -7 0 75 0 75 35 0 c22 0 37
-6 41 -16z m-1567 1 c0 -3 -18 -21 -39 -40 -21 -20 -47 -52 -57 -73 -9 -20
-27 -53 -39 -72 -12 -19 -25 -60 -29 -90 -11 -88 -23 -111 -91 -180 -36 -35
-65 -68 -65 -72 0 -5 -7 -8 -16 -8 -12 0 -14 6 -8 33 4 17 6 62 5 98 -1 43 3
80 13 104 9 21 16 45 16 54 -1 58 104 183 193 231 29 16 117 27 117 15z m220
-31 c0 -9 -7 -14 -17 -12 -25 5 -28 28 -4 28 12 0 21 -6 21 -16z m-1762 -59
c7 -25 12 -55 12 -66 0 -20 -1 -21 -22 -5 -40 28 -126 66 -152 66 -31 0 -42
15 -18 25 16 7 104 21 147 24 17 1 23 -8 33 -44z m2232 30 c0 -16 -19 -19 -69
-9 -44 9 -28 24 25 24 32 0 44 -4 44 -15z m-3120 -20 c0 -14 5 -25 10 -25 6 0
10 -4 10 -10 0 -13 -70 -30 -132 -32 -50 -1 -118 22 -118 40 0 10 73 32 107
33 16 0 37 4 48 9 11 5 32 9 48 9 22 1 27 -3 27 -24z m4320 9 c10 -11 23 -14
52 -9 38 7 38 6 38 -26 0 -18 7 -41 17 -51 9 -10 14 -20 12 -23 -8 -7 -252 -7
-271 0 -14 6 -16 11 -7 27 10 18 6 25 -20 50 -17 16 -31 31 -31 35 0 3 31 2
69 -2 46 -5 71 -3 75 4 10 16 52 13 66 -5z m-1775 -9 c48 -13 68 -24 103 -61
24 -25 41 -49 38 -52 -4 -3 -34 4 -69 15 -34 12 -79 24 -100 28 -47 8 -87 25
-87 38 0 9 40 46 50 47 3 0 33 -7 65 -15z m-1140 -5 c-3 -5 -17 -10 -31 -10
-13 0 -24 5 -24 10 0 6 14 10 31 10 17 0 28 -4 24 -10z m485 0 c0 -6 -47 -10
-120 -10 -73 0 -120 4 -120 10 0 6 47 10 120 10 73 0 120 -4 120 -10z m1836
-25 c17 -13 11 -15 -71 -17 -107 -2 -156 0 -164 7 -26 27 200 36 235 10z
m-3445 -62 c2 -43 -2 -106 -6 -111 -1 -2 -29 4 -61 12 -74 19 -149 55 -138 66
5 4 36 16 69 25 33 10 69 24 80 32 37 25 55 17 56 -24z m2867 25 c-6 -16 -42
-22 -77 -12 l-26 7 25 7 c41 13 82 11 78 -2z m-145 -15 c-7 -2 -21 -2 -30 0
-10 3 -4 5 12 5 17 0 24 -2 18 -5z m-593 -29 c0 -2 -9 -4 -21 -4 -11 0 -18 4
-14 10 5 8 35 3 35 -6z m-712 -35 c36 -26 50 -31 83 -26 45 6 50 -3 12 -20
-43 -20 -137 -16 -188 8 -53 25 -84 20 -120 -19 -26 -28 -115 -192 -115 -212
0 -7 38 -53 85 -103 47 -50 85 -95 85 -99 0 -15 -99 -8 -137 9 -49 22 -83 52
-83 73 0 9 -7 25 -15 36 -8 11 -15 42 -15 74 0 30 -5 72 -11 93 -18 67 27 131
123 174 24 11 59 27 78 36 26 13 53 16 104 12 58 -3 77 -9 114 -36z m1907 31
c4 -6 -7 -10 -25 -10 -18 0 -29 4 -25 10 3 6 15 10 25 10 10 0 22 -4 25 -10z
m-827 -28 c30 -30 62 -105 56 -130 -8 -28 -21 -28 -30 0 -3 11 -26 45 -50 75
-24 30 -44 58 -44 63 0 17 49 11 68 -8z m-1498 -2 c0 -6 -29 -10 -66 -10 -41
0 -63 4 -59 10 3 6 33 10 66 10 33 0 59 -4 59 -10z m1790 -11 c-67 -11 -189
-11 -170 1 8 5 60 9 115 9 83 -1 92 -3 55 -10z m1148 -61 c3 -46 2 -48 -25
-48 -18 0 -35 9 -49 27 l-21 26 -174 3 c-217 3 -205 2 -193 14 20 20 95 27
274 26 l185 -1 3 -47z m-1758 33 c23 -7 21 -8 -17 -15 -44 -8 -68 -2 -58 15 7
10 39 10 75 0z m57 3 c-3 -3 -12 -4 -19 -1 -8 3 -5 6 6 6 11 1 17 -2 13 -5z
m-2020 -45 c-53 -33 -74 -34 -91 -6 -15 25 -1 32 76 34 l63 3 -48 -31z m206
-74 c17 -12 19 -17 9 -27 -7 -7 -12 -25 -12 -41 0 -26 -3 -28 -22 -22 -13 4
-36 9 -53 12 -16 3 -35 9 -40 14 -6 4 -30 11 -53 15 -42 7 -50 21 -21 34 75
36 99 48 129 68 l35 24 3 -31 c2 -17 13 -37 25 -46z m2017 57 c18 -14 21 -26
18 -67 l-3 -50 -21 35 c-23 39 -38 100 -25 100 5 0 19 -8 31 -18z m1022 -44
c155 4 172 1 156 -34 -10 -20 -8 -29 11 -54 26 -36 29 -36 -114 -15 -55 8
-125 15 -156 15 -70 0 -228 27 -246 42 -10 8 -3 16 34 35 43 21 55 23 118 16
39 -5 127 -7 197 -5z m-3476 -63 l10 -45 -32 0 c-46 0 -134 20 -134 30 0 12
100 59 125 60 16 0 23 -10 31 -45z m1544 0 c0 -3 -21 -28 -46 -55 -31 -33 -49
-63 -56 -92 -5 -24 -16 -53 -24 -65 -17 -26 -52 -30 -61 -8 -9 25 25 117 58
153 33 37 129 86 129 67z m-225 -15 c25 -9 25 -11 11 -32 -9 -12 -16 -29 -16
-38 0 -8 -7 -23 -15 -34 -13 -18 -16 -16 -61 26 -43 41 -45 46 -33 66 15 24
67 30 114 12z m1022 -39 c12 -9 31 -33 43 -53 11 -21 43 -64 70 -97 55 -65 63
-101 33 -151 -24 -41 -54 -53 -113 -48 -57 6 -67 12 -53 30 17 20 31 109 26
153 -3 23 -15 50 -29 64 -13 13 -24 28 -24 34 0 5 -16 29 -35 52 l-34 42 47
-5 c26 -3 57 -12 69 -21z m-2241 -6 c24 -18 10 -19 -41 0 -39 14 -39 14 -9 15
16 0 39 -7 50 -15z m2078 -377 c17 -24 21 -65 8 -84 -11 -16 -108 -27 -132
-14 -21 11 -26 45 -11 68 14 23 65 51 93 51 17 1 33 -7 42 -21z"/>
<path d="M5860 5433 c-8 -2 -31 -12 -50 -21 -24 -11 -69 -16 -145 -18 -85 -1
-120 -6 -155 -21 -25 -11 -62 -23 -84 -27 -40 -8 -106 -36 -106 -46 0 -3 -13
-20 -30 -38 -33 -36 -38 -63 -15 -82 20 -17 48 -9 60 18 12 28 32 28 61 1 17
-16 22 -29 17 -49 -4 -22 0 -31 17 -40 25 -13 52 2 48 29 -2 12 5 16 27 17 44
1 74 13 85 35 6 10 27 26 46 34 31 13 34 17 24 35 -19 35 3 50 71 50 52 0 67
5 124 41 65 41 82 70 49 83 -17 7 -22 7 -44 -1z m-310 -163 c0 -5 -5 -10 -11
-10 -5 0 -7 5 -4 10 3 6 8 10 11 10 2 0 4 -4 4 -10z"/>
<path d="M6200 4900 c-8 -16 -5 -25 18 -51 23 -26 38 -33 79 -36 43 -5 53 -2
61 14 15 28 5 38 -67 67 -77 31 -78 31 -91 6z"/>
<path d="M6140 4671 c-19 -13 -16 -101 6 -144 22 -42 125 -147 144 -147 9 0
35 -14 58 -31 44 -32 85 -36 90 -8 3 16 -63 99 -80 99 -12 0 -80 50 -96 72 -7
9 -18 23 -25 30 -15 15 -45 84 -49 113 -4 22 -26 30 -48 16z"/>
<path d="M6229 4360 c-15 -9 -34 -60 -59 -160 -6 -25 -18 -71 -27 -103 -19
-72 -7 -143 40 -233 26 -47 37 -60 60 -62 35 -4 45 20 25 62 -38 79 -47 104
-53 139 -9 56 2 62 46 23 50 -46 77 -37 70 22 -1 7 -15 31 -30 55 -34 50 -47
129 -31 188 17 64 0 93 -41 69z"/>
<path d="M5715 3023 c-19 -18 -16 -52 13 -120 30 -75 82 -50 62 30 -4 17 -11
44 -14 59 -9 38 -39 53 -61 31z"/>
</g>
</svg>
