<?xml version="1.0" standalone="no"?>
<!DOCTYPE svg PUBLIC "-//W3C//DTD SVG 20010904//EN"
 "http://www.w3.org/TR/2001/REC-SVG-20010904/DTD/svg10.dtd">
<svg version="1.0" xmlns="http://www.w3.org/2000/svg"
 width="184.000000pt" height="176.000000pt" viewBox="0 0 184.000000 176.000000"
 preserveAspectRatio="xMidYMid meet">

<g transform="translate(0.000000,176.000000) scale(0.100000,-0.100000)"
fill="#000000" stroke="none">
<path d="M928 1723 c-21 -8 -38 -19 -38 -24 0 -5 -11 -16 -24 -24 -22 -15 -27
-15 -57 1 -28 14 -34 14 -43 2 -8 -9 -30 -13 -76 -11 -55 1 -70 -2 -97 -23
-50 -38 -57 -58 -40 -112 8 -26 22 -87 31 -137 9 -49 21 -109 26 -133 8 -33 7
-49 -5 -72 -8 -16 -15 -35 -15 -43 0 -12 -28 -80 -50 -119 -6 -10 -10 -23 -10
-29 0 -6 -13 -28 -30 -49 -37 -47 -37 -59 0 -95 28 -27 30 -27 55 -11 14 9 25
14 25 11 0 -3 19 5 43 19 23 14 46 26 52 26 12 2 23 -27 24 -61 1 -14 9 -32
19 -40 26 -22 92 -42 133 -41 33 2 35 0 31 -26 -5 -35 50 -110 177 -242 51
-52 94 -106 97 -120 34 -159 129 -362 172 -368 21 -3 20 1 -18 50 -51 68 -117
217 -136 310 -15 72 -35 108 -60 108 -7 0 -28 19 -46 41 -18 23 -63 75 -100
115 -78 83 -84 104 -34 104 40 0 120 32 94 37 -9 3 -26 -1 -37 -6 -22 -12 -78
-15 -67 -3 4 4 22 13 39 20 l32 12 -40 -4 c-33 -4 -37 -3 -25 7 14 12 40 51
40 62 0 15 -28 2 -33 -15 -3 -12 -26 -30 -60 -45 -50 -23 -57 -24 -93 -12 -44
16 -74 57 -81 115 -2 20 -11 62 -19 93 -8 31 -14 78 -14 104 0 39 3 46 16 41
9 -4 23 -1 31 6 12 10 13 7 7 -18 -4 -16 -13 -41 -20 -56 -8 -15 -14 -34 -14
-42 0 -16 38 -42 47 -32 9 9 -8 25 -22 20 -14 -6 -12 21 5 61 47 106 49 127
18 147 -21 14 -19 16 52 34 87 22 217 24 273 5 55 -19 91 -79 91 -151 -1 -31
-4 -68 -8 -83 -5 -20 -3 -27 8 -27 14 0 29 36 17 43 -3 2 1 2 9 -1 8 -2 22 -5
30 -6 8 -2 19 -15 24 -29 13 -35 -7 -57 -51 -57 -32 0 -35 -3 -63 -65 -27 -60
-32 -65 -77 -80 l-48 -15 45 5 c52 7 66 17 84 60 7 17 21 39 31 48 16 17 19
17 36 1 23 -21 36 -60 48 -147 10 -67 30 -127 43 -127 4 0 0 20 -9 46 -8 25
-13 47 -11 49 2 3 12 -18 22 -46 15 -40 21 -47 32 -38 19 16 18 12 -17 -56
-27 -53 -36 -46 -14 10 7 18 6 19 -9 5 -9 -9 -20 -30 -25 -48 -9 -31 -9 -32
20 -32 16 0 29 5 29 11 0 6 14 40 31 76 28 56 31 67 20 90 -9 19 -15 23 -20
14 -6 -9 -10 -7 -14 8 -3 12 -1 21 5 21 10 0 5 81 -8 114 -6 16 -5 16 13 6 13
-9 18 -21 15 -40 -5 -36 51 -155 83 -176 31 -20 32 -30 4 -37 -18 -5 -20 -11
-16 -34 4 -15 12 -59 18 -98 7 -38 16 -75 21 -82 5 -6 33 -24 61 -39 29 -14
54 -30 57 -33 3 -4 21 -19 42 -35 37 -27 74 -89 63 -105 -3 -5 -38 -22 -78
-36 -39 -15 -93 -40 -118 -56 -25 -16 -50 -29 -56 -29 -6 0 -22 -11 -37 -25
-49 -46 -3 -39 66 9 35 24 94 56 132 70 37 14 81 35 97 47 l29 21 -22 40 c-25
44 -80 93 -170 152 -32 21 -58 39 -58 39 0 1 11 2 25 2 14 0 25 -5 25 -11 0
-6 17 -19 39 -28 36 -17 53 -30 130 -100 30 -28 33 -29 26 -8 -3 12 -3 22 2
21 32 -5 17 6 -52 42 -44 23 -93 48 -108 56 -16 8 -26 17 -23 20 3 3 46 -15
95 -41 66 -33 101 -45 129 -44 20 0 48 -4 61 -11 37 -20 37 -4 0 18 -19 12
-38 21 -42 21 -5 0 -5 5 -1 11 4 6 20 8 40 4 27 -5 34 -3 34 10 0 11 -12 15
-52 16 -29 0 -64 3 -78 5 -46 8 -129 54 -148 81 -19 27 -52 112 -52 136 0 7
-18 23 -40 37 -22 13 -58 51 -81 85 -33 49 -40 66 -36 97 4 31 -1 41 -28 68
-27 26 -33 29 -39 15 -3 -9 -2 -14 3 -11 13 8 21 -18 11 -35 -12 -19 -21 -7
-25 35 -2 19 -7 46 -11 58 -6 21 -5 22 12 8 10 -8 30 -23 43 -35 l25 -20 -22
32 c-13 17 -31 35 -42 38 -11 4 -20 15 -20 26 0 10 -4 19 -10 19 -5 0 -10 6
-10 14 0 8 -7 17 -16 20 -12 5 -15 14 -10 39 5 26 2 38 -14 52 -11 10 -20 15
-20 10 0 -4 -7 -2 -16 6 -14 12 -14 14 1 25 13 10 22 10 39 1 36 -20 117 -101
132 -132 l15 -30 -25 30 c-14 17 -37 45 -52 63 -14 17 -31 32 -37 32 -6 0 -1
-10 10 -22 11 -13 27 -36 36 -53 16 -32 39 -57 108 -121 24 -22 52 -52 61 -65
l17 -24 -6 25 c-3 14 -15 37 -25 53 -11 15 -17 27 -13 27 3 0 -2 11 -11 25 -9
14 -23 25 -30 25 -8 0 -25 24 -38 53 -27 61 -61 94 -133 133 -73 38 -59 42 17
5 70 -35 70 -35 70 -20 0 5 -4 8 -8 5 -5 -3 -9 8 -10 25 -1 25 2 28 13 19 11
-9 29 -3 82 26 129 71 149 90 167 152 8 32 13 67 10 78 -7 27 -45 55 -107 78
-26 10 -73 37 -105 60 -71 52 -124 72 -225 86 -104 13 -145 12 -189 -7z m295
-54 c34 -12 73 -31 87 -43 20 -19 122 -76 190 -106 28 -13 42 -55 28 -87 -6
-15 -11 -31 -10 -35 1 -3 -5 -11 -12 -17 -16 -14 -74 6 -147 51 -25 15 -50 28
-55 28 -10 0 -44 31 -109 100 -59 62 -164 110 -242 110 -40 0 -44 17 -5 23 54
10 213 -4 275 -24z m-297 -34 c4 -8 12 -15 19 -15 21 0 27 -31 11 -55 -14 -21
-14 -25 0 -36 10 -8 14 -22 10 -40 -3 -17 0 -32 9 -39 24 -20 18 -66 -11 -89
-40 -32 -62 -27 -81 17 -13 28 -18 32 -21 19 -6 -28 -34 -57 -56 -57 -16 0
-18 5 -13 43 5 35 3 45 -13 55 -13 8 -20 23 -20 41 0 16 -8 43 -17 60 -16 28
-17 33 -3 58 10 18 25 29 43 31 26 3 27 2 28 -50 l1 -53 12 40 c12 40 12 40
14 -38 1 -43 6 -85 12 -95 9 -13 10 -1 6 48 -3 36 -1 83 3 105 5 22 9 31 10
20 1 -15 5 -12 16 13 15 34 32 41 41 17z m-228 -10 c6 -6 22 -87 27 -130 3
-36 25 -85 37 -85 5 0 6 -10 3 -23 -7 -25 27 -65 61 -71 10 -3 26 -7 35 -11
10 -3 20 -2 24 4 3 6 17 11 31 11 49 0 82 27 92 72 5 27 5 50 -1 63 -10 20
-16 63 -16 122 0 17 -8 38 -16 47 -23 23 -4 21 75 -6 51 -19 79 -38 143 -98
92 -86 215 -156 270 -150 37 3 13 -18 -74 -63 -50 -27 -88 -43 -84 -38 4 7 -7
11 -29 11 -19 0 -37 3 -39 8 -3 4 17 6 44 5 59 -2 74 12 21 20 -54 9 -302 0
-375 -14 -34 -6 -75 -12 -92 -14 -41 -4 -133 -31 -149 -44 -22 -18 -44 10 -49
64 -10 94 -37 195 -59 220 -17 19 -7 57 23 86 26 25 37 30 62 25 17 -3 33 -8
35 -11z m184 -297 c-9 -9 -15 -9 -24 0 -9 9 -7 12 12 12 19 0 21 -3 12 -12z
m368 -68 c10 -5 21 -17 24 -26 5 -14 4 -15 -8 -5 -8 6 -22 14 -32 16 -11 3
-40 10 -66 16 -27 6 -48 13 -48 16 0 8 109 -6 130 -17z m-515 -66 c0 -12 -7
-19 -21 -20 -12 -1 -26 -4 -32 -8 -12 -7 -21 12 -15 34 3 10 15 15 36 14 24
-1 32 -5 32 -20z m-84 -76 c0 -29 2 -60 4 -68 11 -53 14 -106 8 -115 -14 -18
-90 -64 -117 -71 -21 -5 -28 -1 -38 21 -8 17 -8 29 -2 33 14 10 79 139 93 187
7 22 14 46 16 53 3 6 11 12 20 12 11 0 15 -12 16 -52z m549 -2 c0 -26 -6 -18
-14 19 -5 22 -4 26 4 15 5 -8 10 -24 10 -34z m60 -190 c0 -2 -9 -6 -20 -9 -11
-3 -20 -1 -20 4 0 5 9 9 20 9 11 0 20 -2 20 -4z m60 -110 c0 -3 -4 -8 -10 -11
-5 -3 -10 -1 -10 4 0 6 5 11 10 11 6 0 10 -2 10 -4z m-40 -26 c6 -11 8 -20 6
-20 -3 0 -10 9 -16 20 -6 11 -8 20 -6 20 3 0 10 -9 16 -20z m33 -129 c-6 -9
-11 5 -16 54 l-6 50 13 -50 c7 -27 11 -52 9 -54z m191 -116 c8 -27 18 -62 21
-77 5 -17 14 -28 24 -27 10 0 11 2 4 6 -7 2 -13 14 -12 26 0 21 1 21 11 -3 6
-14 12 -29 12 -34 1 -5 32 -22 71 -38 60 -25 91 -46 81 -55 -6 -6 -120 49
-160 77 -31 21 -46 26 -59 19 -12 -7 -17 -6 -17 1 0 6 -5 8 -10 5 -6 -4 -10
-3 -9 2 1 4 0 15 -4 23 -13 35 -24 109 -16 117 5 5 18 9 29 9 15 0 23 -12 34
-51z"/>
<path d="M843 1233 c-24 -10 -43 -21 -43 -25 0 -13 34 -9 66 7 24 11 38 12 68
4 40 -11 76 -5 60 10 -19 19 -108 20 -151 4z"/>
<path d="M880 1183 c0 -38 14 -45 58 -31 47 14 57 32 15 25 -16 -2 -22 -2 -15
0 21 8 2 23 -29 23 -21 0 -29 -5 -29 -17z"/>
<path d="M780 1060 c-13 -8 -12 -10 3 -10 9 0 17 -6 17 -14 0 -9 -8 -12 -25
-8 -32 6 -35 -23 -2 -32 57 -15 69 -2 45 49 -12 28 -16 29 -38 15z"/>
<path d="M1324 977 c75 -61 121 -110 108 -114 -7 -3 -28 7 -47 21 -44 34 -52
33 -23 -3 13 -17 31 -30 41 -30 9 -1 17 -5 17 -11 0 -5 7 -10 15 -10 19 0 19
23 0 59 -18 36 -98 107 -128 114 -17 4 -12 -2 17 -26z"/>
<path d="M785 920 c-4 -6 10 -10 34 -10 22 0 43 5 46 10 4 6 -10 10 -34 10
-22 0 -43 -4 -46 -10z"/>
<path d="M720 910 c0 -13 20 -13 40 0 12 8 9 10 -12 10 -16 0 -28 -4 -28 -10z"/>
<path d="M754 884 c-18 -15 -18 -15 6 -10 14 3 38 6 54 6 36 0 32 5 -10 13
-21 4 -38 1 -50 -9z"/>
<path d="M683 778 c-15 -19 -30 -49 -52 -106 -18 -46 -19 -53 -5 -67 8 -8 11
-15 5 -15 -6 0 -11 -13 -11 -29 0 -49 -90 -111 -242 -165 -52 -19 -66 -32 -71
-67 -3 -19 -14 -27 -50 -37 -48 -14 -96 -61 -131 -129 -9 -18 -34 -51 -55 -73
-41 -43 -59 -90 -35 -90 8 0 14 4 14 10 0 5 8 19 17 31 52 61 51 60 106 143
35 55 68 81 110 90 21 5 28 3 24 -6 -2 -7 -15 -12 -28 -11 -13 1 -18 -1 -11
-4 11 -4 10 -9 -1 -26 -35 -54 -63 -217 -37 -217 5 0 10 15 10 34 0 47 18 138
30 150 7 7 6 -1 0 -21 -14 -38 -9 -105 7 -110 8 -3 10 8 6 36 -7 52 1 83 33
120 29 35 45 38 68 15 9 -8 20 -12 26 -9 6 4 9 3 8 -2 -5 -14 55 -69 92 -86
19 -8 69 -21 110 -27 41 -6 91 -16 110 -23 19 -6 40 -12 47 -13 6 -1 38 -18
70 -38 72 -45 97 -47 58 -6 -37 38 -155 84 -267 104 -48 8 -99 21 -114 29
l-28 15 56 53 c30 30 85 71 122 93 56 33 66 43 66 66 0 15 5 40 10 56 8 21 6
44 -5 84 -50 184 -57 223 -41 232 9 5 14 13 11 19 -8 13 -21 11 -32 -3z m23
-173 c28 -104 30 -135 13 -197 -8 -30 -22 -46 -72 -80 -34 -22 -84 -60 -111
-82 -53 -44 -66 -46 -97 -15 -33 33 -15 61 87 132 29 20 55 33 58 30 3 -4 3
-22 0 -40 -5 -24 -3 -33 7 -33 10 0 14 16 15 58 0 38 8 70 22 97 12 22 22 56
23 75 l1 35 15 -35 c22 -51 21 -139 -3 -175 l-19 -28 28 17 c15 10 25 21 23
25 -2 3 -1 24 3 46 5 29 1 64 -16 125 -14 53 -20 97 -17 118 4 18 8 32 10 30
1 -2 15 -48 30 -103z m-111 -148 c-8 -13 -13 -26 -10 -29 3 -3 -16 -18 -42
-33 -26 -16 -61 -38 -78 -50 -39 -29 -63 -37 -86 -30 -39 13 -17 36 74 80 50
24 103 53 117 64 33 27 44 26 25 -2z m-213 -167 c16 0 19 -3 11 -11 -17 -17
-53 -1 -53 24 1 20 2 20 11 5 5 -10 20 -18 31 -18z"/>
<path d="M222 225 c-11 -13 -23 -21 -27 -17 -5 4 -5 2 -2 -4 4 -7 -2 -31 -12
-55 -26 -60 -42 -149 -27 -149 7 0 22 42 35 94 17 72 28 99 47 113 24 18 33
43 15 43 -5 0 -18 -11 -29 -25z"/>
<path d="M407 150 c-14 -105 -16 -150 -7 -150 18 0 35 136 21 171 -8 21 -9 19
-14 -21z"/>
</g>
</svg>
